<?xml version="1.0" encoding="UTF-8" standalone="no"?>
<svg width="244.828mm" height="177.8mm"
 xmlns="http://www.w3.org/2000/svg" xmlns:xlink="http://www.w3.org/1999/xlink"  version="1.2" baseProfile="tiny">
<title>Qt SVG Document</title>
<desc>Generated with Qt</desc>
<defs>
</defs>
<g fill="none" stroke="black" stroke-width="1" fill-rule="evenodd" stroke-linecap="square" stroke-linejoin="bevel" >

<g fill="none" stroke="#000000" stroke-opacity="1" stroke-width="1" stroke-linecap="square" stroke-linejoin="bevel" transform="matrix(1,0,0,1,0,0)"
font-family="Ubuntu" font-size="11" font-weight="400" font-style="normal" 
>
</g>

<g fill="none" stroke="#000000" stroke-opacity="1" stroke-width="1" stroke-linecap="square" stroke-linejoin="bevel" transform="matrix(1,0,0,1,0,0)"
font-family="Ubuntu" font-size="11" font-weight="400" font-style="normal" 
>
</g>

<g fill="none" stroke="#000000" stroke-opacity="1" stroke-width="1" stroke-linecap="square" stroke-linejoin="bevel" transform="matrix(1.9989,0,0,1.9989,0.00319823,503.722)"
font-family="Ubuntu" font-size="11" font-weight="400" font-style="normal" 
>
</g>

<g fill="#ffffff" fill-opacity="1" stroke="none" transform="matrix(1.9989,0,0,1.9989,0.00319823,503.722)"
font-family="Ubuntu" font-size="11" font-weight="400" font-style="normal" 
>
<rect x="-0.0016" y="-252" width="347.192" height="252"/>
</g>

<g fill="none" stroke="#000000" stroke-opacity="1" stroke-width="1" stroke-linecap="square" stroke-linejoin="bevel" transform="matrix(1.9989,0,0,1.9989,0.00319823,503.722)"
font-family="Ubuntu" font-size="11" font-weight="400" font-style="normal" 
>
</g>

<g fill="none" stroke="#000000" stroke-opacity="1" stroke-width="1" stroke-linecap="square" stroke-linejoin="bevel" transform="matrix(1.9989,0,0,1.9989,0.00319823,503.722)"
font-family="Ubuntu" font-size="11" font-weight="400" font-style="normal" 
>
</g>

<g fill="none" stroke="#000000" stroke-opacity="1" stroke-width="1" stroke-linecap="square" stroke-linejoin="bevel" transform="matrix(1.9989,0,0,1.9989,0.00319823,503.722)"
font-family="Ubuntu" font-size="11" font-weight="400" font-style="normal" 
>
</g>

<g fill="none" stroke="#000000" stroke-opacity="1" stroke-width="1" stroke-linecap="square" stroke-linejoin="bevel" transform="matrix(1.9989,0,0,1.9989,0.00319823,503.722)"
font-family="Ubuntu" font-size="11" font-weight="400" font-style="normal" 
>
</g>

<g fill="none" stroke="#000000" stroke-opacity="1" stroke-width="1" stroke-linecap="square" stroke-linejoin="round" transform="matrix(1.9989,0,0,1.9989,0.00319823,503.722)"
font-family="Ubuntu" font-size="11" font-weight="400" font-style="normal" 
>
<rect x="0.4984" y="-143.5" width="84.0032" height="35"/>
</g>

<g fill="none" stroke="#000000" stroke-opacity="1" stroke-width="1" stroke-linecap="square" stroke-linejoin="bevel" transform="matrix(1.9989,0,0,1.9989,0.00319823,503.722)"
font-family="Ubuntu" font-size="11" font-weight="400" font-style="normal" 
>
</g>

<g fill="none" stroke="#000000" stroke-opacity="1" stroke-width="1" stroke-linecap="square" stroke-linejoin="bevel" transform="matrix(1.9989,0,0,1.9989,16.5409,237.869)"
font-family="Ubuntu" font-size="11" font-weight="400" font-style="normal" 
>
</g>

<g fill="none" stroke="#000000" stroke-opacity="1" stroke-width="1" stroke-linecap="square" stroke-linejoin="bevel" transform="matrix(1.9989,0,0,1.9989,16.5409,237.869)"
font-family="sans" font-size="11" font-weight="100" font-style="normal" 
>
</g>

<g fill="#000000" fill-opacity="1" stroke="#000000" stroke-opacity="1" stroke-width="1" stroke-linecap="square" stroke-linejoin="round" transform="matrix(1.9989,0,0,1.9989,16.5409,237.869)"
font-family="sans" font-size="11" font-weight="100" font-style="normal" 
>
<path vector-effect="none" fill-rule="nonzero" d="M2.96875,2.98438 L3.53125,2.98438 L0.734375,12.0156 L0.171875,12.0156 L2.96875,2.98438 M5.4375,9.64063 L5.4375,13.2813 L4.95313,13.2813 L4.95313,4.98438 L5.4375,4.98438 L5.4375,6.35938 C5.66667,5.83854 5.91146,5.47917 6.17188,5.28125 C6.57813,4.98958 6.96354,4.84375 7.32813,4.84375 C8.03646,4.84375 8.6276,5.13281 9.10156,5.71094 C9.57552,6.28906 9.8125,7.05208 9.8125,8 C9.8125,8.94792 9.57552,9.71094 9.10156,10.2891 C8.6276,10.8672 8.03646,11.1563 7.32813,11.1563 C6.96354,11.1563 6.57813,11.0052 6.17188,10.7031 C5.91146,10.5156 5.66667,10.1615 5.4375,9.64063 M8.67188,10.0938 C9.08854,9.67708 9.29688,8.97917 9.29688,8 C9.29688,7.02083 9.08854,6.32292 8.67188,5.90625 C8.25521,5.48958 7.81771,5.28125 7.35938,5.28125 C6.91146,5.28125 6.47917,5.48958 6.0625,5.90625 C5.65625,6.32292 5.45313,7.02083 5.45313,8 C5.45313,8.97917 5.65625,9.67708 6.0625,10.0938 C6.47917,10.5104 6.91146,10.7188 7.35938,10.7188 C7.81771,10.7188 8.25521,10.5104 8.67188,10.0938 M15.5,6.01563 C15.1458,5.52604 14.6615,5.28125 14.0469,5.28125 C13.4323,5.28125 12.9479,5.52604 12.5938,6.01563 C12.2396,6.49479 12.0625,7.15104 12.0625,7.98438 C12.0625,8.83854 12.2396,9.51042 12.5938,10 C12.9479,10.4896 13.4323,10.7344 14.0469,10.7344 C14.6615,10.7344 15.1458,10.4896 15.5,10 C15.8542,9.5 16.0313,8.82813 16.0313,7.98438 C16.0313,7.16146 15.8542,6.50521 15.5,6.01563 M14.0469,4.84375 C14.8073,4.84375 15.4115,5.13021 15.8594,5.70313 C16.3073,6.27604 16.5313,7.03646 16.5313,7.98438 C16.5313,8.97396 16.3073,9.75521 15.8594,10.3281 C15.4115,10.901 14.8073,11.1875 14.0469,11.1875 C13.2656,11.1875 12.651,10.901 12.2031,10.3281 C11.7656,9.75521 11.5469,8.97396 11.5469,7.98438 C11.5469,7.02604 11.7708,6.26302 12.2188,5.69531 C12.6667,5.1276 13.276,4.84375 14.0469,4.84375 M18.625,4.98438 L19.125,4.98438 L19.125,11 L18.625,11 L18.625,4.98438 M18.625,2.64063 L19.125,2.64063 L19.125,3.3125 L18.625,3.3125 L18.625,2.64063 M26.2344,7.375 L26.2344,11 L25.7344,11 L25.7344,7.40625 C25.7344,6.625 25.6094,6.07552 25.3594,5.75781 C25.1094,5.4401 24.7396,5.28125 24.25,5.28125 C23.6771,5.28125 23.1927,5.45313 22.7969,5.79688 C22.3802,6.14063 22.1719,6.73958 22.1719,7.59375 L22.1719,11 L21.6875,11 L21.6875,4.98438 L22.1719,4.98438 L22.1719,6.10938 C22.349,5.74479 22.5833,5.46875 22.875,5.28125 C23.2917,4.98958 23.7552,4.84375 24.2656,4.84375 C24.8698,4.84375 25.349,5.04688 25.7031,5.45313 C26.0573,5.84896 26.2344,6.48958 26.2344,7.375 M29.1719,3.28125 L29.1719,4.98438 L31.2031,4.98438 L31.2031,5.40625 L29.1719,5.40625 L29.1719,9.01563 C29.1719,9.47396 29.2292,9.79688 29.3438,9.98438 C29.5938,10.3802 29.9531,10.5781 30.4219,10.5781 L31.2031,10.5781 L31.2031,11 L30.4375,11 C29.9479,11 29.5313,10.8568 29.1875,10.5703 C28.8438,10.2839 28.6719,9.76563 28.6719,9.01563 L28.6719,5.40625 L27.9531,5.40625 L27.9531,4.98438 L28.6719,4.98438 L28.6719,3.28125 L29.1719,3.28125 M37.0781,5.28125 L37.0781,5.79688 C36.7865,5.61979 36.5417,5.5 36.3438,5.4375 C36.0104,5.33333 35.6927,5.28125 35.3906,5.28125 C34.526,5.28125 33.9063,5.5026 33.5313,5.94531 C33.1563,6.38802 32.9688,7.07292 32.9688,8 C32.9688,8.9375 33.1563,9.6276 33.5313,10.0703 C33.9063,10.513 34.526,10.7344 35.3906,10.7344 C35.6823,10.7344 35.9635,10.6927 36.2344,10.6094 C36.526,10.5365 36.8073,10.4219 37.0781,10.2656 L37.0781,10.7656 C36.8073,10.901 36.526,11 36.2344,11.0625 C35.9323,11.125 35.6354,11.1563 35.3438,11.1563 C34.4688,11.1563 33.7708,10.9167 33.25,10.4375 C32.7292,9.95833 32.4688,9.14323 32.4688,7.99219 C32.4688,6.84115 32.7292,6.02604 33.25,5.54688 C33.7708,5.07813 34.4688,4.84375 35.3438,4.84375 C35.6354,4.84375 35.9427,4.88542 36.2656,4.96875 C36.5885,5.04167 36.8594,5.14583 37.0781,5.28125 M39.0156,2.64063 L39.5,2.64063 L39.5,11 L39.0156,11 L39.0156,2.64063 M45.6406,6.01563 C45.2865,5.52604 44.8021,5.28125 44.1875,5.28125 C43.5729,5.28125 43.0885,5.52604 42.7344,6.01563 C42.3802,6.49479 42.2031,7.15104 42.2031,7.98438 C42.2031,8.83854 42.3802,9.51042 42.7344,10 C43.0885,10.4896 43.5729,10.7344 44.1875,10.7344 C44.8021,10.7344 45.2865,10.4896 45.6406,10 C45.9948,9.5 46.1719,8.82813 46.1719,7.98438 C46.1719,7.16146 45.9948,6.50521 45.6406,6.01563 M44.1875,4.84375 C44.9479,4.84375 45.5521,5.13021 46,5.70313 C46.4479,6.27604 46.6719,7.03646 46.6719,7.98438 C46.6719,8.97396 46.4479,9.75521 46,10.3281 C45.5521,10.901 44.9479,11.1875 44.1875,11.1875 C43.4063,11.1875 42.7917,10.901 42.3438,10.3281 C41.9063,9.75521 41.6875,8.97396 41.6875,7.98438 C41.6875,7.02604 41.9115,6.26302 42.3594,5.69531 C42.8073,5.1276 43.4167,4.84375 44.1875,4.84375 M48.7188,8.60938 L48.7188,4.98438 L49.2031,4.98438 L49.2031,8.57813 C49.2031,9.35938 49.3281,9.90885 49.5781,10.2266 C49.8281,10.5443 50.1979,10.7031 50.6875,10.7031 C51.2604,10.7031 51.75,10.5313 52.1563,10.1875 C52.5625,9.84375 52.7656,9.24479 52.7656,8.39063 L52.7656,4.98438 L53.25,4.98438 L53.25,11 L52.7656,11 L52.7656,9.875 C52.5885,10.2396 52.3542,10.5156 52.0625,10.7031 C51.6458,10.9948 51.1823,11.1406 50.6719,11.1406 C50.0781,11.1406 49.6042,10.9375 49.25,10.5313 C48.8958,10.1354 48.7188,9.49479 48.7188,8.60938 M59.75,6.35938 L59.75,2.64063 L60.2188,2.64063 L60.2188,11 L59.75,11 L59.75,9.64063 C59.5208,10.1615 59.2708,10.5156 59,10.7031 C58.6042,11.0052 58.224,11.1563 57.8594,11.1563 C57.151,11.1563 56.5599,10.8672 56.0859,10.2891 C55.612,9.71094 55.375,8.94792 55.375,8 C55.375,7.05208 55.612,6.28906 56.0859,5.71094 C56.5599,5.13281 57.151,4.84375 57.8594,4.84375 C58.224,4.84375 58.6042,4.98958 59,5.28125 C59.2708,5.47917 59.5208,5.83854 59.75,6.35938 M56.5156,5.90625 C56.099,6.32292 55.8906,7.02083 55.8906,8 C55.8906,8.97917 56.099,9.67708 56.5156,10.0938 C56.9323,10.5104 57.3698,10.7188 57.8281,10.7188 C58.276,10.7188 58.7083,10.5104 59.125,10.0938 C59.5313,9.67708 59.7344,8.97917 59.7344,8 C59.7344,7.02083 59.5313,6.32292 59.125,5.90625 C58.7083,5.48958 58.276,5.28125 57.8281,5.28125 C57.3698,5.28125 56.9323,5.48958 56.5156,5.90625 M62.7969,10.5625 L67.3594,10.5625 L67.3594,11 L62.2344,11 L62.2344,10.4375 L64.2344,8.35938 C64.724,7.85938 65.1719,7.39583 65.5781,6.96875 C65.9427,6.57292 66.1875,6.26563 66.3125,6.04688 C66.4375,5.82813 66.5,5.53646 66.5,5.17188 C66.5,4.55729 66.3125,4.0625 65.9375,3.6875 C65.6667,3.41667 65.224,3.28125 64.6094,3.28125 C64.2448,3.28125 63.8333,3.38542 63.375,3.59375 C63.1667,3.6875 62.8177,3.89063 62.3281,4.20313 L62.3281,3.64063 C62.5365,3.49479 62.8385,3.32813 63.2344,3.14063 C63.6927,2.94271 64.1458,2.83854 64.5938,2.82813 C65.2813,2.82813 65.8594,3.01042 66.3281,3.375 C66.7865,3.72917 67.0156,4.3125 67.0156,5.125 C67.0156,5.45833 66.9531,5.77083 66.8281,6.0625 C66.6823,6.40625 66.4583,6.75521 66.1563,7.10938 C66.0625,7.21354 65.776,7.51042 65.2969,8 L62.7969,10.5625"/>
</g>

<g fill="none" stroke="#000000" stroke-opacity="1" stroke-width="1" stroke-linecap="square" stroke-linejoin="bevel" transform="matrix(1.9989,0,0,1.9989,16.5409,237.869)"
font-family="sans" font-size="11" font-weight="100" font-style="normal" 
>
</g>

<g fill="none" stroke="#000000" stroke-opacity="1" stroke-width="1" stroke-linecap="square" stroke-linejoin="bevel" transform="matrix(1.9989,0,0,1.9989,16.5409,237.869)"
font-family="Ubuntu" font-size="11" font-weight="400" font-style="normal" 
>
</g>

<g fill="none" stroke="#000000" stroke-opacity="1" stroke-width="1" stroke-linecap="square" stroke-linejoin="bevel" transform="matrix(1.9989,0,0,1.9989,0.00319823,503.722)"
font-family="Ubuntu" font-size="11" font-weight="400" font-style="normal" 
>
</g>

<g fill="none" stroke="#000000" stroke-opacity="1" stroke-width="1" stroke-linecap="square" stroke-linejoin="bevel" transform="matrix(1.9989,0,0,1.9989,0.00319823,503.722)"
font-family="Ubuntu" font-size="11" font-weight="400" font-style="normal" 
>
</g>

<g fill="none" stroke="#000000" stroke-opacity="1" stroke-width="1" stroke-linecap="square" stroke-linejoin="bevel" transform="matrix(1.9989,0,0,1.9989,0.00319823,503.722)"
font-family="Ubuntu" font-size="11" font-weight="400" font-style="normal" 
>
</g>

<g fill="none" stroke="#000000" stroke-opacity="1" stroke-width="1" stroke-linecap="square" stroke-linejoin="round" transform="matrix(1.9989,0,0,1.9989,0.00319823,503.722)"
font-family="Ubuntu" font-size="11" font-weight="400" font-style="normal" 
>
<rect x="253.19" y="-251.5" width="89" height="35"/>
</g>

<g fill="none" stroke="#000000" stroke-opacity="1" stroke-width="1" stroke-linecap="square" stroke-linejoin="bevel" transform="matrix(1.9989,0,0,1.9989,0.00319823,503.722)"
font-family="Ubuntu" font-size="11" font-weight="400" font-style="normal" 
>
</g>

<g fill="none" stroke="#000000" stroke-opacity="1" stroke-width="1" stroke-linecap="square" stroke-linejoin="bevel" transform="matrix(1.9989,0,0,1.9989,521.361,21.9879)"
font-family="Ubuntu" font-size="11" font-weight="400" font-style="normal" 
>
</g>

<g fill="none" stroke="#000000" stroke-opacity="1" stroke-width="1" stroke-linecap="square" stroke-linejoin="bevel" transform="matrix(1.9989,0,0,1.9989,521.361,21.9879)"
font-family="sans" font-size="11" font-weight="100" font-style="normal" 
>
</g>

<g fill="#000000" fill-opacity="1" stroke="#000000" stroke-opacity="1" stroke-width="1" stroke-linecap="square" stroke-linejoin="round" transform="matrix(1.9989,0,0,1.9989,521.361,21.9879)"
font-family="sans" font-size="11" font-weight="100" font-style="normal" 
>
<path vector-effect="none" fill-rule="nonzero" d="M2.96875,2.98438 L3.53125,2.98438 L0.734375,12.0156 L0.171875,12.0156 L2.96875,2.98438 M8.21875,5.40625 C8.13542,5.36458 8.02604,5.33333 7.89063,5.3125 C7.76563,5.29167 7.61458,5.28125 7.4375,5.28125 C6.82292,5.28125 6.31771,5.50521 5.92188,5.95313 C5.59896,6.31771 5.4375,6.94271 5.4375,7.82813 L5.4375,11 L4.95313,11 L4.95313,4.98438 L5.4375,4.98438 L5.4375,6.10938 C5.60417,5.78646 5.83333,5.51563 6.125,5.29688 C6.52083,4.99479 6.98958,4.84375 7.53125,4.84375 C7.67708,4.84375 7.80208,4.84896 7.90625,4.85938 C8.01042,4.85938 8.11458,4.86979 8.21875,4.89063 L8.21875,5.40625 M13.0469,6.01563 C12.6927,5.52604 12.2083,5.28125 11.5938,5.28125 C10.9792,5.28125 10.4948,5.52604 10.1406,6.01563 C9.78646,6.49479 9.60938,7.15104 9.60938,7.98438 C9.60938,8.83854 9.78646,9.51042 10.1406,10 C10.4948,10.4896 10.9792,10.7344 11.5938,10.7344 C12.2083,10.7344 12.6927,10.4896 13.0469,10 C13.401,9.5 13.5781,8.82813 13.5781,7.98438 C13.5781,7.16146 13.401,6.50521 13.0469,6.01563 M11.5938,4.84375 C12.3542,4.84375 12.9583,5.13021 13.4063,5.70313 C13.8542,6.27604 14.0781,7.03646 14.0781,7.98438 C14.0781,8.97396 13.8542,9.75521 13.4063,10.3281 C12.9583,10.901 12.3542,11.1875 11.5938,11.1875 C10.8125,11.1875 10.1979,10.901 9.75,10.3281 C9.3125,9.75521 9.09375,8.97396 9.09375,7.98438 C9.09375,7.02604 9.31771,6.26302 9.76563,5.69531 C10.2135,5.1276 10.8229,4.84375 11.5938,4.84375 M18.5938,7.60938 C17.7917,7.60938 17.2161,7.75 16.8672,8.03125 C16.5182,8.3125 16.3438,8.72396 16.3438,9.26563 C16.3438,9.79688 16.4896,10.1745 16.7813,10.3984 C17.0729,10.6224 17.4167,10.7344 17.8125,10.7344 C18.5625,10.7344 19.1042,10.4167 19.4375,9.78125 C19.7708,9.13542 19.9375,8.53125 19.9375,7.96875 L19.9375,7.60938 L18.5938,7.60938 M20.4375,7.5625 L20.4375,11 L19.9375,11 L19.9375,9.35938 C19.6667,10.1615 19.3021,10.6719 18.8438,10.8906 C18.4896,11.0677 18.1302,11.1563 17.7656,11.1563 C17.1719,11.1563 16.7031,10.9948 16.3594,10.6719 C16.0156,10.349 15.8438,9.8776 15.8438,9.25781 C15.8438,8.63802 16.0677,8.14063 16.5156,7.76563 C16.9635,7.39063 17.6927,7.20313 18.7031,7.20313 L19.9375,7.20313 L19.9375,7.10938 C19.9375,6.57813 19.7813,6.14063 19.4688,5.79688 C19.1771,5.45313 18.6823,5.28125 17.9844,5.28125 C17.6406,5.28125 17.2917,5.34375 16.9375,5.46875 C16.7083,5.55208 16.4063,5.71875 16.0313,5.96875 L16.0313,5.4375 C16.3542,5.23958 16.6563,5.09896 16.9375,5.01563 C17.3333,4.90104 17.7135,4.84375 18.0781,4.84375 C18.7969,4.84375 19.3854,5.05729 19.8438,5.48438 C20.2396,5.84896 20.4375,6.54167 20.4375,7.5625 M26.9219,6.35938 L26.9219,2.64063 L27.3906,2.64063 L27.3906,11 L26.9219,11 L26.9219,9.64063 C26.6927,10.1615 26.4427,10.5156 26.1719,10.7031 C25.776,11.0052 25.3958,11.1563 25.0313,11.1563 C24.3229,11.1563 23.7318,10.8672 23.2578,10.2891 C22.7839,9.71094 22.5469,8.94792 22.5469,8 C22.5469,7.05208 22.7839,6.28906 23.2578,5.71094 C23.7318,5.13281 24.3229,4.84375 25.0313,4.84375 C25.3958,4.84375 25.776,4.98958 26.1719,5.28125 C26.4427,5.47917 26.6927,5.83854 26.9219,6.35938 M23.6875,5.90625 C23.2708,6.32292 23.0625,7.02083 23.0625,8 C23.0625,8.97917 23.2708,9.67708 23.6875,10.0938 C24.1042,10.5104 24.5417,10.7188 25,10.7188 C25.4479,10.7188 25.8802,10.5104 26.2969,10.0938 C26.7031,9.67708 26.9063,8.97917 26.9063,8 C26.9063,7.02083 26.7031,6.32292 26.2969,5.90625 C25.8802,5.48958 25.4479,5.28125 25,5.28125 C24.5417,5.28125 24.1042,5.48958 23.6875,5.90625 M34.25,13.1719 L34.25,13.5938 L28.5313,13.5938 L28.5313,13.1719 L34.25,13.1719 M39.7188,6.29688 C39.9063,5.80729 40.1979,5.44271 40.5938,5.20313 C40.9792,4.96354 41.4323,4.84375 41.9531,4.84375 C42.474,4.84375 42.8906,5.02604 43.2031,5.39063 C43.526,5.75521 43.6875,6.41667 43.6875,7.375 L43.6875,11 L43.2031,11 L43.2031,7.40625 C43.2031,6.57292 43.0885,6.01042 42.8594,5.71875 C42.6302,5.42708 42.3229,5.28125 41.9375,5.28125 C41.3854,5.28125 40.901,5.44792 40.4844,5.78125 C40.0156,6.15625 39.7813,6.76042 39.7813,7.59375 L39.7813,11 L39.2969,11 L39.2969,7.40625 C39.2969,6.60417 39.1849,6.04948 38.9609,5.74219 C38.737,5.4349 38.4271,5.28125 38.0313,5.28125 C37.4792,5.28125 36.9948,5.45313 36.5781,5.79688 C36.1094,6.16146 35.875,6.76042 35.875,7.59375 L35.875,11 L35.3906,11 L35.3906,4.98438 L35.875,4.98438 L35.875,6.10938 C36.0521,5.71354 36.3281,5.40104 36.7031,5.17188 C37.0677,4.95313 37.5208,4.84375 38.0625,4.84375 C38.4167,4.84375 38.7552,4.95833 39.0781,5.1875 C39.3281,5.375 39.5417,5.74479 39.7188,6.29688 M48.5,7.60938 C47.6979,7.60938 47.1224,7.75 46.7734,8.03125 C46.4245,8.3125 46.25,8.72396 46.25,9.26563 C46.25,9.79688 46.3958,10.1745 46.6875,10.3984 C46.9792,10.6224 47.3229,10.7344 47.7188,10.7344 C48.4688,10.7344 49.0104,10.4167 49.3438,9.78125 C49.6771,9.13542 49.8438,8.53125 49.8438,7.96875 L49.8438,7.60938 L48.5,7.60938 M50.3438,7.5625 L50.3438,11 L49.8438,11 L49.8438,9.35938 C49.5729,10.1615 49.2083,10.6719 48.75,10.8906 C48.3958,11.0677 48.0365,11.1563 47.6719,11.1563 C47.0781,11.1563 46.6094,10.9948 46.2656,10.6719 C45.9219,10.349 45.75,9.8776 45.75,9.25781 C45.75,8.63802 45.974,8.14063 46.4219,7.76563 C46.8698,7.39063 47.599,7.20313 48.6094,7.20313 L49.8438,7.20313 L49.8438,7.10938 C49.8438,6.57813 49.6875,6.14063 49.375,5.79688 C49.0833,5.45313 48.5885,5.28125 47.8906,5.28125 C47.5469,5.28125 47.1979,5.34375 46.8438,5.46875 C46.6146,5.55208 46.3125,5.71875 45.9375,5.96875 L45.9375,5.4375 C46.2604,5.23958 46.5625,5.09896 46.8438,5.01563 C47.2396,4.90104 47.6198,4.84375 47.9844,4.84375 C48.7031,4.84375 49.2917,5.05729 49.75,5.48438 C50.1458,5.84896 50.3438,6.54167 50.3438,7.5625 M56.0938,5.40625 C56.0104,5.36458 55.901,5.33333 55.7656,5.3125 C55.6406,5.29167 55.4896,5.28125 55.3125,5.28125 C54.6979,5.28125 54.1927,5.50521 53.7969,5.95313 C53.474,6.31771 53.3125,6.94271 53.3125,7.82813 L53.3125,11 L52.8281,11 L52.8281,4.98438 L53.3125,4.98438 L53.3125,6.10938 C53.4792,5.78646 53.7083,5.51563 54,5.29688 C54.3958,4.99479 54.8646,4.84375 55.4063,4.84375 C55.5521,4.84375 55.6771,4.84896 55.7813,4.85938 C55.8854,4.85938 55.9896,4.86979 56.0938,4.89063 L56.0938,5.40625 M57.8438,2.64063 L58.3438,2.64063 L58.3438,7.71875 L61.3281,4.98438 L62,4.98438 L58.8906,7.82813 L62.1094,11 L61.4688,11 L58.3438,7.92188 L58.3438,11 L57.8438,11 L57.8438,2.64063 M68.3906,7.75 L68.3906,8.0625 L63.8281,8.0625 C63.8281,9.02083 64.0156,9.69792 64.3906,10.0938 C64.8073,10.5208 65.4219,10.7344 66.2344,10.7344 C66.4531,10.7344 66.7396,10.6875 67.0938,10.5938 C67.4479,10.5 67.8021,10.3594 68.1563,10.1719 L68.1563,10.6875 C67.8021,10.8438 67.4401,10.9609 67.0703,11.0391 C66.7005,11.1172 66.4063,11.1563 66.1875,11.1563 C65.2604,11.1563 64.5625,10.9063 64.0938,10.4063 C63.5833,9.875 63.3281,9.09375 63.3281,8.0625 C63.3281,6.98958 63.5573,6.1875 64.0156,5.65625 C64.4948,5.11458 65.1615,4.84375 66.0156,4.84375 C66.7969,4.84375 67.3906,5.10417 67.7969,5.625 C68.1927,6.16667 68.3906,6.875 68.3906,7.75 M67.8906,7.64063 C67.8906,6.79688 67.6979,6.18229 67.3125,5.79688 C67,5.45313 66.5677,5.28125 66.0156,5.28125 C65.4219,5.28125 64.9219,5.45833 64.5156,5.8125 C64.1406,6.14583 63.9167,6.75521 63.8438,7.64063 L67.8906,7.64063 M73.7344,5.40625 C73.651,5.36458 73.5417,5.33333 73.4063,5.3125 C73.2813,5.29167 73.1302,5.28125 72.9531,5.28125 C72.3385,5.28125 71.8333,5.50521 71.4375,5.95313 C71.1146,6.31771 70.9531,6.94271 70.9531,7.82813 L70.9531,11 L70.4688,11 L70.4688,4.98438 L70.9531,4.98438 L70.9531,6.10938 C71.1198,5.78646 71.349,5.51563 71.6406,5.29688 C72.0365,4.99479 72.5052,4.84375 73.0469,4.84375 C73.1927,4.84375 73.3177,4.84896 73.4219,4.85938 C73.526,4.85938 73.6302,4.86979 73.7344,4.89063 L73.7344,5.40625"/>
</g>

<g fill="none" stroke="#000000" stroke-opacity="1" stroke-width="1" stroke-linecap="square" stroke-linejoin="bevel" transform="matrix(1.9989,0,0,1.9989,521.361,21.9879)"
font-family="sans" font-size="11" font-weight="100" font-style="normal" 
>
</g>

<g fill="none" stroke="#000000" stroke-opacity="1" stroke-width="1" stroke-linecap="square" stroke-linejoin="bevel" transform="matrix(1.9989,0,0,1.9989,521.361,21.9879)"
font-family="Ubuntu" font-size="11" font-weight="400" font-style="normal" 
>
</g>

<g fill="none" stroke="#000000" stroke-opacity="1" stroke-width="1" stroke-linecap="square" stroke-linejoin="bevel" transform="matrix(1.9989,0,0,1.9989,0.00319823,503.722)"
font-family="Ubuntu" font-size="11" font-weight="400" font-style="normal" 
>
</g>

<g fill="none" stroke="#000000" stroke-opacity="1" stroke-width="1" stroke-linecap="square" stroke-linejoin="bevel" transform="matrix(1.9989,0,0,1.9989,0.00319823,503.722)"
font-family="Ubuntu" font-size="11" font-weight="400" font-style="normal" 
>
</g>

<g fill="none" stroke="#000000" stroke-opacity="1" stroke-width="1" stroke-linecap="square" stroke-linejoin="bevel" transform="matrix(1.9989,0,0,1.9989,0.00319823,503.722)"
font-family="Ubuntu" font-size="11" font-weight="400" font-style="normal" 
>
</g>

<g fill="none" stroke="#000000" stroke-opacity="1" stroke-width="1" stroke-linecap="square" stroke-linejoin="round" transform="matrix(1.9989,0,0,1.9989,0.00319823,503.722)"
font-family="Ubuntu" font-size="11" font-weight="400" font-style="normal" 
>
<ellipse cx="166.59" cy="-126" rx="67.0936" ry="17.5"/>
</g>

<g fill="none" stroke="#000000" stroke-opacity="1" stroke-width="1" stroke-linecap="square" stroke-linejoin="bevel" transform="matrix(1.9989,0,0,1.9989,0.00319823,503.722)"
font-family="Ubuntu" font-size="11" font-weight="400" font-style="normal" 
>
</g>

<g fill="none" stroke="#000000" stroke-opacity="1" stroke-width="1" stroke-linecap="square" stroke-linejoin="bevel" transform="matrix(1.9989,0,0,1.9989,246.984,237.869)"
font-family="Ubuntu" font-size="11" font-weight="400" font-style="normal" 
>
</g>

<g fill="none" stroke="#000000" stroke-opacity="1" stroke-width="1" stroke-linecap="square" stroke-linejoin="bevel" transform="matrix(1.9989,0,0,1.9989,246.984,237.869)"
font-family="sans" font-size="11" font-weight="100" font-style="normal" 
>
</g>

<g fill="#000000" fill-opacity="1" stroke="#000000" stroke-opacity="1" stroke-width="1" stroke-linecap="square" stroke-linejoin="round" transform="matrix(1.9989,0,0,1.9989,246.984,237.869)"
font-family="sans" font-size="11" font-weight="100" font-style="normal" 
>
<path vector-effect="none" fill-rule="nonzero" d="M2.96875,2.98438 L3.53125,2.98438 L0.734375,12.0156 L0.171875,12.0156 L2.96875,2.98438 M4.89063,8.60938 L4.89063,4.98438 L5.375,4.98438 L5.375,8.57813 C5.375,9.35938 5.5,9.90885 5.75,10.2266 C6,10.5443 6.36979,10.7031 6.85938,10.7031 C7.43229,10.7031 7.92188,10.5313 8.32813,10.1875 C8.73438,9.84375 8.9375,9.24479 8.9375,8.39063 L8.9375,4.98438 L9.42188,4.98438 L9.42188,11 L8.9375,11 L8.9375,9.875 C8.76042,10.2396 8.52604,10.5156 8.23438,10.7031 C7.81771,10.9948 7.35417,11.1406 6.84375,11.1406 C6.25,11.1406 5.77604,10.9375 5.42188,10.5313 C5.06771,10.1354 4.89063,9.49479 4.89063,8.60938 M15.1875,5.40625 C15.1042,5.36458 14.9948,5.33333 14.8594,5.3125 C14.7344,5.29167 14.5833,5.28125 14.4063,5.28125 C13.7917,5.28125 13.2865,5.50521 12.8906,5.95313 C12.5677,6.31771 12.4063,6.94271 12.4063,7.82813 L12.4063,11 L11.9219,11 L11.9219,4.98438 L12.4063,4.98438 L12.4063,6.10938 C12.5729,5.78646 12.8021,5.51563 13.0938,5.29688 C13.4896,4.99479 13.9583,4.84375 14.5,4.84375 C14.6458,4.84375 14.7708,4.84896 14.875,4.85938 C14.9792,4.85938 15.0833,4.86979 15.1875,4.89063 L15.1875,5.40625 M20.1563,10.0938 C20.5729,9.67708 20.7813,8.97917 20.7813,8 C20.7813,7.02083 20.5729,6.32292 20.1563,5.90625 C19.7396,5.48958 19.3021,5.28125 18.8438,5.28125 C18.3958,5.28125 17.9635,5.48958 17.5469,5.90625 C17.1406,6.32292 16.9375,7.02083 16.9375,8 C16.9375,8.97917 17.1406,9.67708 17.5469,10.0938 C17.9635,10.5104 18.3958,10.7188 18.8438,10.7188 C19.3021,10.7188 19.7396,10.5104 20.1563,10.0938 M16.9219,6.35938 C17.151,5.83854 17.3958,5.47917 17.6563,5.28125 C18.0625,4.98958 18.4479,4.84375 18.8125,4.84375 C19.5208,4.84375 20.112,5.13281 20.5859,5.71094 C21.0599,6.28906 21.2969,7.05208 21.2969,8 C21.2969,8.94792 21.0599,9.71094 20.5859,10.2891 C20.112,10.8672 19.5208,11.1563 18.8125,11.1563 C18.4479,11.1563 18.0625,11.0052 17.6563,10.7031 C17.3958,10.5156 17.151,10.1615 16.9219,9.64063 L16.9219,11 L16.4375,11 L16.4375,2.64063 L16.9219,2.64063 L16.9219,6.35938 M25.8125,7.60938 C25.0104,7.60938 24.4349,7.75 24.0859,8.03125 C23.737,8.3125 23.5625,8.72396 23.5625,9.26563 C23.5625,9.79688 23.7083,10.1745 24,10.3984 C24.2917,10.6224 24.6354,10.7344 25.0313,10.7344 C25.7813,10.7344 26.3229,10.4167 26.6563,9.78125 C26.9896,9.13542 27.1563,8.53125 27.1563,7.96875 L27.1563,7.60938 L25.8125,7.60938 M27.6563,7.5625 L27.6563,11 L27.1563,11 L27.1563,9.35938 C26.8854,10.1615 26.5208,10.6719 26.0625,10.8906 C25.7083,11.0677 25.349,11.1563 24.9844,11.1563 C24.3906,11.1563 23.9219,10.9948 23.5781,10.6719 C23.2344,10.349 23.0625,9.8776 23.0625,9.25781 C23.0625,8.63802 23.2865,8.14063 23.7344,7.76563 C24.1823,7.39063 24.9115,7.20313 25.9219,7.20313 L27.1563,7.20313 L27.1563,7.10938 C27.1563,6.57813 27,6.14063 26.6875,5.79688 C26.3958,5.45313 25.901,5.28125 25.2031,5.28125 C24.8594,5.28125 24.5104,5.34375 24.1563,5.46875 C23.9271,5.55208 23.625,5.71875 23.25,5.96875 L23.25,5.4375 C23.5729,5.23958 23.875,5.09896 24.1563,5.01563 C24.5521,4.90104 24.9323,4.84375 25.2969,4.84375 C26.0156,4.84375 26.6042,5.05729 27.0625,5.48438 C27.4583,5.84896 27.6563,6.54167 27.6563,7.5625 M34.6875,7.375 L34.6875,11 L34.1875,11 L34.1875,7.40625 C34.1875,6.625 34.0625,6.07552 33.8125,5.75781 C33.5625,5.4401 33.1927,5.28125 32.7031,5.28125 C32.1302,5.28125 31.6458,5.45313 31.25,5.79688 C30.8333,6.14063 30.625,6.73958 30.625,7.59375 L30.625,11 L30.1406,11 L30.1406,4.98438 L30.625,4.98438 L30.625,6.10938 C30.8021,5.74479 31.0365,5.46875 31.3281,5.28125 C31.7448,4.98958 32.2083,4.84375 32.7188,4.84375 C33.3229,4.84375 33.8021,5.04688 34.1563,5.45313 C34.5104,5.84896 34.6875,6.48958 34.6875,7.375 M41.4688,13.1719 L41.4688,13.5938 L35.75,13.5938 L35.75,13.1719 L41.4688,13.1719 M45.875,5.40625 C45.7917,5.36458 45.6823,5.33333 45.5469,5.3125 C45.4219,5.29167 45.2708,5.28125 45.0938,5.28125 C44.4792,5.28125 43.974,5.50521 43.5781,5.95313 C43.2552,6.31771 43.0938,6.94271 43.0938,7.82813 L43.0938,11 L42.6094,11 L42.6094,4.98438 L43.0938,4.98438 L43.0938,6.10938 C43.2604,5.78646 43.4896,5.51563 43.7813,5.29688 C44.1771,4.99479 44.6458,4.84375 45.1875,4.84375 C45.3333,4.84375 45.4583,4.84896 45.5625,4.85938 C45.6667,4.85938 45.7708,4.86979 45.875,4.89063 L45.875,5.40625 M50.7031,6.01563 C50.349,5.52604 49.8646,5.28125 49.25,5.28125 C48.6354,5.28125 48.151,5.52604 47.7969,6.01563 C47.4427,6.49479 47.2656,7.15104 47.2656,7.98438 C47.2656,8.83854 47.4427,9.51042 47.7969,10 C48.151,10.4896 48.6354,10.7344 49.25,10.7344 C49.8646,10.7344 50.349,10.4896 50.7031,10 C51.0573,9.5 51.2344,8.82813 51.2344,7.98438 C51.2344,7.16146 51.0573,6.50521 50.7031,6.01563 M49.25,4.84375 C50.0104,4.84375 50.6146,5.13021 51.0625,5.70313 C51.5104,6.27604 51.7344,7.03646 51.7344,7.98438 C51.7344,8.97396 51.5104,9.75521 51.0625,10.3281 C50.6146,10.901 50.0104,11.1875 49.25,11.1875 C48.4688,11.1875 47.8542,10.901 47.4063,10.3281 C46.9688,9.75521 46.75,8.97396 46.75,7.98438 C46.75,7.02604 46.974,6.26302 47.4219,5.69531 C47.8698,5.1276 48.4792,4.84375 49.25,4.84375 M56.25,7.60938 C55.4479,7.60938 54.8724,7.75 54.5234,8.03125 C54.1745,8.3125 54,8.72396 54,9.26563 C54,9.79688 54.1458,10.1745 54.4375,10.3984 C54.7292,10.6224 55.0729,10.7344 55.4688,10.7344 C56.2188,10.7344 56.7604,10.4167 57.0938,9.78125 C57.4271,9.13542 57.5938,8.53125 57.5938,7.96875 L57.5938,7.60938 L56.25,7.60938 M58.0938,7.5625 L58.0938,11 L57.5938,11 L57.5938,9.35938 C57.3229,10.1615 56.9583,10.6719 56.5,10.8906 C56.1458,11.0677 55.7865,11.1563 55.4219,11.1563 C54.8281,11.1563 54.3594,10.9948 54.0156,10.6719 C53.6719,10.349 53.5,9.8776 53.5,9.25781 C53.5,8.63802 53.724,8.14063 54.1719,7.76563 C54.6198,7.39063 55.349,7.20313 56.3594,7.20313 L57.5938,7.20313 L57.5938,7.10938 C57.5938,6.57813 57.4375,6.14063 57.125,5.79688 C56.8333,5.45313 56.3385,5.28125 55.6406,5.28125 C55.2969,5.28125 54.9479,5.34375 54.5938,5.46875 C54.3646,5.55208 54.0625,5.71875 53.6875,5.96875 L53.6875,5.4375 C54.0104,5.23958 54.3125,5.09896 54.5938,5.01563 C54.9896,4.90104 55.3698,4.84375 55.7344,4.84375 C56.4531,4.84375 57.0417,5.05729 57.5,5.48438 C57.8958,5.84896 58.0938,6.54167 58.0938,7.5625 M64.5781,6.35938 L64.5781,2.64063 L65.0469,2.64063 L65.0469,11 L64.5781,11 L64.5781,9.64063 C64.349,10.1615 64.099,10.5156 63.8281,10.7031 C63.4323,11.0052 63.0521,11.1563 62.6875,11.1563 C61.9792,11.1563 61.388,10.8672 60.9141,10.2891 C60.4401,9.71094 60.2031,8.94792 60.2031,8 C60.2031,7.05208 60.4401,6.28906 60.9141,5.71094 C61.388,5.13281 61.9792,4.84375 62.6875,4.84375 C63.0521,4.84375 63.4323,4.98958 63.8281,5.28125 C64.099,5.47917 64.349,5.83854 64.5781,6.35938 M61.3438,5.90625 C60.9271,6.32292 60.7188,7.02083 60.7188,8 C60.7188,8.97917 60.9271,9.67708 61.3438,10.0938 C61.7604,10.5104 62.1979,10.7188 62.6563,10.7188 C63.1042,10.7188 63.5365,10.5104 63.9531,10.0938 C64.3594,9.67708 64.5625,8.97917 64.5625,8 C64.5625,7.02083 64.3594,6.32292 63.9531,5.90625 C63.5365,5.48958 63.1042,5.28125 62.6563,5.28125 C62.1979,5.28125 61.7604,5.48958 61.3438,5.90625 M71.9063,13.1719 L71.9063,13.5938 L66.1875,13.5938 L66.1875,13.1719 L71.9063,13.1719 M75.625,2.64063 L75.625,3.0625 L74.9375,3.0625 C74.5729,3.0625 74.2917,3.15625 74.0938,3.34375 C73.8542,3.57292 73.7344,3.94271 73.7344,4.45313 L73.7344,4.98438 L75.3594,4.98438 L75.3594,5.40625 L73.7344,5.40625 L73.7344,11 L73.2344,11 L73.2344,5.40625 L72.2969,5.40625 L72.2969,4.98438 L73.2344,4.98438 L73.2344,4.5625 C73.2344,3.89583 73.3906,3.41146 73.7031,3.10938 C74.0052,2.79688 74.4167,2.64063 74.9375,2.64063 L75.625,2.64063 M76.8906,4.98438 L77.3906,4.98438 L77.3906,11 L76.8906,11 L76.8906,4.98438 M76.8906,2.64063 L77.3906,2.64063 L77.3906,3.3125 L76.8906,3.3125 L76.8906,2.64063 M79.9531,2.64063 L80.4375,2.64063 L80.4375,11 L79.9531,11 L79.9531,2.64063 M83.5156,3.28125 L83.5156,4.98438 L85.5469,4.98438 L85.5469,5.40625 L83.5156,5.40625 L83.5156,9.01563 C83.5156,9.47396 83.5729,9.79688 83.6875,9.98438 C83.9375,10.3802 84.2969,10.5781 84.7656,10.5781 L85.5469,10.5781 L85.5469,11 L84.7813,11 C84.2917,11 83.875,10.8568 83.5313,10.5703 C83.1875,10.2839 83.0156,9.76563 83.0156,9.01563 L83.0156,5.40625 L82.2969,5.40625 L82.2969,4.98438 L83.0156,4.98438 L83.0156,3.28125 L83.5156,3.28125"/>
</g>

<g fill="none" stroke="#000000" stroke-opacity="1" stroke-width="1" stroke-linecap="square" stroke-linejoin="bevel" transform="matrix(1.9989,0,0,1.9989,246.984,237.869)"
font-family="sans" font-size="11" font-weight="100" font-style="normal" 
>
</g>

<g fill="none" stroke="#000000" stroke-opacity="1" stroke-width="1" stroke-linecap="square" stroke-linejoin="bevel" transform="matrix(1.9989,0,0,1.9989,246.984,237.869)"
font-family="Ubuntu" font-size="11" font-weight="400" font-style="normal" 
>
</g>

<g fill="none" stroke="#000000" stroke-opacity="1" stroke-width="1" stroke-linecap="square" stroke-linejoin="bevel" transform="matrix(1.9989,0,0,1.9989,0.00319823,503.722)"
font-family="Ubuntu" font-size="11" font-weight="400" font-style="normal" 
>
</g>

<g fill="none" stroke="#000000" stroke-opacity="1" stroke-width="1" stroke-linecap="square" stroke-linejoin="bevel" transform="matrix(1.9989,0,0,1.9989,0.00319823,503.722)"
font-family="Ubuntu" font-size="11" font-weight="400" font-style="normal" 
>
</g>

<g fill="none" stroke="#000000" stroke-opacity="1" stroke-width="1" stroke-linecap="square" stroke-linejoin="bevel" transform="matrix(1.9989,0,0,1.9989,0.00319823,503.722)"
font-family="Ubuntu" font-size="11" font-weight="400" font-style="normal" 
>
</g>

<g fill="none" stroke="#000000" stroke-opacity="1" stroke-width="1" stroke-linecap="square" stroke-linejoin="round" transform="matrix(1.9989,0,0,1.9989,0.00319823,503.722)"
font-family="Ubuntu" font-size="11" font-weight="400" font-style="normal" 
>
<rect x="271.19" y="-35.5" width="53" height="35"/>
</g>

<g fill="none" stroke="#000000" stroke-opacity="1" stroke-width="1" stroke-linecap="square" stroke-linejoin="bevel" transform="matrix(1.9989,0,0,1.9989,0.00319823,503.722)"
font-family="Ubuntu" font-size="11" font-weight="400" font-style="normal" 
>
</g>

<g fill="none" stroke="#000000" stroke-opacity="1" stroke-width="1" stroke-linecap="square" stroke-linejoin="bevel" transform="matrix(1.9989,0,0,1.9989,577.08,453.749)"
font-family="Ubuntu" font-size="11" font-weight="400" font-style="normal" 
>
</g>

<g fill="none" stroke="#000000" stroke-opacity="1" stroke-width="1" stroke-linecap="square" stroke-linejoin="bevel" transform="matrix(1.9989,0,0,1.9989,577.08,453.749)"
font-family="sans" font-size="11" font-weight="100" font-style="normal" 
>
</g>

<g fill="#000000" fill-opacity="1" stroke="#000000" stroke-opacity="1" stroke-width="1" stroke-linecap="square" stroke-linejoin="round" transform="matrix(1.9989,0,0,1.9989,577.08,453.749)"
font-family="sans" font-size="11" font-weight="100" font-style="normal" 
>
<path vector-effect="none" fill-rule="nonzero" d="M2.96875,2.98438 L3.53125,2.98438 L0.734375,12.0156 L0.171875,12.0156 L2.96875,2.98438 M8.21875,5.40625 C8.13542,5.36458 8.02604,5.33333 7.89063,5.3125 C7.76563,5.29167 7.61458,5.28125 7.4375,5.28125 C6.82292,5.28125 6.31771,5.50521 5.92188,5.95313 C5.59896,6.31771 5.4375,6.94271 5.4375,7.82813 L5.4375,11 L4.95313,11 L4.95313,4.98438 L5.4375,4.98438 L5.4375,6.10938 C5.60417,5.78646 5.83333,5.51563 6.125,5.29688 C6.52083,4.99479 6.98958,4.84375 7.53125,4.84375 C7.67708,4.84375 7.80208,4.84896 7.90625,4.85938 C8.01042,4.85938 8.11458,4.86979 8.21875,4.89063 L8.21875,5.40625 M13.0469,6.01563 C12.6927,5.52604 12.2083,5.28125 11.5938,5.28125 C10.9792,5.28125 10.4948,5.52604 10.1406,6.01563 C9.78646,6.49479 9.60938,7.15104 9.60938,7.98438 C9.60938,8.83854 9.78646,9.51042 10.1406,10 C10.4948,10.4896 10.9792,10.7344 11.5938,10.7344 C12.2083,10.7344 12.6927,10.4896 13.0469,10 C13.401,9.5 13.5781,8.82813 13.5781,7.98438 C13.5781,7.16146 13.401,6.50521 13.0469,6.01563 M11.5938,4.84375 C12.3542,4.84375 12.9583,5.13021 13.4063,5.70313 C13.8542,6.27604 14.0781,7.03646 14.0781,7.98438 C14.0781,8.97396 13.8542,9.75521 13.4063,10.3281 C12.9583,10.901 12.3542,11.1875 11.5938,11.1875 C10.8125,11.1875 10.1979,10.901 9.75,10.3281 C9.3125,9.75521 9.09375,8.97396 9.09375,7.98438 C9.09375,7.02604 9.31771,6.26302 9.76563,5.69531 C10.2135,5.1276 10.8229,4.84375 11.5938,4.84375 M16.1719,4.98438 L16.6719,4.98438 L16.6719,11 L16.1719,11 L16.1719,4.98438 M16.1719,2.64063 L16.6719,2.64063 L16.6719,3.3125 L16.1719,3.3125 L16.1719,2.64063"/>
</g>

<g fill="none" stroke="#000000" stroke-opacity="1" stroke-width="1" stroke-linecap="square" stroke-linejoin="bevel" transform="matrix(1.9989,0,0,1.9989,577.08,453.749)"
font-family="sans" font-size="11" font-weight="100" font-style="normal" 
>
</g>

<g fill="none" stroke="#000000" stroke-opacity="1" stroke-width="1" stroke-linecap="square" stroke-linejoin="bevel" transform="matrix(1.9989,0,0,1.9989,577.08,453.749)"
font-family="Ubuntu" font-size="11" font-weight="400" font-style="normal" 
>
</g>

<g fill="none" stroke="#000000" stroke-opacity="1" stroke-width="1" stroke-linecap="square" stroke-linejoin="bevel" transform="matrix(1.9989,0,0,1.9989,0.00319823,503.722)"
font-family="Ubuntu" font-size="11" font-weight="400" font-style="normal" 
>
</g>

<g fill="none" stroke="#000000" stroke-opacity="1" stroke-width="1" stroke-linecap="square" stroke-linejoin="bevel" transform="matrix(1.9989,0,0,1.9989,0.00319823,503.722)"
font-family="Ubuntu" font-size="11" font-weight="400" font-style="normal" 
>
</g>

<g fill="none" stroke="#000000" stroke-opacity="1" stroke-width="1" stroke-linecap="square" stroke-linejoin="bevel" transform="matrix(1.9989,0,0,1.9989,0.00319823,503.722)"
font-family="Ubuntu" font-size="11" font-weight="400" font-style="normal" 
>
</g>

<g fill="none" stroke="#000000" stroke-opacity="1" stroke-width="1" stroke-linecap="square" stroke-linejoin="round" transform="matrix(1.9989,0,0,1.9989,0.00319823,503.722)"
font-family="Ubuntu" font-size="11" font-weight="400" font-style="normal" 
>
<rect x="271.19" y="-143.5" width="53" height="35"/>
</g>

<g fill="none" stroke="#000000" stroke-opacity="1" stroke-width="1" stroke-linecap="square" stroke-linejoin="bevel" transform="matrix(1.9989,0,0,1.9989,0.00319823,503.722)"
font-family="Ubuntu" font-size="11" font-weight="400" font-style="normal" 
>
</g>

<g fill="none" stroke="#000000" stroke-opacity="1" stroke-width="1" stroke-linecap="square" stroke-linejoin="bevel" transform="matrix(1.9989,0,0,1.9989,566.43,237.869)"
font-family="Ubuntu" font-size="11" font-weight="400" font-style="normal" 
>
</g>

<g fill="none" stroke="#000000" stroke-opacity="1" stroke-width="1" stroke-linecap="square" stroke-linejoin="bevel" transform="matrix(1.9989,0,0,1.9989,566.43,237.869)"
font-family="sans" font-size="11" font-weight="100" font-style="normal" 
>
</g>

<g fill="#000000" fill-opacity="1" stroke="#000000" stroke-opacity="1" stroke-width="1" stroke-linecap="square" stroke-linejoin="round" transform="matrix(1.9989,0,0,1.9989,566.43,237.869)"
font-family="sans" font-size="11" font-weight="100" font-style="normal" 
>
<path vector-effect="none" fill-rule="nonzero" d="M2.96875,2.98438 L3.53125,2.98438 L0.734375,12.0156 L0.171875,12.0156 L2.96875,2.98438 M8.21875,5.40625 C8.13542,5.36458 8.02604,5.33333 7.89063,5.3125 C7.76563,5.29167 7.61458,5.28125 7.4375,5.28125 C6.82292,5.28125 6.31771,5.50521 5.92188,5.95313 C5.59896,6.31771 5.4375,6.94271 5.4375,7.82813 L5.4375,11 L4.95313,11 L4.95313,4.98438 L5.4375,4.98438 L5.4375,6.10938 C5.60417,5.78646 5.83333,5.51563 6.125,5.29688 C6.52083,4.99479 6.98958,4.84375 7.53125,4.84375 C7.67708,4.84375 7.80208,4.84896 7.90625,4.85938 C8.01042,4.85938 8.11458,4.86979 8.21875,4.89063 L8.21875,5.40625 M13.0469,6.01563 C12.6927,5.52604 12.2083,5.28125 11.5938,5.28125 C10.9792,5.28125 10.4948,5.52604 10.1406,6.01563 C9.78646,6.49479 9.60938,7.15104 9.60938,7.98438 C9.60938,8.83854 9.78646,9.51042 10.1406,10 C10.4948,10.4896 10.9792,10.7344 11.5938,10.7344 C12.2083,10.7344 12.6927,10.4896 13.0469,10 C13.401,9.5 13.5781,8.82813 13.5781,7.98438 C13.5781,7.16146 13.401,6.50521 13.0469,6.01563 M11.5938,4.84375 C12.3542,4.84375 12.9583,5.13021 13.4063,5.70313 C13.8542,6.27604 14.0781,7.03646 14.0781,7.98438 C14.0781,8.97396 13.8542,9.75521 13.4063,10.3281 C12.9583,10.901 12.3542,11.1875 11.5938,11.1875 C10.8125,11.1875 10.1979,10.901 9.75,10.3281 C9.3125,9.75521 9.09375,8.97396 9.09375,7.98438 C9.09375,7.02604 9.31771,6.26302 9.76563,5.69531 C10.2135,5.1276 10.8229,4.84375 11.5938,4.84375 M18.5938,7.60938 C17.7917,7.60938 17.2161,7.75 16.8672,8.03125 C16.5182,8.3125 16.3438,8.72396 16.3438,9.26563 C16.3438,9.79688 16.4896,10.1745 16.7813,10.3984 C17.0729,10.6224 17.4167,10.7344 17.8125,10.7344 C18.5625,10.7344 19.1042,10.4167 19.4375,9.78125 C19.7708,9.13542 19.9375,8.53125 19.9375,7.96875 L19.9375,7.60938 L18.5938,7.60938 M20.4375,7.5625 L20.4375,11 L19.9375,11 L19.9375,9.35938 C19.6667,10.1615 19.3021,10.6719 18.8438,10.8906 C18.4896,11.0677 18.1302,11.1563 17.7656,11.1563 C17.1719,11.1563 16.7031,10.9948 16.3594,10.6719 C16.0156,10.349 15.8438,9.8776 15.8438,9.25781 C15.8438,8.63802 16.0677,8.14063 16.5156,7.76563 C16.9635,7.39063 17.6927,7.20313 18.7031,7.20313 L19.9375,7.20313 L19.9375,7.10938 C19.9375,6.57813 19.7813,6.14063 19.4688,5.79688 C19.1771,5.45313 18.6823,5.28125 17.9844,5.28125 C17.6406,5.28125 17.2917,5.34375 16.9375,5.46875 C16.7083,5.55208 16.4063,5.71875 16.0313,5.96875 L16.0313,5.4375 C16.3542,5.23958 16.6563,5.09896 16.9375,5.01563 C17.3333,4.90104 17.7135,4.84375 18.0781,4.84375 C18.7969,4.84375 19.3854,5.05729 19.8438,5.48438 C20.2396,5.84896 20.4375,6.54167 20.4375,7.5625 M26.9219,6.35938 L26.9219,2.64063 L27.3906,2.64063 L27.3906,11 L26.9219,11 L26.9219,9.64063 C26.6927,10.1615 26.4427,10.5156 26.1719,10.7031 C25.776,11.0052 25.3958,11.1563 25.0313,11.1563 C24.3229,11.1563 23.7318,10.8672 23.2578,10.2891 C22.7839,9.71094 22.5469,8.94792 22.5469,8 C22.5469,7.05208 22.7839,6.28906 23.2578,5.71094 C23.7318,5.13281 24.3229,4.84375 25.0313,4.84375 C25.3958,4.84375 25.776,4.98958 26.1719,5.28125 C26.4427,5.47917 26.6927,5.83854 26.9219,6.35938 M23.6875,5.90625 C23.2708,6.32292 23.0625,7.02083 23.0625,8 C23.0625,8.97917 23.2708,9.67708 23.6875,10.0938 C24.1042,10.5104 24.5417,10.7188 25,10.7188 C25.4479,10.7188 25.8802,10.5104 26.2969,10.0938 C26.7031,9.67708 26.9063,8.97917 26.9063,8 C26.9063,7.02083 26.7031,6.32292 26.2969,5.90625 C25.8802,5.48958 25.4479,5.28125 25,5.28125 C24.5417,5.28125 24.1042,5.48958 23.6875,5.90625 "/>
</g>

<g fill="none" stroke="#000000" stroke-opacity="1" stroke-width="1" stroke-linecap="square" stroke-linejoin="bevel" transform="matrix(1.9989,0,0,1.9989,566.43,237.869)"
font-family="sans" font-size="11" font-weight="100" font-style="normal" 
>
</g>

<g fill="none" stroke="#000000" stroke-opacity="1" stroke-width="1" stroke-linecap="square" stroke-linejoin="bevel" transform="matrix(1.9989,0,0,1.9989,566.43,237.869)"
font-family="Ubuntu" font-size="11" font-weight="400" font-style="normal" 
>
</g>

<g fill="none" stroke="#000000" stroke-opacity="1" stroke-width="1" stroke-linecap="square" stroke-linejoin="bevel" transform="matrix(1.9989,0,0,1.9989,0.00319823,503.722)"
font-family="Ubuntu" font-size="11" font-weight="400" font-style="normal" 
>
</g>

<g fill="none" stroke="#000000" stroke-opacity="1" stroke-width="1" stroke-linecap="square" stroke-linejoin="bevel" transform="matrix(1.9989,0,0,1.9989,0.00319823,503.722)"
font-family="Ubuntu" font-size="11" font-weight="400" font-style="normal" 
>
</g>

<g fill="none" stroke="#000000" stroke-opacity="1" stroke-width="1" stroke-linecap="square" stroke-linejoin="bevel" transform="matrix(1.9989,0,0,1.9989,0.00319823,503.722)"
font-family="Ubuntu" font-size="11" font-weight="400" font-style="normal" 
>
</g>

<g fill="none" stroke="#000000" stroke-opacity="1" stroke-width="1" stroke-linecap="square" stroke-linejoin="round" transform="matrix(1.9989,0,0,1.9989,0.00319823,503.722)"
font-family="Ubuntu" font-size="11" font-weight="400" font-style="normal" 
>
<rect x="271.19" y="-197.5" width="53" height="35"/>
</g>

<g fill="none" stroke="#000000" stroke-opacity="1" stroke-width="1" stroke-linecap="square" stroke-linejoin="bevel" transform="matrix(1.9989,0,0,1.9989,0.00319823,503.722)"
font-family="Ubuntu" font-size="11" font-weight="400" font-style="normal" 
>
</g>

<g fill="none" stroke="#000000" stroke-opacity="1" stroke-width="1" stroke-linecap="square" stroke-linejoin="bevel" transform="matrix(1.9989,0,0,1.9989,566.867,129.928)"
font-family="Ubuntu" font-size="11" font-weight="400" font-style="normal" 
>
</g>

<g fill="none" stroke="#000000" stroke-opacity="1" stroke-width="1" stroke-linecap="square" stroke-linejoin="bevel" transform="matrix(1.9989,0,0,1.9989,566.867,129.928)"
font-family="sans" font-size="11" font-weight="100" font-style="normal" 
>
</g>

<g fill="#000000" fill-opacity="1" stroke="#000000" stroke-opacity="1" stroke-width="1" stroke-linecap="square" stroke-linejoin="round" transform="matrix(1.9989,0,0,1.9989,566.867,129.928)"
font-family="sans" font-size="11" font-weight="100" font-style="normal" 
>
<path vector-effect="none" fill-rule="nonzero" d="M2.96875,2.98438 L3.53125,2.98438 L0.734375,12.0156 L0.171875,12.0156 L2.96875,2.98438 M9.0625,5.28125 L9.0625,5.79688 C8.77083,5.61979 8.52604,5.5 8.32813,5.4375 C7.99479,5.33333 7.67708,5.28125 7.375,5.28125 C6.51042,5.28125 5.89063,5.5026 5.51563,5.94531 C5.14063,6.38802 4.95313,7.07292 4.95313,8 C4.95313,8.9375 5.14063,9.6276 5.51563,10.0703 C5.89063,10.513 6.51042,10.7344 7.375,10.7344 C7.66667,10.7344 7.94792,10.6927 8.21875,10.6094 C8.51042,10.5365 8.79167,10.4219 9.0625,10.2656 L9.0625,10.7656 C8.79167,10.901 8.51042,11 8.21875,11.0625 C7.91667,11.125 7.61979,11.1563 7.32813,11.1563 C6.45313,11.1563 5.75521,10.9167 5.23438,10.4375 C4.71354,9.95833 4.45313,9.14323 4.45313,7.99219 C4.45313,6.84115 4.71354,6.02604 5.23438,5.54688 C5.75521,5.07813 6.45313,4.84375 7.32813,4.84375 C7.61979,4.84375 7.92708,4.88542 8.25,4.96875 C8.57292,5.04167 8.84375,5.14583 9.0625,5.28125 M10.9375,8.60938 L10.9375,4.98438 L11.4219,4.98438 L11.4219,8.57813 C11.4219,9.35938 11.5469,9.90885 11.7969,10.2266 C12.0469,10.5443 12.4167,10.7031 12.9063,10.7031 C13.4792,10.7031 13.9688,10.5313 14.375,10.1875 C14.7813,9.84375 14.9844,9.24479 14.9844,8.39063 L14.9844,4.98438 L15.4688,4.98438 L15.4688,11 L14.9844,11 L14.9844,9.875 C14.8073,10.2396 14.5729,10.5156 14.2813,10.7031 C13.8646,10.9948 13.401,11.1406 12.8906,11.1406 C12.2969,11.1406 11.8229,10.9375 11.4688,10.5313 C11.1146,10.1354 10.9375,9.49479 10.9375,8.60938 M21.2344,5.40625 C21.151,5.36458 21.0417,5.33333 20.9063,5.3125 C20.7813,5.29167 20.6302,5.28125 20.4531,5.28125 C19.8385,5.28125 19.3333,5.50521 18.9375,5.95313 C18.6146,6.31771 18.4531,6.94271 18.4531,7.82813 L18.4531,11 L17.9688,11 L17.9688,4.98438 L18.4531,4.98438 L18.4531,6.10938 C18.6198,5.78646 18.849,5.51563 19.1406,5.29688 C19.5365,4.99479 20.0052,4.84375 20.5469,4.84375 C20.6927,4.84375 20.8177,4.84896 20.9219,4.85938 C21.026,4.85938 21.1302,4.86979 21.2344,4.89063 L21.2344,5.40625 M26.2031,10.0938 C26.6198,9.67708 26.8281,8.97917 26.8281,8 C26.8281,7.02083 26.6198,6.32292 26.2031,5.90625 C25.7865,5.48958 25.349,5.28125 24.8906,5.28125 C24.4427,5.28125 24.0104,5.48958 23.5938,5.90625 C23.1875,6.32292 22.9844,7.02083 22.9844,8 C22.9844,8.97917 23.1875,9.67708 23.5938,10.0938 C24.0104,10.5104 24.4427,10.7188 24.8906,10.7188 C25.349,10.7188 25.7865,10.5104 26.2031,10.0938 M22.9688,6.35938 C23.1979,5.83854 23.4427,5.47917 23.7031,5.28125 C24.1094,4.98958 24.4948,4.84375 24.8594,4.84375 C25.5677,4.84375 26.1589,5.13281 26.6328,5.71094 C27.1068,6.28906 27.3438,7.05208 27.3438,8 C27.3438,8.94792 27.1068,9.71094 26.6328,10.2891 C26.1589,10.8672 25.5677,11.1563 24.8594,11.1563 C24.4948,11.1563 24.1094,11.0052 23.7031,10.7031 C23.4427,10.5156 23.1979,10.1615 22.9688,9.64063 L22.9688,11 L22.4844,11 L22.4844,2.64063 L22.9688,2.64063 L22.9688,6.35938"/>
</g>

<g fill="none" stroke="#000000" stroke-opacity="1" stroke-width="1" stroke-linecap="square" stroke-linejoin="bevel" transform="matrix(1.9989,0,0,1.9989,566.867,129.928)"
font-family="sans" font-size="11" font-weight="100" font-style="normal" 
>
</g>

<g fill="none" stroke="#000000" stroke-opacity="1" stroke-width="1" stroke-linecap="square" stroke-linejoin="bevel" transform="matrix(1.9989,0,0,1.9989,566.867,129.928)"
font-family="Ubuntu" font-size="11" font-weight="400" font-style="normal" 
>
</g>

<g fill="none" stroke="#000000" stroke-opacity="1" stroke-width="1" stroke-linecap="square" stroke-linejoin="bevel" transform="matrix(1.9989,0,0,1.9989,0.00319823,503.722)"
font-family="Ubuntu" font-size="11" font-weight="400" font-style="normal" 
>
</g>

<g fill="none" stroke="#000000" stroke-opacity="1" stroke-width="1" stroke-linecap="square" stroke-linejoin="bevel" transform="matrix(1.9989,0,0,1.9989,0.00319823,503.722)"
font-family="Ubuntu" font-size="11" font-weight="400" font-style="normal" 
>
</g>

<g fill="none" stroke="#000000" stroke-opacity="1" stroke-width="1" stroke-linecap="square" stroke-linejoin="bevel" transform="matrix(1.9989,0,0,1.9989,0.00319823,503.722)"
font-family="Ubuntu" font-size="11" font-weight="400" font-style="normal" 
>
</g>

<g fill="none" stroke="#000000" stroke-opacity="1" stroke-width="1" stroke-linecap="square" stroke-linejoin="round" transform="matrix(1.9989,0,0,1.9989,0.00319823,503.722)"
font-family="Ubuntu" font-size="11" font-weight="400" font-style="normal" 
>
<rect x="248.69" y="-89.5" width="98" height="35"/>
</g>

<g fill="none" stroke="#000000" stroke-opacity="1" stroke-width="1" stroke-linecap="square" stroke-linejoin="bevel" transform="matrix(1.9989,0,0,1.9989,0.00319823,503.722)"
font-family="Ubuntu" font-size="11" font-weight="400" font-style="normal" 
>
</g>

<g fill="none" stroke="#000000" stroke-opacity="1" stroke-width="1" stroke-linecap="square" stroke-linejoin="bevel" transform="matrix(1.9989,0,0,1.9989,512.538,345.809)"
font-family="Ubuntu" font-size="11" font-weight="400" font-style="normal" 
>
</g>

<g fill="none" stroke="#000000" stroke-opacity="1" stroke-width="1" stroke-linecap="square" stroke-linejoin="bevel" transform="matrix(1.9989,0,0,1.9989,512.538,345.809)"
font-family="sans" font-size="11" font-weight="100" font-style="normal" 
>
</g>

<g fill="#000000" fill-opacity="1" stroke="#000000" stroke-opacity="1" stroke-width="1" stroke-linecap="square" stroke-linejoin="round" transform="matrix(1.9989,0,0,1.9989,512.538,345.809)"
font-family="sans" font-size="11" font-weight="100" font-style="normal" 
>
<path vector-effect="none" fill-rule="nonzero" d="M2.96875,2.98438 L3.53125,2.98438 L0.734375,12.0156 L0.171875,12.0156 L2.96875,2.98438 M8.21875,5.40625 C8.13542,5.36458 8.02604,5.33333 7.89063,5.3125 C7.76563,5.29167 7.61458,5.28125 7.4375,5.28125 C6.82292,5.28125 6.31771,5.50521 5.92188,5.95313 C5.59896,6.31771 5.4375,6.94271 5.4375,7.82813 L5.4375,11 L4.95313,11 L4.95313,4.98438 L5.4375,4.98438 L5.4375,6.10938 C5.60417,5.78646 5.83333,5.51563 6.125,5.29688 C6.52083,4.99479 6.98958,4.84375 7.53125,4.84375 C7.67708,4.84375 7.80208,4.84896 7.90625,4.85938 C8.01042,4.85938 8.11458,4.86979 8.21875,4.89063 L8.21875,5.40625 M13.0469,6.01563 C12.6927,5.52604 12.2083,5.28125 11.5938,5.28125 C10.9792,5.28125 10.4948,5.52604 10.1406,6.01563 C9.78646,6.49479 9.60938,7.15104 9.60938,7.98438 C9.60938,8.83854 9.78646,9.51042 10.1406,10 C10.4948,10.4896 10.9792,10.7344 11.5938,10.7344 C12.2083,10.7344 12.6927,10.4896 13.0469,10 C13.401,9.5 13.5781,8.82813 13.5781,7.98438 C13.5781,7.16146 13.401,6.50521 13.0469,6.01563 M11.5938,4.84375 C12.3542,4.84375 12.9583,5.13021 13.4063,5.70313 C13.8542,6.27604 14.0781,7.03646 14.0781,7.98438 C14.0781,8.97396 13.8542,9.75521 13.4063,10.3281 C12.9583,10.901 12.3542,11.1875 11.5938,11.1875 C10.8125,11.1875 10.1979,10.901 9.75,10.3281 C9.3125,9.75521 9.09375,8.97396 9.09375,7.98438 C9.09375,7.02604 9.31771,6.26302 9.76563,5.69531 C10.2135,5.1276 10.8229,4.84375 11.5938,4.84375 M18.5938,7.60938 C17.7917,7.60938 17.2161,7.75 16.8672,8.03125 C16.5182,8.3125 16.3438,8.72396 16.3438,9.26563 C16.3438,9.79688 16.4896,10.1745 16.7813,10.3984 C17.0729,10.6224 17.4167,10.7344 17.8125,10.7344 C18.5625,10.7344 19.1042,10.4167 19.4375,9.78125 C19.7708,9.13542 19.9375,8.53125 19.9375,7.96875 L19.9375,7.60938 L18.5938,7.60938 M20.4375,7.5625 L20.4375,11 L19.9375,11 L19.9375,9.35938 C19.6667,10.1615 19.3021,10.6719 18.8438,10.8906 C18.4896,11.0677 18.1302,11.1563 17.7656,11.1563 C17.1719,11.1563 16.7031,10.9948 16.3594,10.6719 C16.0156,10.349 15.8438,9.8776 15.8438,9.25781 C15.8438,8.63802 16.0677,8.14063 16.5156,7.76563 C16.9635,7.39063 17.6927,7.20313 18.7031,7.20313 L19.9375,7.20313 L19.9375,7.10938 C19.9375,6.57813 19.7813,6.14063 19.4688,5.79688 C19.1771,5.45313 18.6823,5.28125 17.9844,5.28125 C17.6406,5.28125 17.2917,5.34375 16.9375,5.46875 C16.7083,5.55208 16.4063,5.71875 16.0313,5.96875 L16.0313,5.4375 C16.3542,5.23958 16.6563,5.09896 16.9375,5.01563 C17.3333,4.90104 17.7135,4.84375 18.0781,4.84375 C18.7969,4.84375 19.3854,5.05729 19.8438,5.48438 C20.2396,5.84896 20.4375,6.54167 20.4375,7.5625 M26.9219,6.35938 L26.9219,2.64063 L27.3906,2.64063 L27.3906,11 L26.9219,11 L26.9219,9.64063 C26.6927,10.1615 26.4427,10.5156 26.1719,10.7031 C25.776,11.0052 25.3958,11.1563 25.0313,11.1563 C24.3229,11.1563 23.7318,10.8672 23.2578,10.2891 C22.7839,9.71094 22.5469,8.94792 22.5469,8 C22.5469,7.05208 22.7839,6.28906 23.2578,5.71094 C23.7318,5.13281 24.3229,4.84375 25.0313,4.84375 C25.3958,4.84375 25.776,4.98958 26.1719,5.28125 C26.4427,5.47917 26.6927,5.83854 26.9219,6.35938 M23.6875,5.90625 C23.2708,6.32292 23.0625,7.02083 23.0625,8 C23.0625,8.97917 23.2708,9.67708 23.6875,10.0938 C24.1042,10.5104 24.5417,10.7188 25,10.7188 C25.4479,10.7188 25.8802,10.5104 26.2969,10.0938 C26.7031,9.67708 26.9063,8.97917 26.9063,8 C26.9063,7.02083 26.7031,6.32292 26.2969,5.90625 C25.8802,5.48958 25.4479,5.28125 25,5.28125 C24.5417,5.28125 24.1042,5.48958 23.6875,5.90625 M34.25,13.1719 L34.25,13.5938 L28.5313,13.5938 L28.5313,13.1719 L34.25,13.1719 M35.875,9.64063 L35.875,13.2813 L35.3906,13.2813 L35.3906,4.98438 L35.875,4.98438 L35.875,6.35938 C36.1042,5.83854 36.349,5.47917 36.6094,5.28125 C37.0156,4.98958 37.401,4.84375 37.7656,4.84375 C38.474,4.84375 39.0651,5.13281 39.5391,5.71094 C40.013,6.28906 40.25,7.05208 40.25,8 C40.25,8.94792 40.013,9.71094 39.5391,10.2891 C39.0651,10.8672 38.474,11.1563 37.7656,11.1563 C37.401,11.1563 37.0156,11.0052 36.6094,10.7031 C36.349,10.5156 36.1042,10.1615 35.875,9.64063 M39.1094,10.0938 C39.526,9.67708 39.7344,8.97917 39.7344,8 C39.7344,7.02083 39.526,6.32292 39.1094,5.90625 C38.6927,5.48958 38.2552,5.28125 37.7969,5.28125 C37.349,5.28125 36.9167,5.48958 36.5,5.90625 C36.0938,6.32292 35.8906,7.02083 35.8906,8 C35.8906,8.97917 36.0938,9.67708 36.5,10.0938 C36.9167,10.5104 37.349,10.7188 37.7969,10.7188 C38.2552,10.7188 38.6927,10.5104 39.1094,10.0938 M45.625,5.40625 C45.5417,5.36458 45.4323,5.33333 45.2969,5.3125 C45.1719,5.29167 45.0208,5.28125 44.8438,5.28125 C44.2292,5.28125 43.724,5.50521 43.3281,5.95313 C43.0052,6.31771 42.8438,6.94271 42.8438,7.82813 L42.8438,11 L42.3594,11 L42.3594,4.98438 L42.8438,4.98438 L42.8438,6.10938 C43.0104,5.78646 43.2396,5.51563 43.5313,5.29688 C43.9271,4.99479 44.3958,4.84375 44.9375,4.84375 C45.0833,4.84375 45.2083,4.84896 45.3125,4.85938 C45.4167,4.85938 45.5208,4.86979 45.625,4.89063 L45.625,5.40625 M50.4531,6.01563 C50.099,5.52604 49.6146,5.28125 49,5.28125 C48.3854,5.28125 47.901,5.52604 47.5469,6.01563 C47.1927,6.49479 47.0156,7.15104 47.0156,7.98438 C47.0156,8.83854 47.1927,9.51042 47.5469,10 C47.901,10.4896 48.3854,10.7344 49,10.7344 C49.6146,10.7344 50.099,10.4896 50.4531,10 C50.8073,9.5 50.9844,8.82813 50.9844,7.98438 C50.9844,7.16146 50.8073,6.50521 50.4531,6.01563 M49,4.84375 C49.7604,4.84375 50.3646,5.13021 50.8125,5.70313 C51.2604,6.27604 51.4844,7.03646 51.4844,7.98438 C51.4844,8.97396 51.2604,9.75521 50.8125,10.3281 C50.3646,10.901 49.7604,11.1875 49,11.1875 C48.2188,11.1875 47.6042,10.901 47.1563,10.3281 C46.7188,9.75521 46.5,8.97396 46.5,7.98438 C46.5,7.02604 46.724,6.26302 47.1719,5.69531 C47.6198,5.1276 48.2292,4.84375 49,4.84375 M57.3125,10.0938 C57.7292,9.67708 57.9375,8.97917 57.9375,8 C57.9375,7.02083 57.7292,6.32292 57.3125,5.90625 C56.8958,5.48958 56.4583,5.28125 56,5.28125 C55.5521,5.28125 55.1198,5.48958 54.7031,5.90625 C54.2969,6.32292 54.0938,7.02083 54.0938,8 C54.0938,8.97917 54.2969,9.67708 54.7031,10.0938 C55.1198,10.5104 55.5521,10.7188 56,10.7188 C56.4583,10.7188 56.8958,10.5104 57.3125,10.0938 M54.0781,6.35938 C54.3073,5.83854 54.5521,5.47917 54.8125,5.28125 C55.2188,4.98958 55.6042,4.84375 55.9688,4.84375 C56.6771,4.84375 57.2682,5.13281 57.7422,5.71094 C58.2161,6.28906 58.4531,7.05208 58.4531,8 C58.4531,8.94792 58.2161,9.71094 57.7422,10.2891 C57.2682,10.8672 56.6771,11.1563 55.9688,11.1563 C55.6042,11.1563 55.2188,11.0052 54.8125,10.7031 C54.5521,10.5156 54.3073,10.1615 54.0781,9.64063 L54.0781,11 L53.5938,11 L53.5938,2.64063 L54.0781,2.64063 L54.0781,6.35938 M62.9688,7.60938 C62.1667,7.60938 61.5911,7.75 61.2422,8.03125 C60.8932,8.3125 60.7188,8.72396 60.7188,9.26563 C60.7188,9.79688 60.8646,10.1745 61.1563,10.3984 C61.4479,10.6224 61.7917,10.7344 62.1875,10.7344 C62.9375,10.7344 63.4792,10.4167 63.8125,9.78125 C64.1458,9.13542 64.3125,8.53125 64.3125,7.96875 L64.3125,7.60938 L62.9688,7.60938 M64.8125,7.5625 L64.8125,11 L64.3125,11 L64.3125,9.35938 C64.0417,10.1615 63.6771,10.6719 63.2188,10.8906 C62.8646,11.0677 62.5052,11.1563 62.1406,11.1563 C61.5469,11.1563 61.0781,10.9948 60.7344,10.6719 C60.3906,10.349 60.2188,9.8776 60.2188,9.25781 C60.2188,8.63802 60.4427,8.14063 60.8906,7.76563 C61.3385,7.39063 62.0677,7.20313 63.0781,7.20313 L64.3125,7.20313 L64.3125,7.10938 C64.3125,6.57813 64.1563,6.14063 63.8438,5.79688 C63.5521,5.45313 63.0573,5.28125 62.3594,5.28125 C62.0156,5.28125 61.6667,5.34375 61.3125,5.46875 C61.0833,5.55208 60.7813,5.71875 60.4063,5.96875 L60.4063,5.4375 C60.7292,5.23958 61.0313,5.09896 61.3125,5.01563 C61.7083,4.90104 62.0885,4.84375 62.4531,4.84375 C63.1719,4.84375 63.7604,5.05729 64.2188,5.48438 C64.6146,5.84896 64.8125,6.54167 64.8125,7.5625 M71.0156,10.0938 C71.4323,9.67708 71.6406,8.97917 71.6406,8 C71.6406,7.02083 71.4323,6.32292 71.0156,5.90625 C70.599,5.48958 70.1615,5.28125 69.7031,5.28125 C69.2552,5.28125 68.8229,5.48958 68.4063,5.90625 C68,6.32292 67.7969,7.02083 67.7969,8 C67.7969,8.97917 68,9.67708 68.4063,10.0938 C68.8229,10.5104 69.2552,10.7188 69.7031,10.7188 C70.1615,10.7188 70.599,10.5104 71.0156,10.0938 M67.7813,6.35938 C68.0104,5.83854 68.2552,5.47917 68.5156,5.28125 C68.9219,4.98958 69.3073,4.84375 69.6719,4.84375 C70.3802,4.84375 70.9714,5.13281 71.4453,5.71094 C71.9193,6.28906 72.1563,7.05208 72.1563,8 C72.1563,8.94792 71.9193,9.71094 71.4453,10.2891 C70.9714,10.8672 70.3802,11.1563 69.6719,11.1563 C69.3073,11.1563 68.9219,11.0052 68.5156,10.7031 C68.2552,10.5156 68.0104,10.1615 67.7813,9.64063 L67.7813,11 L67.2969,11 L67.2969,2.64063 L67.7813,2.64063 L67.7813,6.35938 M74.2656,2.64063 L74.75,2.64063 L74.75,11 L74.2656,11 L74.2656,2.64063 M79.3438,11.5625 C79.125,12.0938 78.8906,12.4635 78.6406,12.6719 C78.3073,12.9427 77.9844,13.0781 77.6719,13.0781 L76.9375,13.0781 L76.9375,12.6563 L77.5625,12.6563 C77.8229,12.6563 78.0521,12.5729 78.25,12.4063 C78.5,12.1875 78.7083,11.8698 78.875,11.4531 L79.0469,11 L76.6563,4.98438 L77.1875,4.98438 L79.3125,10.3438 L81.4531,4.98438 L81.9844,4.98438 L79.3438,11.5625"/>
</g>

<g fill="none" stroke="#000000" stroke-opacity="1" stroke-width="1" stroke-linecap="square" stroke-linejoin="bevel" transform="matrix(1.9989,0,0,1.9989,512.538,345.809)"
font-family="sans" font-size="11" font-weight="100" font-style="normal" 
>
</g>

<g fill="none" stroke="#000000" stroke-opacity="1" stroke-width="1" stroke-linecap="square" stroke-linejoin="bevel" transform="matrix(1.9989,0,0,1.9989,512.538,345.809)"
font-family="Ubuntu" font-size="11" font-weight="400" font-style="normal" 
>
</g>

<g fill="none" stroke="#000000" stroke-opacity="1" stroke-width="1" stroke-linecap="square" stroke-linejoin="bevel" transform="matrix(1.9989,0,0,1.9989,0.00319823,503.722)"
font-family="Ubuntu" font-size="11" font-weight="400" font-style="normal" 
>
</g>

<g fill="none" stroke="#000000" stroke-opacity="1" stroke-width="1" stroke-linecap="square" stroke-linejoin="bevel" transform="matrix(1.9989,0,0,1.9989,0.00319823,503.722)"
font-family="Ubuntu" font-size="11" font-weight="400" font-style="normal" 
>
</g>

<g fill="none" stroke="#000000" stroke-opacity="1" stroke-width="1" stroke-linecap="square" stroke-linejoin="bevel" transform="matrix(1.9989,0,0,1.9989,0.00319823,503.722)"
font-family="Ubuntu" font-size="11" font-weight="400" font-style="normal" 
>
</g>

<g fill="none" stroke="#000000" stroke-opacity="1" stroke-width="1" stroke-linecap="square" stroke-linejoin="round" transform="matrix(1.9989,0,0,1.9989,0.00319823,503.722)"
font-family="Ubuntu" font-size="11" font-weight="400" font-style="normal" 
>
<path vector-effect="none" fill-rule="evenodd" d="M181.61,-143.58 C197.11,-161.04 222.58,-187.91 248.19,-207 C249.78,-208.18 251.42,-209.35 253.11,-210.49 "/>
</g>

<g fill="none" stroke="#000000" stroke-opacity="1" stroke-width="1" stroke-linecap="square" stroke-linejoin="bevel" transform="matrix(1.9989,0,0,1.9989,0.00319823,503.722)"
font-family="Ubuntu" font-size="11" font-weight="400" font-style="normal" 
>
</g>

<g fill="none" stroke="#000000" stroke-opacity="1" stroke-width="1" stroke-linecap="square" stroke-linejoin="bevel" transform="matrix(1.9989,0,0,1.9989,0.00319823,503.722)"
font-family="Ubuntu" font-size="11" font-weight="400" font-style="normal" 
>
</g>

<g fill="#000000" fill-opacity="1" stroke="#000000" stroke-opacity="1" stroke-width="1" stroke-linecap="square" stroke-linejoin="round" transform="matrix(1.9989,0,0,1.9989,0.00319823,503.722)"
font-family="Ubuntu" font-size="11" font-weight="400" font-style="normal" 
>
<path vector-effect="none" fill-rule="evenodd" d="M253.11,-210.49 L255.038,-207.456 L261.78,-216 L251.182,-213.524 L253.11,-210.49"/>
</g>

<g fill="none" stroke="#000000" stroke-opacity="1" stroke-width="1" stroke-linecap="square" stroke-linejoin="bevel" transform="matrix(1.9989,0,0,1.9989,0.00319823,503.722)"
font-family="Ubuntu" font-size="11" font-weight="400" font-style="normal" 
>
</g>

<g fill="none" stroke="#000000" stroke-opacity="1" stroke-width="1" stroke-linecap="square" stroke-linejoin="bevel" transform="matrix(1.9989,0,0,1.9989,0.00319823,503.722)"
font-family="Ubuntu" font-size="11" font-weight="400" font-style="normal" 
>
</g>

<g fill="none" stroke="#000000" stroke-opacity="1" stroke-width="1" stroke-linecap="square" stroke-linejoin="bevel" transform="matrix(1.9989,0,0,1.9989,0.00319823,503.722)"
font-family="Ubuntu" font-size="11" font-weight="400" font-style="normal" 
>
</g>

<g fill="none" stroke="#000000" stroke-opacity="1" stroke-width="1" stroke-linecap="square" stroke-linejoin="bevel" transform="matrix(1.9989,0,0,1.9989,0.00319823,503.722)"
font-family="Ubuntu" font-size="11" font-weight="400" font-style="normal" 
>
</g>

<g fill="none" stroke="#000000" stroke-opacity="1" stroke-width="1" stroke-linecap="square" stroke-linejoin="round" transform="matrix(1.9989,0,0,1.9989,0.00319823,503.722)"
font-family="Ubuntu" font-size="11" font-weight="400" font-style="normal" 
>
<path vector-effect="none" fill-rule="evenodd" d="M203.46,-110.81 C216.14,-105.59 230.59,-99.638 244.31,-93.986 "/>
</g>

<g fill="none" stroke="#000000" stroke-opacity="1" stroke-width="1" stroke-linecap="square" stroke-linejoin="bevel" transform="matrix(1.9989,0,0,1.9989,0.00319823,503.722)"
font-family="Ubuntu" font-size="11" font-weight="400" font-style="normal" 
>
</g>

<g fill="none" stroke="#000000" stroke-opacity="1" stroke-width="1" stroke-linecap="square" stroke-linejoin="bevel" transform="matrix(1.9989,0,0,1.9989,0.00319823,503.722)"
font-family="Ubuntu" font-size="11" font-weight="400" font-style="normal" 
>
</g>

<g fill="#000000" fill-opacity="1" stroke="#000000" stroke-opacity="1" stroke-width="1" stroke-linecap="square" stroke-linejoin="round" transform="matrix(1.9989,0,0,1.9989,0.00319823,503.722)"
font-family="Ubuntu" font-size="11" font-weight="400" font-style="normal" 
>
<path vector-effect="none" fill-rule="evenodd" d="M244.31,-93.986 L242.962,-90.7135 L253.66,-90.134 L245.658,-97.2585 L244.31,-93.986"/>
</g>

<g fill="none" stroke="#000000" stroke-opacity="1" stroke-width="1" stroke-linecap="square" stroke-linejoin="bevel" transform="matrix(1.9989,0,0,1.9989,0.00319823,503.722)"
font-family="Ubuntu" font-size="11" font-weight="400" font-style="normal" 
>
</g>

<g fill="none" stroke="#000000" stroke-opacity="1" stroke-width="1" stroke-linecap="square" stroke-linejoin="bevel" transform="matrix(1.9989,0,0,1.9989,0.00319823,503.722)"
font-family="Ubuntu" font-size="11" font-weight="400" font-style="normal" 
>
</g>

<g fill="none" stroke="#000000" stroke-opacity="1" stroke-width="1" stroke-linecap="square" stroke-linejoin="bevel" transform="matrix(1.9989,0,0,1.9989,0.00319823,503.722)"
font-family="Ubuntu" font-size="11" font-weight="400" font-style="normal" 
>
</g>

<g fill="none" stroke="#000000" stroke-opacity="1" stroke-width="1" stroke-linecap="square" stroke-linejoin="bevel" transform="matrix(1.9989,0,0,1.9989,0.00319823,503.722)"
font-family="Ubuntu" font-size="11" font-weight="400" font-style="normal" 
>
</g>

<g fill="none" stroke="#000000" stroke-opacity="1" stroke-width="1" stroke-linecap="square" stroke-linejoin="round" transform="matrix(1.9989,0,0,1.9989,0.00319823,503.722)"
font-family="Ubuntu" font-size="11" font-weight="400" font-style="normal" 
>
<path vector-effect="none" fill-rule="evenodd" d="M181.61,-108.42 C197.11,-90.955 222.58,-64.086 248.19,-45 C252.4,-41.863 257.01,-38.855 261.68,-36.061 "/>
</g>

<g fill="none" stroke="#000000" stroke-opacity="1" stroke-width="1" stroke-linecap="square" stroke-linejoin="bevel" transform="matrix(1.9989,0,0,1.9989,0.00319823,503.722)"
font-family="Ubuntu" font-size="11" font-weight="400" font-style="normal" 
>
</g>

<g fill="none" stroke="#000000" stroke-opacity="1" stroke-width="1" stroke-linecap="square" stroke-linejoin="bevel" transform="matrix(1.9989,0,0,1.9989,0.00319823,503.722)"
font-family="Ubuntu" font-size="11" font-weight="400" font-style="normal" 
>
</g>

<g fill="#000000" fill-opacity="1" stroke="#000000" stroke-opacity="1" stroke-width="1" stroke-linecap="square" stroke-linejoin="round" transform="matrix(1.9989,0,0,1.9989,0.00319823,503.722)"
font-family="Ubuntu" font-size="11" font-weight="400" font-style="normal" 
>
<path vector-effect="none" fill-rule="evenodd" d="M261.68,-36.061 L259.899,-32.925 L270.64,-30.971 L263.462,-39.197 L261.68,-36.061"/>
</g>

<g fill="none" stroke="#000000" stroke-opacity="1" stroke-width="1" stroke-linecap="square" stroke-linejoin="bevel" transform="matrix(1.9989,0,0,1.9989,0.00319823,503.722)"
font-family="Ubuntu" font-size="11" font-weight="400" font-style="normal" 
>
</g>

<g fill="none" stroke="#000000" stroke-opacity="1" stroke-width="1" stroke-linecap="square" stroke-linejoin="bevel" transform="matrix(1.9989,0,0,1.9989,0.00319823,503.722)"
font-family="Ubuntu" font-size="11" font-weight="400" font-style="normal" 
>
</g>

<g fill="none" stroke="#000000" stroke-opacity="1" stroke-width="1" stroke-linecap="square" stroke-linejoin="bevel" transform="matrix(1.9989,0,0,1.9989,0.00319823,503.722)"
font-family="Ubuntu" font-size="11" font-weight="400" font-style="normal" 
>
</g>

<g fill="none" stroke="#000000" stroke-opacity="1" stroke-width="1" stroke-linecap="square" stroke-linejoin="bevel" transform="matrix(1.9989,0,0,1.9989,0.00319823,503.722)"
font-family="Ubuntu" font-size="11" font-weight="400" font-style="normal" 
>
</g>

<g fill="none" stroke="#000000" stroke-opacity="1" stroke-width="1" stroke-linecap="square" stroke-linejoin="round" transform="matrix(1.9989,0,0,1.9989,0.00319823,503.722)"
font-family="Ubuntu" font-size="11" font-weight="400" font-style="normal" 
>
<path vector-effect="none" fill-rule="evenodd" d="M203.46,-141.19 C221.48,-148.61 243.1,-157.51 261.08,-164.92 "/>
</g>

<g fill="none" stroke="#000000" stroke-opacity="1" stroke-width="1" stroke-linecap="square" stroke-linejoin="bevel" transform="matrix(1.9989,0,0,1.9989,0.00319823,503.722)"
font-family="Ubuntu" font-size="11" font-weight="400" font-style="normal" 
>
</g>

<g fill="none" stroke="#000000" stroke-opacity="1" stroke-width="1" stroke-linecap="square" stroke-linejoin="bevel" transform="matrix(1.9989,0,0,1.9989,0.00319823,503.722)"
font-family="Ubuntu" font-size="11" font-weight="400" font-style="normal" 
>
</g>

<g fill="#000000" fill-opacity="1" stroke="#000000" stroke-opacity="1" stroke-width="1" stroke-linecap="square" stroke-linejoin="round" transform="matrix(1.9989,0,0,1.9989,0.00319823,503.722)"
font-family="Ubuntu" font-size="11" font-weight="400" font-style="normal" 
>
<path vector-effect="none" fill-rule="evenodd" d="M261.08,-164.92 L262.459,-161.567 L270.66,-168.86 L259.701,-168.273 L261.08,-164.92"/>
</g>

<g fill="none" stroke="#000000" stroke-opacity="1" stroke-width="1" stroke-linecap="square" stroke-linejoin="bevel" transform="matrix(1.9989,0,0,1.9989,0.00319823,503.722)"
font-family="Ubuntu" font-size="11" font-weight="400" font-style="normal" 
>
</g>

<g fill="none" stroke="#000000" stroke-opacity="1" stroke-width="1" stroke-linecap="square" stroke-linejoin="bevel" transform="matrix(1.9989,0,0,1.9989,0.00319823,503.722)"
font-family="Ubuntu" font-size="11" font-weight="400" font-style="normal" 
>
</g>

<g fill="none" stroke="#000000" stroke-opacity="1" stroke-width="1" stroke-linecap="square" stroke-linejoin="bevel" transform="matrix(1.9989,0,0,1.9989,0.00319823,503.722)"
font-family="Ubuntu" font-size="11" font-weight="400" font-style="normal" 
>
</g>

<g fill="none" stroke="#000000" stroke-opacity="1" stroke-width="1" stroke-linecap="square" stroke-linejoin="bevel" transform="matrix(1.9989,0,0,1.9989,0.00319823,503.722)"
font-family="Ubuntu" font-size="11" font-weight="400" font-style="normal" 
>
</g>

<g fill="none" stroke="#000000" stroke-opacity="1" stroke-width="1" stroke-linecap="square" stroke-linejoin="round" transform="matrix(1.9989,0,0,1.9989,0.00319823,503.722)"
font-family="Ubuntu" font-size="11" font-weight="400" font-style="normal" 
>
<path vector-effect="none" fill-rule="evenodd" d="M234.44,-126 C243.31,-126 252.11,-126 260.21,-126 "/>
</g>

<g fill="none" stroke="#000000" stroke-opacity="1" stroke-width="1" stroke-linecap="square" stroke-linejoin="bevel" transform="matrix(1.9989,0,0,1.9989,0.00319823,503.722)"
font-family="Ubuntu" font-size="11" font-weight="400" font-style="normal" 
>
</g>

<g fill="none" stroke="#000000" stroke-opacity="1" stroke-width="1" stroke-linecap="square" stroke-linejoin="bevel" transform="matrix(1.9989,0,0,1.9989,0.00319823,503.722)"
font-family="Ubuntu" font-size="11" font-weight="400" font-style="normal" 
>
</g>

<g fill="#000000" fill-opacity="1" stroke="#000000" stroke-opacity="1" stroke-width="1" stroke-linecap="square" stroke-linejoin="round" transform="matrix(1.9989,0,0,1.9989,0.00319823,503.722)"
font-family="Ubuntu" font-size="11" font-weight="400" font-style="normal" 
>
<path vector-effect="none" fill-rule="evenodd" d="M260.21,-126 L260.21,-122.433 L270.4,-126 L260.21,-129.566 L260.21,-126"/>
</g>

<g fill="none" stroke="#000000" stroke-opacity="1" stroke-width="1" stroke-linecap="square" stroke-linejoin="bevel" transform="matrix(1.9989,0,0,1.9989,0.00319823,503.722)"
font-family="Ubuntu" font-size="11" font-weight="400" font-style="normal" 
>
</g>

<g fill="none" stroke="#000000" stroke-opacity="1" stroke-width="1" stroke-linecap="square" stroke-linejoin="bevel" transform="matrix(1.9989,0,0,1.9989,0.00319823,503.722)"
font-family="Ubuntu" font-size="11" font-weight="400" font-style="normal" 
>
</g>

<g fill="none" stroke="#000000" stroke-opacity="1" stroke-width="1" stroke-linecap="square" stroke-linejoin="bevel" transform="matrix(1.9989,0,0,1.9989,0.00319823,503.722)"
font-family="Ubuntu" font-size="11" font-weight="400" font-style="normal" 
>
</g>

<g fill="none" stroke="#000000" stroke-opacity="1" stroke-width="1" stroke-linecap="square" stroke-linejoin="bevel" transform="matrix(1.9989,0,0,1.9989,0.00319823,503.722)"
font-family="Ubuntu" font-size="11" font-weight="400" font-style="normal" 
>
</g>

<g fill="none" stroke="#000000" stroke-opacity="1" stroke-width="1" stroke-linecap="square" stroke-linejoin="round" transform="matrix(1.9989,0,0,1.9989,0.00319823,503.722)"
font-family="Ubuntu" font-size="11" font-weight="400" font-style="normal" 
>
<path vector-effect="none" fill-rule="evenodd" d="M85.206,-126 C86.293,-126 87.388,-126 88.491,-126 "/>
</g>

<g fill="none" stroke="#000000" stroke-opacity="1" stroke-width="1" stroke-linecap="square" stroke-linejoin="bevel" transform="matrix(1.9989,0,0,1.9989,0.00319823,503.722)"
font-family="Ubuntu" font-size="11" font-weight="400" font-style="normal" 
>
</g>

<g fill="none" stroke="#000000" stroke-opacity="1" stroke-width="1" stroke-linecap="square" stroke-linejoin="bevel" transform="matrix(1.9989,0,0,1.9989,0.00319823,503.722)"
font-family="Ubuntu" font-size="11" font-weight="400" font-style="normal" 
>
</g>

<g fill="#000000" fill-opacity="1" stroke="#000000" stroke-opacity="1" stroke-width="1" stroke-linecap="square" stroke-linejoin="round" transform="matrix(1.9989,0,0,1.9989,0.00319823,503.722)"
font-family="Ubuntu" font-size="11" font-weight="400" font-style="normal" 
>
<path vector-effect="none" fill-rule="evenodd" d="M88.491,-126 L88.491,-122.472 L98.571,-126 L88.491,-129.528 L88.491,-126"/>
</g>

<g fill="none" stroke="#000000" stroke-opacity="1" stroke-width="1" stroke-linecap="square" stroke-linejoin="bevel" transform="matrix(1.9989,0,0,1.9989,0.00319823,503.722)"
font-family="Ubuntu" font-size="11" font-weight="400" font-style="normal" 
>
</g>

<g fill="none" stroke="#000000" stroke-opacity="1" stroke-width="1" stroke-linecap="square" stroke-linejoin="bevel" transform="matrix(1,0,0,1,0,0)"
font-family="Ubuntu" font-size="11" font-weight="400" font-style="normal" 
>
</g>
</g>
</svg>
