<svg xmlns="http://www.w3.org/2000/svg" viewBox="0 0 458.17 303.1"><defs><style>.cls-1{fill:#a7a8af;}.cls-2{fill:#b8b9c1;}.cls-3{fill:#979aa0;}.cls-4{fill:#525256;}.cls-5{fill:#333;}.cls-6{fill:#fff;}.cls-7{fill:#ededed;}.cls-8{fill:#444988;}.cls-9{fill:#8bbb8c;}.cls-10{fill:#b45;}.cls-11{fill:#231f20;}</style></defs><g id="Layer_2" data-name="Layer 2"><path class="cls-1" d="M52.74,215.75A91.67,91.67,0,0,0,80.42,226a14.21,14.21,0,0,1,6.94,3.5c2.42,2.23,5.92,5.52,9.42,9,4,4,11.59,5.47,16.44,6a18.64,18.64,0,0,1,8.74,3.24L140.79,261l2.1,3.06a32.71,32.71,0,0,0,10.67,9.9l12.4,7.16L386.12,154,405,143.12l-25.87-19.49-.79-.91-.57-1A26.82,26.82,0,0,0,364.82,110a40.14,40.14,0,0,1-4.56-2.13L342,95.25A44.79,44.79,0,0,0,328.57,89L314.4,85l-22.64-7.26Z"/><path class="cls-2" d="M52.74,215.75V201.07l239-137.85V77.75L125,174.53,93.48,195.3a36.94,36.94,0,0,1-3.45,2L54,215.75"/><path class="cls-3" d="M52.75,201.07,15,179.43l239-138,37.74,21.79L127.3,158.08l-37.53,25.2a19.35,19.35,0,0,1-2.54,1.45Z"/><polyline class="cls-2" points="165.96 281.12 165.96 266.44 404.98 128.59 404.98 143.12 167.25 281.12"/><polygon class="cls-3" points="203.7 288.23 165.96 266.59 404.98 128.59 442.72 150.38 203.7 288.23"/><path class="cls-4" d="M156.31,241.28l33.83-19.53a2,2,0,0,1,2,0L213.34,234a2,2,0,0,1,0,3.39l-33.82,19.53a2,2,0,0,1-2,0l-21.25-12.26A2,2,0,0,1,156.31,241.28Z"/><path class="cls-5" d="M205.48,237.36l-3.18,1.83a1.14,1.14,0,0,1-1.13,0L186,230.41a1.14,1.14,0,0,1,0-2l3.18-1.83a1.14,1.14,0,0,1,1.13,0l15.21,8.78A1.14,1.14,0,0,1,205.48,237.36Z"/><path class="cls-5" d="M183.69,249.94l-3.18,1.83a1.14,1.14,0,0,1-1.13,0L164.17,243a1.13,1.13,0,0,1,0-2l3.18-1.84a1.14,1.14,0,0,1,1.13,0L183.7,248A1.14,1.14,0,0,1,183.69,249.94Z"/><path class="cls-5" d="M194.59,243.64l-3.18,1.84a1.14,1.14,0,0,1-1.13,0l-15.21-8.79a1.13,1.13,0,0,1,0-2l3.75-2.17h0l15.77,9.11A1.14,1.14,0,0,1,194.59,243.64Z"/></g><g id="Layer_7" data-name="Layer 7"><path class="cls-6" d="M133.13,229.28,114,240.34a.85.85,0,0,1-.87,0l-2.54-1.46a.87.87,0,0,1,0-1.51l19.16-11.06a.85.85,0,0,1,.87,0l2.54,1.46A.87.87,0,0,1,133.13,229.28Z"/><path class="cls-6" d="M162.21,212.49l-18.84,10.87a.85.85,0,0,1-.87,0L140,221.9a.87.87,0,0,1,0-1.51l18.83-10.87a.85.85,0,0,1,.87,0l2.54,1.46A.87.87,0,0,1,162.21,212.49Z"/><path class="cls-6" d="M190.94,195.9l-18.86,10.88a.85.85,0,0,1-.87,0l-2.53-1.46a.87.87,0,0,1,0-1.51l18.85-10.88a.85.85,0,0,1,.87,0l2.54,1.46A.87.87,0,0,1,190.94,195.9Z"/><path class="cls-6" d="M220,179.14,200.81,190.2a.85.85,0,0,1-.87,0l-2.54-1.46a.87.87,0,0,1,0-1.51l19.16-11.06a.85.85,0,0,1,.87,0l2.53,1.46A.87.87,0,0,1,220,179.14Z"/><path class="cls-6" d="M249.05,162.35l-19,11a.85.85,0,0,1-.87,0l-2.53-1.46a.87.87,0,0,1,0-1.51l19-11a.85.85,0,0,1,.87,0l2.54,1.46A.87.87,0,0,1,249.05,162.35Z"/><path class="cls-6" d="M278.08,145.59l-19.16,11a.85.85,0,0,1-.87,0l-2.54-1.46a.87.87,0,0,1,0-1.51l19.16-11a.85.85,0,0,1,.87,0l2.54,1.46A.87.87,0,0,1,278.08,145.59Z"/><path class="cls-6" d="M307,128.89l-18.89,10.9a.87.87,0,0,1-.87,0l-2.55-1.47a.87.87,0,0,1,0-1.51l18.9-10.9a.85.85,0,0,1,.87,0l2.54,1.46A.87.87,0,0,1,307,128.89Z"/><path class="cls-6" d="M336,112.13l-19.16,11.06a.85.85,0,0,1-.87,0l-2.54-1.46a.87.87,0,0,1,0-1.51l19.16-11.06a.85.85,0,0,1,.87,0l2.54,1.46A.87.87,0,0,1,336,112.13Z"/></g><g id="Layer_4" data-name="Layer 4"><path class="cls-6" d="M320.79,106.92l-43.21,25a6.92,6.92,0,0,1-6.93,0l-5.48-3.16a2.41,2.41,0,0,1,0-4.18L307.6,100a8.47,8.47,0,0,1,8.49,0l4.7,2.72A2.41,2.41,0,0,1,320.79,106.92Z"/><path class="cls-6" d="M352.56,124.72l-44.35,25.62a4.63,4.63,0,0,1-4.64,0l-6.64-3.83a2.42,2.42,0,0,1,0-4.19l44-25.44a5.23,5.23,0,0,1,5.27,0l6.32,3.65A2.42,2.42,0,0,1,352.56,124.72Z"/><path class="cls-6" d="M375.23,138.29l-43.61,25.2a6.15,6.15,0,0,1-6.14,0l-5.9-3.41a2.41,2.41,0,0,1,0-4.18l44.15-25.51a5.08,5.08,0,0,1,5.06,0l6.44,3.72A2.41,2.41,0,0,1,375.23,138.29Z"/><path class="cls-6" d="M299.73,94.7,256.1,119.91a6.1,6.1,0,0,1-6.1,0l-5.91-3.41a2.41,2.41,0,0,1,0-4.18l42.22-24.39a8.89,8.89,0,0,1,8.92,0l4.49,2.59A2.41,2.41,0,0,1,299.73,94.7Z"/></g><g id="legorbiteni_" data-name="legorbiteni!!!"><path class="cls-7" d="M376.75,40.82v.07a4.56,4.56,0,0,1-2.46,3.64l-.35.21-.36.2a15.88,15.88,0,0,1-14-.2c-1.84-1.06-2.86-2.44-2.86-3.89h0c0-1.43,1-2.79,2.81-3.84a15.83,15.83,0,0,1,14.35,0C375.7,38,376.71,39.4,376.75,40.82Z"/><path class="cls-7" d="M376.76,55.48a.38.38,0,0,0-.08.17,5,5,0,0,1-2.39,3l-.35.21-.36.21a15.91,15.91,0,0,1-14-.21,5.25,5.25,0,0,1-2.8-3.31.49.49,0,0,0-.06-.17V43.62a8,8,0,0,0,2.36,2,15.75,15.75,0,0,0,7.68,1.84,16,16,0,0,0,7.32-1.64l.35-.2.4-.24a7.51,7.51,0,0,0,1.91-1.73V55.4A.19.19,0,0,0,376.76,55.48Z"/><path class="cls-8" d="M368.92,25.92a.5.5,0,0,1-.43.25.57.57,0,0,1-.25-.06l-1-.56v9.24a.5.5,0,0,1-.5.5.5.5,0,0,1-.5-.5V25.54l-1,.59a.5.5,0,1,1-.5-.86l1.66-.95,0,0,.07,0a.22.22,0,0,1,.12-.05.47.47,0,0,1,.38.05l1.72,1A.49.49,0,0,1,368.92,25.92Z"/><path class="cls-9" d="M356.12,56.13l-6,3.48,1,.56a.5.5,0,0,1-.25.93.47.47,0,0,1-.25-.07l-1.75-1a.48.48,0,0,1-.25-.43V57.36a.5.5,0,0,1,1,0v1.42l6.08-3.52a.5.5,0,1,1,.5.87Z"/><path class="cls-10" d="M385,57.36v2.23a.5.5,0,0,1-.25.43L383,61a.47.47,0,0,1-.25.07.51.51,0,0,1-.44-.25.49.49,0,0,1,.19-.68l1-.56-6.05-3.48a.51.51,0,0,1-.18-.69.49.49,0,0,1,.68-.18L384,58.78V57.36a.5.5,0,0,1,.5-.5A.5.5,0,0,1,385,57.36Z"/><path class="cls-5" d="M374.4,36.14a17,17,0,0,0-15.36,0c-2.12,1.23-3.29,2.9-3.3,4.7V55.41a.43.43,0,0,0,.07.25.22.22,0,0,0,0,.08,6.15,6.15,0,0,0,3.28,4,15.75,15.75,0,0,0,7.68,1.84,16,16,0,0,0,7.32-1.64l.35-.2.4-.24a5.93,5.93,0,0,0,2.82-3.63.43.43,0,0,0,0-.16.48.48,0,0,0,.09-.29V40.81C377.71,39,376.52,37.37,374.4,36.14ZM359.55,37a15.83,15.83,0,0,1,14.35,0c1.81,1,2.82,2.4,2.86,3.82v.07a4.56,4.56,0,0,1-2.46,3.64l-.35.21-.36.2a15.88,15.88,0,0,1-14-.2c-1.84-1.06-2.86-2.44-2.86-3.89h0C356.74,39.42,357.74,38.06,359.55,37Zm17.22,18.48a.38.38,0,0,0-.08.17,5,5,0,0,1-2.39,3l-.35.21-.36.21a15.91,15.91,0,0,1-14-.21,5.25,5.25,0,0,1-2.8-3.31.49.49,0,0,0-.06-.17V43.63a8,8,0,0,0,2.36,2,15.75,15.75,0,0,0,7.68,1.84,16,16,0,0,0,7.32-1.64l.35-.2.4-.24a7.51,7.51,0,0,0,1.91-1.73V55.41A.19.19,0,0,0,376.77,55.49Z"/><g id="lidarring2"><path class="cls-5" d="M272.52,207a1.07,1.07,0,0,1-.35-.06l-.46-.17a1,1,0,1,1,.68-1.88l.47.18a1,1,0,0,1-.34,1.93Z"/><path class="cls-5" d="M314.13,220.05l-.17,0-1-.18a1,1,0,0,1,.37-2l1,.18a1,1,0,0,1-.17,2ZM307,218.56l-.23,0-1-.25a1,1,0,0,1,.48-1.94l1,.25a1,1,0,0,1-.24,2Zm-7-1.88a.9.9,0,0,1-.28,0l-1-.29a1,1,0,0,1,.57-1.92l1,.29a1,1,0,0,1-.28,2Zm-7-2.16a1.12,1.12,0,0,1-.31-.05l-1-.33a1,1,0,0,1,.63-1.9l1,.33a1,1,0,0,1-.32,2Zm-6.87-2.38a1.07,1.07,0,0,1-.35-.06l-1-.35a1,1,0,1,1,.68-1.88l1,.35a1,1,0,0,1-.34,1.94Zm-6.83-2.53a.92.92,0,0,1-.36-.07l-1-.36a1,1,0,0,1,.71-1.87l1,.37a1,1,0,0,1-.36,1.93Z"/><path class="cls-5" d="M320.81,221h-.1l-.5-.05a1,1,0,1,1,.2-2l.49.05a1,1,0,0,1-.09,2Z"/><path class="cls-5" d="M152.17,145.67a1,1,0,0,1-1-.71l-.14-.48a1,1,0,1,1,1.92-.57l.14.47a1,1,0,0,1-.67,1.25A1,1,0,0,1,152.17,145.67Z"/><path class="cls-5" d="M257.64,208.67a.84.84,0,0,1-.27,0l-1-.27a1,1,0,0,1,.55-1.93l1,.28a1,1,0,0,1-.27,2Zm-6.78-2a.92.92,0,0,1-.29,0l-1-.29a1,1,0,0,1,.59-1.92l1,.3a1,1,0,0,1-.29,1.95Zm-6.74-2.11a1.12,1.12,0,0,1-.31-.05l-1-.31a1,1,0,1,1,.62-1.9l1,.31a1,1,0,0,1-.31,2Zm-6.7-2.25a1.26,1.26,0,0,1-.33-.05l-1-.34a1,1,0,1,1,.66-1.88l.95.33a1,1,0,0,1,.62,1.27A1,1,0,0,1,237.42,202.33Zm-6.64-2.39a1.13,1.13,0,0,1-.36-.06l-.94-.36a1,1,0,0,1,.7-1.87l.95.35a1,1,0,0,1-.35,1.94Zm-6.6-2.54a1,1,0,0,1-.37-.07l-.94-.38a1,1,0,1,1,.75-1.85l.93.37a1,1,0,0,1,.56,1.3A1,1,0,0,1,224.18,197.4Zm-6.53-2.69a1,1,0,0,1-.39-.08l-.93-.4a1,1,0,0,1-.53-1.31,1,1,0,0,1,1.32-.53l.92.4a1,1,0,0,1-.39,1.92Zm-6.47-2.84a1,1,0,0,1-.41-.09l-.92-.42a1,1,0,0,1,.83-1.82l.91.41a1,1,0,0,1-.41,1.92Zm-6.4-3a1,1,0,0,1-.43-.11l-.91-.44a1,1,0,1,1,.88-1.79l.9.44a1,1,0,0,1-.44,1.9Zm-6.32-3.17a1,1,0,0,1-.46-.11l-.89-.46a1,1,0,0,1,.92-1.78l.89.46a1,1,0,0,1-.46,1.89Zm-6.23-3.32a1.07,1.07,0,0,1-.49-.12l-.88-.49a1,1,0,0,1,1-1.75l.88.48a1,1,0,0,1-.48,1.88Zm-6.15-3.49a1,1,0,0,1-.51-.15l-.87-.52a1,1,0,1,1,1-1.71l.85.52a1,1,0,0,1,.35,1.37A1,1,0,0,1,186.08,178.89Zm-6-3.78a1,1,0,0,1-.54-.17l-.85-.56a1,1,0,0,1,1.1-1.66l.84.55a1,1,0,0,1-.55,1.84Zm-5.86-4a1,1,0,0,1-.57-.18l-.83-.58a1,1,0,1,1,1.14-1.64l.83.58a1,1,0,0,1-.57,1.82Zm-5.78-4.08a1,1,0,0,1-.59-.19l-.82-.59a1,1,0,0,1-.23-1.39,1,1,0,0,1,1.4-.23l.82.59a1,1,0,0,1,.23,1.39A1,1,0,0,1,168.45,167.06Zm-5.73-4.16a1,1,0,0,1-.59-.2l-.82-.6a1,1,0,0,1,1.19-1.61l.81.6a1,1,0,0,1,.21,1.4A1,1,0,0,1,162.72,162.9ZM157,158.66a1,1,0,0,1-.6-.2l-.8-.6a1,1,0,0,1-.2-1.41,1,1,0,0,1,1.39-.2l.81.62a1,1,0,0,1-.6,1.79Zm-2.85-6.21a1,1,0,0,1-.95-.72l-.29-1a1,1,0,1,1,1.91-.57l.29,1a1,1,0,0,1-.67,1.24A.93.93,0,0,1,154.19,152.45Z"/><path class="cls-5" d="M264,210.39a1.15,1.15,0,0,1-.26,0l-.48-.13a1,1,0,1,1,.51-1.93l.49.13a1,1,0,0,1-.26,2Z"/><path class="cls-5" d="M128.46,115.5a1,1,0,0,1-.87-.51l-.25-.44a1,1,0,0,1,1.75-1l.24.43a1,1,0,0,1-.38,1.36A1,1,0,0,1,128.46,115.5Z"/><path class="cls-5" d="M147.79,140.93a1,1,0,0,1-.72-.3l-.64-.67a1,1,0,0,1,1.45-1.38l.63.66a1,1,0,0,1-.72,1.69Zm-4.35-4.7a1,1,0,0,1-.75-.33l-.61-.69a1,1,0,0,1,.09-1.41,1,1,0,0,1,1.41.09l.6.68a1,1,0,0,1-.74,1.66Zm-4.14-4.88a1,1,0,0,1-.78-.38l-.58-.71a1,1,0,1,1,1.57-1.25l.56.71a1,1,0,0,1-.15,1.4A1,1,0,0,1,139.3,131.35Zm-3.9-5.09a1,1,0,0,1-.81-.41l-.54-.75a1,1,0,0,1,.23-1.39,1,1,0,0,1,1.4.23l.53.74a1,1,0,0,1-.81,1.58ZM131.78,121a1,1,0,0,1-.84-.46l-.5-.78a1,1,0,0,1,1.69-1.07l.49.77a1,1,0,0,1-.3,1.38A1,1,0,0,1,131.78,121Z"/><path class="cls-5" d="M152,145.19a1,1,0,0,1-.7-.28l-.36-.35a1,1,0,1,1,1.4-1.43l.36.35a1,1,0,0,1,0,1.41A1,1,0,0,1,152,145.19Z"/></g><path class="cls-5" d="M312.8,184.16a.62.62,0,0,1-.19,0l-.49-.09a1,1,0,0,1-.79-1.18,1,1,0,0,1,1.18-.78l.49.09a1,1,0,0,1-.2,2Z"/><path class="cls-5" d="M366.83,190.38h0l-1,0a1,1,0,0,1-1-1,1,1,0,0,1,1-1l1,0a1,1,0,0,1,0,2Zm-6.8-.31h0l-1,0a1,1,0,0,1,.11-2l1,.06a1,1,0,0,1-.05,2Zm-6.78-.42h-.08l-1-.07a1,1,0,0,1,.15-2l1,.07a1,1,0,0,1-.07,2Zm-6.78-.57h-.1l-1-.09a1,1,0,1,1,.2-2l1,.09a1,1,0,0,1-.09,2Zm-6.77-.7h-.11l-1-.11a1,1,0,0,1-.88-1.11,1,1,0,0,1,1.11-.88l1,.12a1,1,0,0,1,.88,1.1A1,1,0,0,1,339.7,188.38Zm-6.75-.85h-.14l-1-.13a1,1,0,0,1-.85-1.13,1,1,0,0,1,1.13-.85l1,.13a1,1,0,0,1-.13,2Zm-6.74-1h-.15l-1-.15a1,1,0,0,1,.32-2l1,.15a1,1,0,0,1-.16,2Zm-6.71-1.12-.18,0-1-.17a1,1,0,0,1,.35-2l1,.17a1,1,0,0,1-.17,2Z"/><path class="cls-5" d="M373.15,190.55h-.5a1,1,0,0,1-1-1,1,1,0,0,1,1-1h.47Z"/><path class="cls-5" d="M186.08,125.74a1,1,0,0,1-1-.7l-.15-.47a1,1,0,0,1,1.91-.61l.15.48a1,1,0,0,1-.65,1.25A1,1,0,0,1,186.08,125.74Z"/><path class="cls-5" d="M295.84,187a.76.76,0,0,1-.21,0l-1-.21a1,1,0,1,1,.43-1.95l1,.21a1,1,0,0,1-.22,2Zm-6.69-1.54-.24,0-1-.23a1,1,0,1,1,.47-1.94l.95.23a1,1,0,0,1-.23,2Zm-6.67-1.67a.73.73,0,0,1-.25,0l-1-.25a1,1,0,1,1,.51-1.93l.95.25a1,1,0,0,1-.26,2ZM275.86,182a.86.86,0,0,1-.28,0l-.94-.27a1,1,0,1,1,.55-1.92l.94.27a1,1,0,0,1-.27,2Zm-6.58-2a1,1,0,0,1-.3-.05l-.94-.29a1,1,0,0,1-.65-1.26,1,1,0,0,1,1.25-.65l.93.29a1,1,0,0,1-.29,2Zm-6.54-2.13a1,1,0,0,1-.32-.06l-.93-.32a1,1,0,0,1,.65-1.89l.93.32a1,1,0,0,1-.33,1.95Zm-6.47-2.3a1.07,1.07,0,0,1-.35-.06l-.92-.34a1,1,0,1,1,.7-1.87l.91.34a1,1,0,0,1,.6,1.28A1,1,0,0,1,256.27,175.59Zm-6.42-2.45a1,1,0,0,1-.37-.07l-.91-.37a1,1,0,1,1,.74-1.85l.91.36a1,1,0,0,1-.37,1.93Zm-6.35-2.63a.88.88,0,0,1-.39-.08l-.91-.39a1,1,0,1,1,.8-1.83l.89.39a1,1,0,0,1-.39,1.91Zm-6.28-2.79a1.06,1.06,0,0,1-.42-.09l-.89-.42a1,1,0,0,1,.85-1.81l.88.41a1,1,0,0,1-.42,1.91Zm-6.19-3a.91.91,0,0,1-.45-.11l-.88-.44a1,1,0,0,1,.9-1.78l.87.43a1,1,0,0,1,.45,1.35A1,1,0,0,1,231,164.75Zm-6.11-3.15a1,1,0,0,1-.47-.12l-.87-.46a1,1,0,0,1-.4-1.36,1,1,0,0,1,1.35-.4l.86.46a1,1,0,0,1-.47,1.88Zm-6-3.33a1,1,0,0,1-.5-.13l-.85-.5a1,1,0,1,1,1-1.72l.85.48a1,1,0,0,1-.5,1.87Zm-5.86-3.61a1,1,0,0,1-.55-.16l-.82-.55a1,1,0,0,1,1.1-1.66l.82.53a1,1,0,0,1,.29,1.39A1,1,0,0,1,213.05,154.66Zm-5.69-3.87a1,1,0,0,1-.58-.18l-.8-.56a1,1,0,1,1,1.15-1.64l.8.57a1,1,0,0,1-.57,1.81Zm-5.6-4a1,1,0,0,1-.59-.19l-.8-.59a1,1,0,0,1,1.19-1.61l.79.58a1,1,0,0,1,.21,1.4A1,1,0,0,1,201.76,146.79Zm-5.53-4.1a1,1,0,0,1-.6-.21l-.79-.59a1,1,0,0,1-.2-1.4,1,1,0,0,1,1.41-.2l.78.6a1,1,0,0,1,.2,1.4A1,1,0,0,1,196.23,142.69Zm-5.48-4.19a1,1,0,0,1-.61-.21l-.78-.61a1,1,0,1,1,1.23-1.57l.78.6a1,1,0,0,1,.17,1.4A1,1,0,0,1,190.75,138.5Zm-2.59-6.21a1,1,0,0,1-.95-.69l-.3-.94a1,1,0,0,1,.65-1.26,1,1,0,0,1,1.26.65l.29.94a1,1,0,0,1-.64,1.25A.87.87,0,0,1,188.16,132.29Z"/><path class="cls-5" d="M302.1,188.32a.68.68,0,0,1-.2,0l-.49-.09a1,1,0,0,1-.78-1.18,1,1,0,0,1,1.17-.78l.49.09a1,1,0,0,1-.19,2Z"/><path class="cls-5" d="M159.53,97.36a1,1,0,0,1-.92-.61c-.07-.15-.14-.31-.2-.47a1,1,0,1,1,1.85-.76l.18.44a1,1,0,0,1-.52,1.31A.92.92,0,0,1,159.53,97.36Z"/><path class="cls-5" d="M181.58,121a1,1,0,0,1-.68-.27l-.68-.63a1,1,0,0,1,1.35-1.47l.69.63a1,1,0,0,1-.68,1.74Zm-4.86-4.34a1,1,0,0,1-.66-.24l-.7-.61a1,1,0,0,1-.1-1.41,1,1,0,0,1,1.41-.1l.7.61a1,1,0,0,1,.1,1.41A1,1,0,0,1,176.72,116.65Zm-4.91-4.29a1,1,0,0,1-.66-.25l-.7-.63a1,1,0,1,1,1.34-1.48l.69.62a1,1,0,0,1-.67,1.74Zm-4.74-4.47a1,1,0,0,1-.71-.3l-.66-.68a1,1,0,0,1,0-1.42,1,1,0,0,1,1.41,0l.64.66a1,1,0,0,1,0,1.41A1,1,0,0,1,167.07,107.89ZM162.82,103a1,1,0,0,1-.81-.4l-.56-.78a1,1,0,0,1,1.64-1.15c.17.25.35.49.53.74a1,1,0,0,1-.8,1.59Z"/><path class="cls-5" d="M185.93,125.26a1,1,0,0,1-.73-.31l-.34-.36a1,1,0,1,1,1.44-1.38l.35.37a1,1,0,0,1-.72,1.68Z"/><path class="cls-11" d="M208.28,147.24l-.36-.92-.43-1-1.2-2.8a1.29,1.29,0,0,0-.21-.36.32.32,0,0,0-.19-.1,1.41,1.41,0,0,0-.37,0l-.05-.05v-.25l.05-.06c.55,0,1,.05,1.3.05s.91,0,1.37-.05l.05.05V142l-.05.05a2.21,2.21,0,0,0-.71.08.2.2,0,0,0-.1.17,2.74,2.74,0,0,0,.24.76l.71,1.78.56,1.33.59-1.33.49-1.21c.18-.45.3-.78.36-1a2.11,2.11,0,0,0,.08-.38.17.17,0,0,0-.13-.16,2.66,2.66,0,0,0-.65-.07l0-.05v-.25l.06-.06c.48,0,.84.05,1.09.05l1-.05,0,.06V142l0,.05a1.11,1.11,0,0,0-.46.1.64.64,0,0,0-.23.27c-.07.13-.28.55-.62,1.25l-.56,1.21c-.1.2-.44,1-1,2.38Z"/><path class="cls-11" d="M212.27,139.44l-.05,0,0-.24,0,0c.19-.06.44-.15.74-.27s.51-.22.64-.29l.08,0c0,.85-.05,1.37-.05,1.54v1.09c0,.26,0,.52,0,.75a1.57,1.57,0,0,0,0,.42.21.21,0,0,0,.06.1.23.23,0,0,0,.11,0l.46,0,0,0v.14l0,0c-.43,0-.73,0-.91,0l-1,0,0,0v-.14l0,0,.5-.05a.16.16,0,0,0,.1,0,.27.27,0,0,0,0-.14,3.84,3.84,0,0,0,0-.6c0-.34,0-.51,0-.52v-2.08s0-.07-.06-.07h0l-.13,0-.29.13A3.59,3.59,0,0,0,212.27,139.44Z"/><path class="cls-11" d="M213.1,149.13l0,.07v0c-.41.35-.69.53-.84.53s-.15-.06-.15-.19,0-.13,0-.23a2,2,0,0,1,.06-.3l.07-.32,0-.17h0a4.4,4.4,0,0,1-.82.93,1.12,1.12,0,0,1-.53.31c-.14,0-.21-.16-.21-.5a3.35,3.35,0,0,1,.1-.71,5.34,5.34,0,0,1,.23-.74,2.44,2.44,0,0,1,.22-.44,1.19,1.19,0,0,1,.28-.25,2,2,0,0,1,.37-.21.92.92,0,0,1,.38-.07,1.55,1.55,0,0,1,.54.1l.18-.11.07,0-.12.44-.14.5-.07.29c-.05.21-.1.42-.15.65a4,4,0,0,0-.07.46c0,.08,0,.12.08.12a.51.51,0,0,0,.14,0l.29-.21Zm-.5-1.87a1.12,1.12,0,0,0-.48-.1.79.79,0,0,0-.38.08.58.58,0,0,0-.13.16c0,.08-.1.23-.18.44a6.46,6.46,0,0,0-.19.7,3,3,0,0,0-.07.58.45.45,0,0,0,0,.21.08.08,0,0,0,.08,0c.07,0,.21-.09.41-.28a2.57,2.57,0,0,0,.52-.66,3.31,3.31,0,0,0,.35-1Z"/><path class="cls-11" d="M208.38,129.51l-.37-.92-.43-1-1.2-2.8a1.29,1.29,0,0,0-.21-.36.41.41,0,0,0-.19-.11l-.37,0-.05,0V124l.06-.06c.54,0,1,0,1.3,0s.9,0,1.36,0l.05,0v.26l-.05,0a2.14,2.14,0,0,0-.71.09.21.21,0,0,0-.1.17,2.74,2.74,0,0,0,.24.76l.71,1.78.56,1.33.59-1.33.49-1.21c.18-.45.31-.78.36-1a1.47,1.47,0,0,0,.08-.38.16.16,0,0,0-.13-.16,2.47,2.47,0,0,0-.65-.08l0,0V124l0-.06c.48,0,.85,0,1.09,0s.55,0,1,0l0,.06v.25l0,0a1.31,1.31,0,0,0-.46.1.67.67,0,0,0-.22.28c-.08.13-.29.55-.63,1.25l-.56,1.2c-.1.21-.43,1-1,2.39Z"/><path class="cls-11" d="M212.36,121.7h-.05l0-.24,0,0c.2-.06.44-.15.74-.27l.64-.29.08,0c0,.85-.05,1.37-.05,1.54v1.09c0,.26,0,.51,0,.75a4.14,4.14,0,0,0,0,.42.15.15,0,0,0,.06.09.22.22,0,0,0,.12,0l.45,0,0,0V125l0,0c-.43,0-.73,0-.91,0l-1,0,0,0v-.14l0,0a4.5,4.5,0,0,0,.5,0c.05,0,.08,0,.1,0a.38.38,0,0,0,.06-.14q0-.11,0-.6c0-.34,0-.51,0-.52v-2.08s0-.07-.05-.07h0l-.12,0-.29.13Z"/><path class="cls-11" d="M212,127.66l.07,0-.2.94-.3,1.41a2.65,2.65,0,0,1,.74-.73,1.2,1.2,0,0,1,.61-.21.32.32,0,0,1,.2.07.35.35,0,0,1,.1.21,1.28,1.28,0,0,1,0,.36,2.52,2.52,0,0,1-.14.82,3,3,0,0,1-.3.64,2.48,2.48,0,0,1-.36.42,3,3,0,0,1-.46.3,1.14,1.14,0,0,1-.49.12.63.63,0,0,1-.42-.14.42.42,0,0,1-.17-.36,4.47,4.47,0,0,1,.1-.66l.2-1.06c0-.21.08-.44.13-.68l.11-.64a2.64,2.64,0,0,1,.06-.31v-.07a.11.11,0,0,0-.05-.1l-.16,0h-.24l0,0v-.07l0,0A5.35,5.35,0,0,0,212,127.66Zm-.66,3.7a.5.5,0,0,0,.11.32.39.39,0,0,0,.34.13.65.65,0,0,0,.54-.29,2.34,2.34,0,0,0,.36-.76,3,3,0,0,0,.14-.79.83.83,0,0,0-.06-.4.18.18,0,0,0-.18-.09.8.8,0,0,0-.41.14,1.51,1.51,0,0,0-.42.42,2,2,0,0,0-.32.72A4,4,0,0,0,211.34,131.36Z"/><path class="cls-11" d="M195,178.2l-.37-.92-.43-1-1.2-2.8a1.29,1.29,0,0,0-.21-.36.33.33,0,0,0-.18-.1,1.57,1.57,0,0,0-.38,0l-.05-.05v-.25l.06-.06c.54,0,1,.05,1.3.05s.9,0,1.36-.05l.05.05v.26l-.05.05a2.27,2.27,0,0,0-.71.08.22.22,0,0,0-.1.17,2.74,2.74,0,0,0,.24.76l.71,1.78.57,1.33.58-1.33.49-1.21c.18-.45.31-.78.36-1a1.47,1.47,0,0,0,.08-.38.17.17,0,0,0-.13-.16,2.66,2.66,0,0,0-.65-.07l0-.05v-.25l.05-.06c.48,0,.85.05,1.09.05l1-.05.05.06v.25l0,.05a1.11,1.11,0,0,0-.46.1.57.57,0,0,0-.22.27c-.08.13-.29.55-.63,1.25l-.56,1.21c-.1.2-.43,1-1,2.38Z"/><path class="cls-11" d="M198.69,173.74l0,0v-.14l1-1a5.31,5.31,0,0,0,.78-1,1.46,1.46,0,0,0,.18-.66.82.82,0,0,0-.22-.59.74.74,0,0,0-.58-.24,1.09,1.09,0,0,0-.42.07.55.55,0,0,0-.23.17,2.5,2.5,0,0,0-.18.51l0,0h-.12l0,0q.06-.39.09-.78a1.39,1.39,0,0,1,.52-.34,1.59,1.59,0,0,1,.5-.08,1.52,1.52,0,0,1,.59.12,1,1,0,0,1,.46.38,1.12,1.12,0,0,1,.17.61,1.32,1.32,0,0,1-.1.51,2.06,2.06,0,0,1-.3.51,6.17,6.17,0,0,1-.53.57l-.91.94h1.15c.36,0,.66,0,.89,0l0,0a1.72,1.72,0,0,0,0,.26,1.21,1.21,0,0,0,0,.23l0,0-.65,0h-1.34Z"/><path class="cls-11" d="M199.83,180.09l0,.07v0c-.41.35-.69.53-.84.53s-.15-.06-.15-.19,0-.13,0-.23,0-.19.06-.3l.07-.32.05-.17h0a4.14,4.14,0,0,1-.82.93,1.12,1.12,0,0,1-.53.31c-.14,0-.2-.16-.2-.5a3.28,3.28,0,0,1,.09-.71,6.46,6.46,0,0,1,.23-.74,2.29,2.29,0,0,1,.23-.44,1,1,0,0,1,.27-.25,2.42,2.42,0,0,1,.37-.21.92.92,0,0,1,.38-.07,1.55,1.55,0,0,1,.54.1l.19-.11.06.05-.12.44-.14.5-.07.29c0,.21-.1.42-.15.65a3.33,3.33,0,0,0-.06.46c0,.08,0,.12.08.12a.36.36,0,0,0,.13-.05,1.68,1.68,0,0,0,.29-.2Zm-.5-1.87a1.06,1.06,0,0,0-.48-.1.79.79,0,0,0-.38.08.44.44,0,0,0-.12.16,2.36,2.36,0,0,0-.18.44,4.77,4.77,0,0,0-.2.7,4,4,0,0,0-.07.58.45.45,0,0,0,0,.21.09.09,0,0,0,.08,0c.07,0,.21-.09.42-.28a3.09,3.09,0,0,0,.52-.66,4,4,0,0,0,.35-1Z"/><path class="cls-11" d="M170.9,162.18l-.36-.92-.43-1-1.21-2.8a1.11,1.11,0,0,0-.2-.36.38.38,0,0,0-.19-.11l-.37,0,0,0v-.26l0,0c.55,0,1,0,1.3,0s.91,0,1.37,0l.05,0v.26l-.05,0a2.08,2.08,0,0,0-.71.09.19.19,0,0,0-.1.17,3,3,0,0,0,.23.76l.72,1.78.56,1.33.59-1.33.48-1.21c.19-.46.31-.78.37-1a2.11,2.11,0,0,0,.08-.38.16.16,0,0,0-.13-.16,2.47,2.47,0,0,0-.65-.08l-.05,0v-.26l.06,0c.48,0,.84,0,1.09,0s.55,0,1,0l.05,0v.26l0,0a1.25,1.25,0,0,0-.46.1.68.68,0,0,0-.23.28c-.07.13-.28.55-.62,1.25l-.56,1.2c-.1.21-.44,1-1,2.39Z"/><path class="cls-11" d="M174.58,157.71l0,0v-.13l1-1a5.06,5.06,0,0,0,.79-1,1.49,1.49,0,0,0,.18-.66.84.84,0,0,0-.22-.59.75.75,0,0,0-.59-.24,1.07,1.07,0,0,0-.41.07.43.43,0,0,0-.23.17,2.5,2.5,0,0,0-.18.51l0,0h-.12l0,0q.06-.39.09-.78a1.29,1.29,0,0,1,.51-.34,1.69,1.69,0,0,1,.5-.08,1.53,1.53,0,0,1,.6.12.93.93,0,0,1,.45.38,1,1,0,0,1,.18.61,1.54,1.54,0,0,1-.1.51,1.85,1.85,0,0,1-.3.5,7.85,7.85,0,0,1-.53.58l-.92.93h1.16c.36,0,.65,0,.89,0l0,0a1.72,1.72,0,0,0,0,.26,1.3,1.3,0,0,0,0,.23l0,0-.65,0h-1.34Z"/><path class="cls-11" d="M174.52,160.33l.08,0-.2.94-.3,1.41a2.63,2.63,0,0,1,.73-.73,1.27,1.27,0,0,1,.61-.21.26.26,0,0,1,.2.07.35.35,0,0,1,.11.21,1.28,1.28,0,0,1,0,.36,2.57,2.57,0,0,1-.14.82,2.94,2.94,0,0,1-.31.64,2.48,2.48,0,0,1-.36.42,2.52,2.52,0,0,1-.45.3,1.14,1.14,0,0,1-.49.12.61.61,0,0,1-.42-.14.43.43,0,0,1-.18-.36,5.17,5.17,0,0,1,.11-.66l.2-1.06c0-.21.08-.44.12-.68l.12-.64c0-.18,0-.29,0-.31a.2.2,0,0,0,0-.07.11.11,0,0,0-.05-.1.32.32,0,0,0-.16,0h-.25l0,0v-.07l0,0A5.12,5.12,0,0,0,174.52,160.33Zm-.65,3.7a.58.58,0,0,0,.1.32.42.42,0,0,0,.35.13.65.65,0,0,0,.54-.29,2.83,2.83,0,0,0,.36-.76,3.06,3.06,0,0,0,.14-.79.83.83,0,0,0-.06-.4.2.2,0,0,0-.18-.09.78.78,0,0,0-.41.14,1.53,1.53,0,0,0-.43.42,2.15,2.15,0,0,0-.31.72A3,3,0,0,0,173.87,164Z"/><path class="cls-11" d="M199.78,134.1h0l0-.17,0,0a3.56,3.56,0,0,0,.51-.18l.44-.2.06,0c0,.59,0,.94,0,1.06v1.27a2.55,2.55,0,0,0,0,.29.16.16,0,0,0,0,.07l.08,0,.32,0v.11h-1.33v-.09l0,0,.35,0a.09.09,0,0,0,.06,0s0-.05,0-.09a2.86,2.86,0,0,0,0-.42c0-.23,0-.35,0-.36v-1.43s0,0,0,0h0l-.09,0-.2.09Z"/><path class="cls-11" d="M199.6,137.56h0l0,0v0c-.38.4-.67.6-.86.6a.2.2,0,0,1-.21-.15,3.66,3.66,0,0,1-.06-.71l0,0a3,3,0,0,1-.71.64,1.37,1.37,0,0,1-.73.24c-.35,0-.53-.21-.53-.64a2.16,2.16,0,0,1,.16-.76,2.91,2.91,0,0,1,.42-.8,2.16,2.16,0,0,1,.59-.55,1.32,1.32,0,0,1,.64-.18.57.57,0,0,1,.29.06.37.37,0,0,1,.16.17.82.82,0,0,1,.08.29c0,.12,0,.31,0,.56v.2l0,0c.13-.2.25-.41.36-.62a2.56,2.56,0,0,0,.22-.59h.06c0,.09.1.18.14.27a7.49,7.49,0,0,1-.78,1.18q0,.24,0,.54a1,1,0,0,0,.08.37.18.18,0,0,0,.13.06.37.37,0,0,0,.17-.05A1.41,1.41,0,0,0,199.6,137.56Zm-1.06-.41V137a6.74,6.74,0,0,0,0-.84,1.31,1.31,0,0,0-.14-.49.34.34,0,0,0-.29-.14.44.44,0,0,0-.24.07,1,1,0,0,0-.25.23,2.25,2.25,0,0,0-.28.44,3.77,3.77,0,0,0-.22.59,2.61,2.61,0,0,0-.08.6.64.64,0,0,0,.09.38.34.34,0,0,0,.3.14,1,1,0,0,0,.56-.23A3.65,3.65,0,0,0,198.54,137.15Z"/><path class="cls-11" d="M183,170.88l0,0v-.09l.67-.72a3.21,3.21,0,0,0,.54-.68,1.11,1.11,0,0,0,.13-.46.59.59,0,0,0-.15-.41.57.57,0,0,0-.41-.16.78.78,0,0,0-.28,0,.3.3,0,0,0-.16.11,1.55,1.55,0,0,0-.12.36h-.11l0,0a3.33,3.33,0,0,0,.07-.54.91.91,0,0,1,.35-.23,1,1,0,0,1,.35-.05,1,1,0,0,1,.41.08.65.65,0,0,1,.31.26.74.74,0,0,1,.12.42.87.87,0,0,1-.07.35,1.13,1.13,0,0,1-.2.35c-.09.11-.21.24-.37.4l-.63.64h.8a5.16,5.16,0,0,0,.61,0v0s0,.1,0,.18,0,.12,0,.16v0h-1.37Z"/><path class="cls-11" d="M182.85,171.71h0l0,0v0c-.38.41-.66.61-.86.61a.2.2,0,0,1-.2-.16,2.79,2.79,0,0,1-.07-.71h0a3.46,3.46,0,0,1-.72.63,1.36,1.36,0,0,1-.73.25c-.35,0-.52-.22-.52-.65A2.47,2.47,0,0,1,180,171a3.24,3.24,0,0,1,.43-.8,1.86,1.86,0,0,1,.59-.54,1.19,1.19,0,0,1,.64-.19.6.6,0,0,1,.29.06.4.4,0,0,1,.16.18.72.72,0,0,1,.08.29c0,.11,0,.3,0,.55v.2l0,0c.12-.2.24-.41.35-.62a1.88,1.88,0,0,0,.22-.59h.07l.14.27a7.84,7.84,0,0,1-.79,1.18q0,.24,0,.54a.74.74,0,0,0,.09.37.18.18,0,0,0,.13.06.41.41,0,0,0,.17-.05A2,2,0,0,0,182.85,171.71Zm-1-.41v-.16a6.25,6.25,0,0,0-.05-.83,1.1,1.1,0,0,0-.14-.49.31.31,0,0,0-.28-.15.44.44,0,0,0-.24.07,1.3,1.3,0,0,0-.26.23,2.11,2.11,0,0,0-.27.44,3.07,3.07,0,0,0-.22.6,2,2,0,0,0-.08.59.7.7,0,0,0,.09.39.32.32,0,0,0,.29.13,1,1,0,0,0,.56-.23A3.32,3.32,0,0,0,181.8,171.3Z"/><path class="cls-10" d="M388.65,66.9a8.13,8.13,0,0,0,.17-1.15l0-.06.18,0,.06,0,.14.34a.56.56,0,0,0,.32.12,1.21,1.21,0,0,0,.87-.5A12.49,12.49,0,0,0,391.61,64c0-.15-.08-.47-.17-1a5.82,5.82,0,0,0-.28-1.15,1.3,1.3,0,0,0-.29-.51.54.54,0,0,0-.33-.1.77.77,0,0,0-.4.1,2.37,2.37,0,0,0-.43.37l-.14.14-.07,0-.16-.1v-.07l.78-1.11a1.34,1.34,0,0,1,.79-.24,1.09,1.09,0,0,1,.91.45,4.52,4.52,0,0,1,.5,2l.72-1.1c.08-.12.24-.33.48-.62a3,3,0,0,1,.67-.62,1.14,1.14,0,0,1,.57-.17.88.88,0,0,1,.42.11c-.1.53-.17.91-.19,1.13l-.05.06-.11,0-.07,0a.64.64,0,0,0-.17-.21.39.39,0,0,0-.23,0,1.1,1.1,0,0,0-.71.3,10,10,0,0,0-1.23,1.58,12.3,12.3,0,0,0,.53,2.47c.15.33.34.5.57.5a.8.8,0,0,0,.4-.12,4.84,4.84,0,0,0,.61-.47h.08l.09.15v.08c-.29.28-.57.52-.82.72a5.68,5.68,0,0,1-.58.41.86.86,0,0,1-.43.11.65.65,0,0,1-.54-.27A2.25,2.25,0,0,1,392,66a12.45,12.45,0,0,1-.28-1.58c-.38.64-.74,1.18-1.06,1.62a3.62,3.62,0,0,1-.8.84,1.14,1.14,0,0,1-.63.2A.84.84,0,0,1,388.65,66.9Z"/><path class="cls-9" d="M340,68.26l.67-.45.14,0a1.42,1.42,0,0,0,0,.19.89.89,0,0,0,.89,1,1.11,1.11,0,0,0,.52-.13,1.57,1.57,0,0,0,.53-.43,5.34,5.34,0,0,0,.57-1c.21-.48.4-1,.58-1.55s.34-1.13.5-1.73l.23-.84a9.48,9.48,0,0,1-.85,1.12c-.25.29-.51.56-.75.82a3.91,3.91,0,0,1-.62.53.86.86,0,0,1-.43.15.51.51,0,0,1-.45-.35,2,2,0,0,1-.16-.86q0-.27.09-1.08a23.91,23.91,0,0,0,.17-2.57,2.83,2.83,0,0,0-.06-.74.22.22,0,0,0-.2-.17.74.74,0,0,0-.39.15c-.16.11-.36.25-.6.44l-.09,0-.07-.16,0-.1a4.81,4.81,0,0,1,2-1.27.36.36,0,0,1,.32.17,1.28,1.28,0,0,1,.12.66c0,.31,0,.71-.07,1.21-.14,1.53-.21,2.56-.21,3.07a1.07,1.07,0,0,0,.06.41.19.19,0,0,0,.2.14.57.57,0,0,0,.27-.08,2.37,2.37,0,0,0,.53-.44,5.37,5.37,0,0,0,.73-.9,7.6,7.6,0,0,0,.66-1.2A10.08,10.08,0,0,0,345.3,61l.39-1.55a6.12,6.12,0,0,0,1-.26l.15.14a31.84,31.84,0,0,0-1.25,3.77c-.3,1.06-.56,1.89-.76,2.5a10.24,10.24,0,0,1-.73,1.67,5.75,5.75,0,0,1-1,1.31,3.7,3.7,0,0,1-1,.78,2.27,2.27,0,0,1-.94.23,1.25,1.25,0,0,1-.83-.3,1,1,0,0,1-.34-.79A1,1,0,0,1,340,68.26Z"/><path class="cls-8" d="M364.87,19.22l-.1-.27v-.08l4.77-5.35a2.36,2.36,0,0,1-1.17.29,12.43,12.43,0,0,1-1.36-.14,5.88,5.88,0,0,0-.68-.08.57.57,0,0,0-.29.09,3.86,3.86,0,0,0-.37.73l-.06.06h-.19l-.05-.06.43-1.61a1.41,1.41,0,0,1,.66-.13,5.58,5.58,0,0,1,1.34.21q.69.18,1,.24a3.61,3.61,0,0,0,.63.06,1,1,0,0,0,.47-.1,2.14,2.14,0,0,0,.44-.41l.12.11-.09.44-4.59,5.13a2.81,2.81,0,0,1,1.16-.3,5.11,5.11,0,0,1,1.08.17,4.27,4.27,0,0,0,1,.16,1.27,1.27,0,0,0,.58-.14l.34-.92.07-.05h.21l0,.05-.23,1.09-.17.8a2.14,2.14,0,0,1-.76.14,2.83,2.83,0,0,1-.47,0,5.57,5.57,0,0,1-.69-.16c-.49-.12-.86-.2-1.14-.25a4.26,4.26,0,0,0-.78-.07,1.52,1.52,0,0,0-1.1.4Z"/><path class="cls-6" d="M205.79,128v1.56a.5.5,0,0,1-1,0v-.7l-13.1,7.57a.59.59,0,0,1-.25.07.52.52,0,0,1-.44-.25.52.52,0,0,1,.19-.69L204.26,128l-.52-.28a.5.5,0,0,1,.48-.88l1.27.69,0,0,.11.08.07.08A.54.54,0,0,1,205.79,128Z"/><path class="cls-6" d="M204.1,143.22l-.16,1.65v.07a.31.31,0,0,1,0,.13.34.34,0,0,1-.06.12.53.53,0,0,1-.2.16l-1.26.57a.54.54,0,0,1-.21.05.49.49,0,0,1-.45-.29A.51.51,0,0,1,202,145l.47-.21-11.11-8a.51.51,0,0,1-.11-.7.49.49,0,0,1,.69-.12L203,144l.09-.86a.51.51,0,0,1,.55-.45A.5.5,0,0,1,204.1,143.22Z"/><path class="cls-6" d="M194.73,179.57v.05a.49.49,0,0,1-.21.4l-1.13.81a.52.52,0,0,1-.29.09.5.5,0,0,1-.29-.91l.43-.3L180.82,174a.5.5,0,0,1,.41-.91l12.42,5.69-.08-.86a.5.5,0,1,1,1-.09Z"/><path class="cls-6" d="M181.13,173.87a.49.49,0,0,1-.71,0l-10.29-9-.17.85a.5.5,0,0,1-1-.19l.32-1.6h0l0-.09a.65.65,0,0,1,0-.13l.07-.11a.39.39,0,0,1,.1-.08.24.24,0,0,1,.11-.06l1.32-.45a.5.5,0,0,1,.63.31.51.51,0,0,1-.31.64l-.5.17,10.3,9A.49.49,0,0,1,181.13,173.87Z"/><path class="cls-6" d="M188.11,176.55l-.12,0a.49.49,0,0,1-.37-.6c0-.07,1.76-7.37-2.82-9.4-4.73-2.11-10.19.72-10.25.75a.49.49,0,0,1-.67-.2.5.5,0,0,1,.2-.68c.24-.13,5.94-3.09,11.13-.79,5.34,2.38,3.46,10.23,3.38,10.56A.5.5,0,0,1,188.11,176.55Z"/><path class="cls-6" d="M199.67,142.69a.5.5,0,0,1-.34-.87c2.52-2.28,3.7-4.46,3.5-6.5a6,6,0,0,0-2.71-4.1.5.5,0,0,1-.17-.68.5.5,0,0,1,.69-.17,7,7,0,0,1,3.19,4.86c.23,2.36-1.06,4.83-3.83,7.33A.46.46,0,0,1,199.67,142.69Z"/></g></svg>