<?xml version="1.0" encoding="utf-8"?>
<!-- Generator: Adobe Illustrator 25.0.1, SVG Export Plug-In . SVG Version: 6.00 Build 0)  -->
<svg version="1.1" xmlns="http://www.w3.org/2000/svg" xmlns:xlink="http://www.w3.org/1999/xlink" x="0px" y="0px"
	 viewBox="0 0 172.4 204.6" style="enable-background:new 0 0 172.4 204.6;" xml:space="preserve">
<style type="text/css">
	.st0{fill:#4BB4FF;}
	.st1{fill:#4DB2FF;}
	.st2{fill:#4CB3FF;}
	.st3{fill:#49B6FF;}
	.st4{fill:#56A9FF;}
	.st5{fill:#48B7FF;}
	.st6{fill:#51AEFF;}
	.st7{fill:#55AAFF;}
	.st8{fill:#47B8FF;}
	.st9{fill:#4EB1FF;}
	.st10{fill:#53ACFF;}
	.st11{fill:#54ABFF;}
	.st12{fill:#46B9FF;}
	.st13{fill:#45BAFF;}
	.st14{fill:#52ADFF;}
	.st15{fill:#44BBFF;}
	.st16{fill:#4FB0FF;}
	.st17{fill:#42BDFF;}
	.st18{fill:#4AB5FF;}
	.st19{fill:#50AFFF;}
	.st20{fill:#3FC0FF;}
	.st21{fill:#59A6FF;}
	.st22{fill:#3EC1FF;}
	.st23{fill:#3DC2FF;}
	.st24{fill:#3BC4FF;}
	.st25{fill:#43BCFF;}
	.st26{fill:#3CC3FF;}
	.st27{fill:#58A7FF;}
	.st28{fill:#39C6FF;}
	.st29{fill:#41BEFF;}
	.st30{fill:#38C7FF;}
	.st31{fill:#33CCFF;}
	.st32{fill:#25DAFF;}
	.st33{fill:#31CEFF;}
	.st34{fill:#1AE5FF;}
	.st35{fill:#3AC5FF;}
	.st36{fill:#16E9FF;}
	.st37{fill:#2DD2FF;}
	.st38{fill:#35CAFF;}
	.st39{fill:#37C8FF;}
	.st40{fill:#28D7FF;}
	.st41{fill:#1EE1FF;}
	.st42{fill:#40BFFF;}
	.st43{fill:#E22348;}
	.st44{fill:#2CD3FF;}
	.st45{fill:#21DEFF;}
	.st46{fill:#27D8FF;}
	.st47{fill:#5AA5FF;}
	.st48{fill:#2ED1FF;}
	.st49{fill:#5BA4FF;}
	.st50{fill:#609FFF;}
	.st51{opacity:0.24;fill:#3D3DD8;}
</style>
<g id="Layer_1">
</g>
<g id="Layer_2">
	<g>
		<g>
			<path id="C0_0_7389ae8162" class="st0" d="M6.1,49.6c0.2,0,0.5-0.1,0.7-0.3C6.9,49.2,7,49,7,48.7c0-0.2-0.1-0.5-0.3-0.7
				c-0.2-0.2-0.4-0.3-0.7-0.3c-0.2,0-0.5,0.1-0.7,0.3s-0.3,0.4-0.3,0.7c0,0.2,0.1,0.5,0.3,0.7S5.8,49.6,6.1,49.6z"/>
		</g>
	</g>
	<g>
		<g>
			<path id="C0_0_7389ae8162_1_" class="st1" d="M12.2,47.7c0.2,0,0.5-0.1,0.7-0.3c0.2-0.2,0.3-0.4,0.3-0.7c0-0.2-0.1-0.5-0.3-0.7
				c-0.2-0.2-0.4-0.3-0.7-0.3c-0.2,0-0.5,0.1-0.7,0.3c-0.2,0.2-0.3,0.4-0.3,0.7c0,0.2,0.1,0.5,0.3,0.7C11.7,47.6,12,47.7,12.2,47.7z
				"/>
		</g>
	</g>
	<g>
		<g>
			<path id="C0_0_7389ae8162_2_" class="st2" d="M18,48.6c0.2,0,0.5-0.1,0.7-0.3c0.2-0.2,0.3-0.4,0.3-0.7c0-0.2-0.1-0.5-0.3-0.7
				c-0.2-0.2-0.4-0.3-0.7-0.3s-0.5,0.1-0.7,0.3c-0.2,0.2-0.3,0.4-0.3,0.7c0,0.2,0.1,0.5,0.3,0.7C17.5,48.5,17.7,48.6,18,48.6z"/>
		</g>
	</g>
	<g>
		<g>
			<path id="C0_0_7389ae8162_3_" class="st3" d="M23.4,51.5c0.2,0,0.5-0.1,0.7-0.3s0.3-0.4,0.3-0.7c0-0.2-0.1-0.5-0.3-0.7
				s-0.4-0.3-0.7-0.3s-0.5,0.1-0.7,0.3s-0.3,0.4-0.3,0.7c0,0.2,0.1,0.5,0.3,0.7S23.1,51.5,23.4,51.5z"/>
		</g>
	</g>
	<g>
		<g>
			<path id="C0_0_7389ae8162_4_" class="st4" d="M6.4,148c0.2,0,0.5-0.1,0.7-0.3s0.3-0.4,0.3-0.7c0-0.2-0.1-0.5-0.3-0.7
				c-0.2-0.2-0.4-0.3-0.7-0.3c-0.2,0-0.5,0.1-0.7,0.3c-0.2,0.2-0.3,0.4-0.3,0.7c0,0.2,0.1,0.5,0.3,0.7C6,147.9,6.2,148,6.4,148z"/>
		</g>
	</g>
	<g>
		<g>
			<path id="C0_0_7389ae8162_5_" class="st5" d="M29.1,52.1c0.2,0,0.5-0.1,0.7-0.3s0.3-0.4,0.3-0.7s-0.1-0.5-0.3-0.7
				s-0.4-0.3-0.7-0.3s-0.5,0.1-0.7,0.3s-0.3,0.4-0.3,0.7s0.1,0.5,0.3,0.7S28.9,52.1,29.1,52.1z"/>
		</g>
	</g>
	<g>
		<g>
			<path id="C0_0_7389ae8162_6_" class="st6" d="M7.9,76.4c0.2,0,0.5-0.1,0.7-0.3c0.2-0.2,0.3-0.4,0.3-0.7S8.8,75,8.6,74.8
				c-0.2-0.2-0.4-0.3-0.7-0.3c-0.2,0-0.5,0.1-0.7,0.3C7.1,75,7,75.2,7,75.5s0.1,0.5,0.3,0.7C7.4,76.3,7.7,76.4,7.9,76.4z"/>
		</g>
	</g>
	<g>
		<g>
			<path id="C0_0_7389ae8162_7_" class="st7" d="M10.9,149.3c0.2,0,0.5-0.1,0.7-0.3c0.2-0.2,0.3-0.4,0.3-0.7c0-0.2-0.1-0.5-0.3-0.7
				c-0.2-0.2-0.4-0.3-0.7-0.3c-0.2,0-0.5,0.1-0.7,0.3c-0.2,0.2-0.3,0.4-0.3,0.7c0,0.2,0.1,0.5,0.3,0.7
				C10.4,149.2,10.6,149.3,10.9,149.3z"/>
		</g>
	</g>
	<g>
		<g>
			<path id="C0_0_7389ae8162_8_" class="st8" d="M34.8,53.2c0.2,0,0.5-0.1,0.7-0.3s0.3-0.4,0.3-0.7c0-0.2-0.1-0.5-0.3-0.7
				s-0.4-0.3-0.7-0.3s-0.5,0.1-0.7,0.3s-0.3,0.4-0.3,0.7c0,0.2,0.1,0.5,0.3,0.7S34.6,53.2,34.8,53.2z"/>
		</g>
	</g>
	<g>
		<g>
			<path id="C0_0_7389ae8162_9_" class="st9" d="M12.9,79.5c0.2,0,0.5-0.1,0.7-0.3c0.2-0.2,0.3-0.4,0.3-0.7s-0.1-0.5-0.3-0.7
				c-0.2-0.2-0.4-0.3-0.7-0.3s-0.5,0.1-0.7,0.3c-0.2,0.2-0.3,0.4-0.3,0.7s0.1,0.5,0.3,0.7C12.4,79.4,12.7,79.5,12.9,79.5z"/>
		</g>
	</g>
	<g>
		<g>
			<path id="C0_0_7389ae8162_10_" class="st10" d="M15.2,151.1c0.2,0,0.5-0.1,0.7-0.3c0.2-0.2,0.3-0.4,0.3-0.7s-0.1-0.5-0.3-0.7
				c-0.2-0.2-0.4-0.3-0.7-0.3s-0.5,0.1-0.7,0.3s-0.3,0.4-0.3,0.7s0.1,0.5,0.3,0.7S14.9,151.1,15.2,151.1z"/>
		</g>
	</g>
	<g>
		<g>
			<path id="C0_0_7389ae8162_11_" class="st5" d="M41,52.1c0.2,0,0.5-0.1,0.7-0.3s0.3-0.4,0.3-0.7c0-0.2-0.1-0.5-0.3-0.7
				s-0.4-0.3-0.7-0.3c-0.2,0-0.5,0.1-0.7,0.3s-0.3,0.4-0.3,0.7c0,0.2,0.1,0.5,0.3,0.7S40.7,52.1,41,52.1z"/>
		</g>
	</g>
	<g>
		<g>
			<path id="C0_0_7389ae8162_12_" class="st1" d="M18.4,80c0.2,0,0.5-0.1,0.7-0.3c0.2-0.2,0.3-0.4,0.3-0.7c0-0.2-0.1-0.5-0.3-0.7
				c-0.2-0.2-0.4-0.3-0.7-0.3s-0.5,0.1-0.7,0.3c-0.2,0.2-0.3,0.4-0.3,0.7c0,0.2,0.1,0.5,0.3,0.7C17.9,79.9,18.1,80,18.4,80z"/>
		</g>
	</g>
	<g>
		<g>
			<path id="C0_0_7389ae8162_13_" class="st11" d="M20,150.2c0.2,0,0.5-0.1,0.7-0.3s0.3-0.4,0.3-0.7s-0.1-0.5-0.3-0.7
				s-0.4-0.3-0.7-0.3s-0.5,0.1-0.7,0.3s-0.3,0.4-0.3,0.7s0.1,0.5,0.3,0.7S19.8,150.2,20,150.2z"/>
		</g>
	</g>
	<g>
		<g>
			<path id="C0_0_7389ae8162_14_" class="st12" d="M46.5,54.3c0.2,0,0.5-0.1,0.7-0.3c0.2-0.2,0.3-0.4,0.3-0.7c0-0.2-0.1-0.5-0.3-0.7
				c-0.2-0.2-0.4-0.3-0.7-0.3c-0.2,0-0.5,0.1-0.7,0.3c-0.2,0.2-0.3,0.4-0.3,0.7c0,0.2,0.1,0.5,0.3,0.7C46,54.2,46.2,54.3,46.5,54.3z
				"/>
		</g>
	</g>
	<g>
		<g>
			<path id="C0_0_7389ae8162_15_" class="st2" d="M23.7,81c0.2,0,0.5-0.1,0.7-0.3c0.2-0.2,0.3-0.4,0.3-0.7s-0.1-0.5-0.3-0.7
				s-0.4-0.3-0.7-0.3c-0.2,0-0.5,0.1-0.7,0.3s-0.3,0.4-0.3,0.7s0.1,0.5,0.3,0.7C23.2,80.9,23.5,81,23.7,81z"/>
		</g>
	</g>
	<g>
		<g>
			<path id="C0_0_7389ae8162_16_" class="st10" d="M24.5,151.2c0.2,0,0.5-0.1,0.7-0.3c0.2-0.2,0.3-0.4,0.3-0.7
				c0-0.2-0.1-0.5-0.3-0.7c-0.2-0.2-0.4-0.3-0.7-0.3s-0.5,0.1-0.7,0.3c-0.2,0.2-0.3,0.4-0.3,0.7c0,0.2,0.1,0.5,0.3,0.7
				C24,151.1,24.3,151.2,24.5,151.2z"/>
		</g>
	</g>
	<g>
		<g>
			<path id="C0_0_7389ae8162_17_" class="st4" d="M7.3,168.1c0.2,0,0.5-0.1,0.7-0.3c0.2-0.2,0.3-0.4,0.3-0.7c0-0.2-0.1-0.5-0.3-0.7
				c-0.2-0.2-0.4-0.3-0.7-0.3s-0.5,0.1-0.7,0.3c-0.2,0.2-0.3,0.4-0.3,0.7c0,0.2,0.1,0.5,0.3,0.7C6.8,168,7,168.1,7.3,168.1z"/>
		</g>
	</g>
	<g>
		<g>
			<path id="C0_0_7389ae8162_18_" class="st2" d="M4.9,16.4c0.2,0,0.5-0.1,0.7-0.3c0.2-0.2,0.3-0.4,0.3-0.7c0-0.2-0.1-0.5-0.3-0.7
				c-0.2-0.2-0.4-0.3-0.7-0.3s-0.5,0.1-0.7,0.3C4.1,14.9,4,15.2,4,15.4c0,0.2,0.1,0.5,0.3,0.7C4.5,16.3,4.7,16.4,4.9,16.4z"/>
		</g>
	</g>
	<g>
		<g>
			<path id="C0_0_7389ae8162_19_" class="st13" d="M52,56.1c0.2,0,0.5-0.1,0.7-0.3c0.2-0.2,0.3-0.4,0.3-0.7c0-0.2-0.1-0.5-0.3-0.7
				s-0.4-0.3-0.7-0.3c-0.2,0-0.5,0.1-0.7,0.3s-0.3,0.4-0.3,0.7c0,0.2,0.1,0.5,0.3,0.7C51.5,56,51.8,56.1,52,56.1z"/>
		</g>
	</g>
	<g>
		<g>
			<path id="C0_0_7389ae8162_20_" class="st2" d="M29.1,81.6c0.2,0,0.5-0.1,0.7-0.3c0.2-0.2,0.3-0.4,0.3-0.7S30,80.1,29.8,80
				s-0.4-0.3-0.7-0.3c-0.2,0-0.5,0.1-0.7,0.3s-0.3,0.4-0.3,0.7s0.1,0.5,0.3,0.7C28.6,81.5,28.9,81.6,29.1,81.6z"/>
		</g>
	</g>
	<g>
		<g>
			<path id="C0_0_7389ae8162_21_" class="st14" d="M8.9,104.8c0.2,0,0.5-0.1,0.7-0.3c0.2-0.2,0.3-0.4,0.3-0.7c0-0.2-0.1-0.5-0.3-0.7
				c-0.2-0.2-0.4-0.3-0.7-0.3c-0.2,0-0.5,0.1-0.7,0.3C8,103.4,8,103.7,8,103.9c0,0.2,0.1,0.5,0.3,0.7C8.4,104.7,8.6,104.8,8.9,104.8
				z"/>
		</g>
	</g>
	<g>
		<g>
			<path id="C0_0_7389ae8162_22_" class="st6" d="M28.8,153.2c0.2,0,0.5-0.1,0.7-0.3c0.2-0.2,0.3-0.4,0.3-0.7c0-0.2-0.1-0.5-0.3-0.7
				c-0.2-0.2-0.4-0.3-0.7-0.3s-0.5,0.1-0.7,0.3c-0.2,0.2-0.3,0.4-0.3,0.7c0,0.2,0.1,0.5,0.3,0.7C28.3,153.1,28.5,153.2,28.8,153.2z"
				/>
		</g>
	</g>
	<g>
		<g>
			<path id="C0_0_7389ae8162_23_" class="st11" d="M11.3,169.8c0.2,0,0.5-0.1,0.7-0.3c0.2-0.2,0.3-0.4,0.3-0.7
				c0-0.2-0.1-0.5-0.3-0.7c-0.2-0.2-0.4-0.3-0.7-0.3c-0.2,0-0.5,0.1-0.7,0.3c-0.2,0.2-0.3,0.4-0.3,0.7c0,0.2,0.1,0.5,0.3,0.7
				C10.9,169.7,11.1,169.8,11.3,169.8z"/>
		</g>
	</g>
	<g>
		<g>
			<path id="C0_0_7389ae8162_24_" class="st2" d="M11.3,15.8c0.2,0,0.5-0.1,0.7-0.3c0.2-0.2,0.3-0.4,0.3-0.7c0-0.2-0.1-0.5-0.3-0.7
				c-0.2-0.2-0.4-0.3-0.7-0.3c-0.2,0-0.5,0.1-0.7,0.3c-0.2,0.2-0.3,0.4-0.3,0.7c0,0.2,0.1,0.5,0.3,0.7C10.8,15.7,11,15.8,11.3,15.8z
				"/>
		</g>
	</g>
	<g>
		<g>
			<path id="C0_0_7389ae8162_25_" class="st15" d="M57.6,57.5c0.2,0,0.5-0.1,0.7-0.3s0.3-0.4,0.3-0.7c0-0.2-0.1-0.5-0.3-0.7
				s-0.4-0.3-0.7-0.3c-0.2,0-0.5,0.1-0.7,0.3s-0.3,0.4-0.3,0.7c0,0.2,0.1,0.5,0.3,0.7S57.4,57.5,57.6,57.5z"/>
		</g>
	</g>
	<g>
		<g>
			<path id="C0_0_7389ae8162_26_" class="st0" d="M34.5,82.7c0.2,0,0.5-0.1,0.7-0.3c0.2-0.2,0.3-0.4,0.3-0.7c0-0.2-0.1-0.5-0.3-0.7
				c-0.2-0.2-0.4-0.3-0.7-0.3s-0.5,0.1-0.7,0.3c-0.2,0.2-0.3,0.4-0.3,0.7c0,0.2,0.1,0.5,0.3,0.7C34,82.6,34.2,82.7,34.5,82.7z"/>
		</g>
	</g>
	<g>
		<g>
			<path id="C0_0_7389ae8162_27_" class="st6" d="M13.9,105.7c0.2,0,0.5-0.1,0.7-0.3c0.2-0.2,0.3-0.4,0.3-0.7s-0.1-0.5-0.3-0.7
				c-0.2-0.2-0.4-0.3-0.7-0.3s-0.5,0.1-0.7,0.3c-0.2,0.2-0.3,0.4-0.3,0.7s0.1,0.5,0.3,0.7C13.4,105.6,13.7,105.7,13.9,105.7z"/>
		</g>
	</g>
	<g>
		<g>
			<path id="C0_0_7389ae8162_28_" class="st16" d="M32.9,155.6c0.2,0,0.5-0.1,0.7-0.3s0.3-0.4,0.3-0.7c0-0.2-0.1-0.5-0.3-0.7
				c-0.2-0.2-0.4-0.3-0.7-0.3c-0.2,0-0.5,0.1-0.7,0.3c-0.2,0.2-0.3,0.4-0.3,0.7c0,0.2,0.1,0.5,0.3,0.7S32.6,155.6,32.9,155.6z"/>
		</g>
	</g>
	<g>
		<g>
			<path id="C0_0_7389ae8162_29_" class="st7" d="M15.9,169.4c0.2,0,0.5-0.1,0.7-0.3c0.2-0.2,0.3-0.4,0.3-0.7c0-0.2-0.1-0.5-0.3-0.7
				c-0.2-0.2-0.4-0.3-0.7-0.3s-0.5,0.1-0.7,0.3c-0.2,0.2-0.3,0.4-0.3,0.7c0,0.2,0.1,0.5,0.3,0.7C15.4,169.3,15.6,169.4,15.9,169.4z"
				/>
		</g>
	</g>
	<g>
		<g>
			<path id="C0_0_7389ae8162_30_" class="st2" d="M17.6,15.3c0.2,0,0.5-0.1,0.7-0.3c0.2-0.2,0.3-0.4,0.3-0.7c0-0.2-0.1-0.5-0.3-0.7
				c-0.2-0.2-0.4-0.3-0.7-0.3c-0.2,0-0.5,0.1-0.7,0.3c-0.2,0.2-0.3,0.4-0.3,0.7c0,0.2,0.1,0.5,0.3,0.7
				C17.1,15.2,17.4,15.3,17.6,15.3z"/>
		</g>
	</g>
	<g>
		<g>
			<path id="C0_0_7389ae8162_31_" class="st17" d="M63,59.9c0.2,0,0.5-0.1,0.7-0.3s0.3-0.4,0.3-0.7c0-0.2-0.1-0.5-0.3-0.7
				S63.3,58,63,58c-0.2,0-0.5,0.1-0.7,0.3s-0.3,0.4-0.3,0.7c0,0.2,0.1,0.5,0.3,0.7S62.8,59.9,63,59.9z"/>
		</g>
	</g>
	<g>
		<g>
			<path id="C0_0_7389ae8162_32_" class="st18" d="M39.9,83.4c0.2,0,0.5-0.1,0.7-0.3c0.2-0.2,0.3-0.4,0.3-0.7s-0.1-0.5-0.3-0.7
				c-0.2-0.2-0.4-0.3-0.7-0.3c-0.2,0-0.5,0.1-0.7,0.3c-0.2,0.2-0.3,0.4-0.3,0.7s0.1,0.5,0.3,0.7C39.4,83.3,39.6,83.4,39.9,83.4z"/>
		</g>
	</g>
	<g>
		<g>
			<path id="C0_0_7389ae8162_33_" class="st19" d="M18.8,107.6c0.2,0,0.5-0.1,0.7-0.3c0.2-0.2,0.3-0.4,0.3-0.7
				c0-0.2-0.1-0.5-0.3-0.7c-0.2-0.2-0.4-0.3-0.7-0.3s-0.5,0.1-0.7,0.3c-0.2,0.2-0.3,0.4-0.3,0.7c0,0.2,0.1,0.5,0.3,0.7
				C18.3,107.5,18.5,107.6,18.8,107.6z"/>
		</g>
	</g>
	<g>
		<g>
			<path id="C0_0_7389ae8162_34_" class="st19" d="M37.6,155.5c0.2,0,0.5-0.1,0.7-0.3s0.3-0.4,0.3-0.7c0-0.2-0.1-0.5-0.3-0.7
				c-0.2-0.2-0.4-0.3-0.7-0.3c-0.2,0-0.5,0.1-0.7,0.3c-0.2,0.2-0.3,0.4-0.3,0.7c0,0.2,0.1,0.5,0.3,0.7S37.4,155.5,37.6,155.5z"/>
		</g>
	</g>
	<g>
		<g>
			<path id="C0_0_7389ae8162_35_" class="st10" d="M19.9,171.2c0.2,0,0.5-0.1,0.7-0.3c0.2-0.2,0.3-0.4,0.3-0.7
				c0-0.2-0.1-0.5-0.3-0.7c-0.2-0.2-0.4-0.3-0.7-0.3c-0.2,0-0.5,0.1-0.7,0.3c-0.2,0.2-0.3,0.4-0.3,0.7c0,0.2,0.1,0.5,0.3,0.7
				C19.4,171.1,19.7,171.2,19.9,171.2z"/>
		</g>
	</g>
	<g>
		<g>
			<path id="C0_0_7389ae8162_36_" class="st0" d="M23.8,16.3c0.2,0,0.5-0.1,0.7-0.3c0.2-0.2,0.3-0.4,0.3-0.7c0-0.2-0.1-0.5-0.3-0.7
				c-0.2-0.2-0.4-0.3-0.7-0.3s-0.5,0.1-0.7,0.3c-0.2,0.2-0.3,0.4-0.3,0.7c0,0.2,0.1,0.5,0.3,0.7C23.3,16.2,23.5,16.3,23.8,16.3z"/>
		</g>
	</g>
	<g>
		<g>
			<path id="C0_0_7389ae8162_37_" class="st20" d="M67.9,63.7c0.2,0,0.5-0.1,0.7-0.3c0.2-0.2,0.3-0.4,0.3-0.7c0-0.2-0.1-0.5-0.3-0.7
				c-0.2-0.2-0.4-0.3-0.7-0.3s-0.5,0.1-0.7,0.3c-0.2,0.2-0.3,0.4-0.3,0.7c0,0.2,0.1,0.5,0.3,0.7C67.5,63.6,67.7,63.7,67.9,63.7z"/>
		</g>
	</g>
	<g>
		<g>
			<path id="C0_0_7389ae8162_38_" class="st0" d="M45.4,83.7c0.2,0,0.5-0.1,0.7-0.3c0.2-0.2,0.3-0.4,0.3-0.7c0-0.2-0.1-0.5-0.3-0.7
				c-0.2-0.2-0.4-0.3-0.7-0.3c-0.2,0-0.5,0.1-0.7,0.3c-0.2,0.2-0.3,0.4-0.3,0.7c0,0.2,0.1,0.5,0.3,0.7
				C44.9,83.6,45.1,83.7,45.4,83.7z"/>
		</g>
	</g>
	<g>
		<g>
			<path id="C0_0_7389ae8162_39_" class="st19" d="M24,107.6c0.2,0,0.5-0.1,0.7-0.3c0.2-0.2,0.3-0.4,0.3-0.7s-0.1-0.5-0.3-0.7
				c-0.2-0.2-0.4-0.3-0.7-0.3c-0.2,0-0.5,0.1-0.7,0.3c-0.2,0.2-0.3,0.4-0.3,0.7s0.1,0.5,0.3,0.7C23.5,107.5,23.7,107.6,24,107.6z"/>
		</g>
	</g>
	<g>
		<g>
			<path id="C0_0_7389ae8162_40_" class="st11" d="M5.1,128.9c0.2,0,0.5-0.1,0.7-0.3c0.2-0.2,0.3-0.4,0.3-0.7c0-0.2-0.1-0.5-0.3-0.7
				c-0.2-0.2-0.4-0.3-0.7-0.3c-0.2,0-0.5,0.1-0.7,0.3c-0.2,0.2-0.3,0.4-0.3,0.7c0,0.2,0.1,0.5,0.3,0.7
				C4.6,128.8,4.8,128.9,5.1,128.9z"/>
		</g>
	</g>
	<g>
		<g>
			<path id="C0_0_7389ae8162_41_" class="st9" d="M41.8,157.5c0.2,0,0.5-0.1,0.7-0.3s0.3-0.4,0.3-0.7s-0.1-0.5-0.3-0.7
				s-0.4-0.3-0.7-0.3s-0.5,0.1-0.7,0.3s-0.3,0.4-0.3,0.7s0.1,0.5,0.3,0.7S41.6,157.5,41.8,157.5z"/>
		</g>
	</g>
	<g>
		<g>
			<path id="C0_0_7389ae8162_42_" class="st6" d="M23.9,173.1c0.2,0,0.5-0.1,0.7-0.3s0.3-0.4,0.3-0.7s-0.1-0.5-0.3-0.7
				s-0.4-0.3-0.7-0.3c-0.2,0-0.5,0.1-0.7,0.3c-0.2,0.2-0.3,0.4-0.3,0.7s0.1,0.5,0.3,0.7C23.4,173,23.7,173.1,23.9,173.1z"/>
		</g>
	</g>
	<g>
		<g>
			<path id="C0_0_7389ae8162_43_" class="st21" d="M8.2,185.3c0.2,0,0.5-0.1,0.7-0.3c0.2-0.2,0.3-0.4,0.3-0.7c0-0.2-0.1-0.5-0.3-0.7
				c-0.2-0.2-0.4-0.3-0.7-0.3c-0.2,0-0.5,0.1-0.7,0.3c-0.2,0.2-0.3,0.4-0.3,0.7c0,0.2,0.1,0.5,0.3,0.7
				C7.7,185.2,7.9,185.3,8.2,185.3z"/>
		</g>
	</g>
	<g>
		<g>
			<path id="C0_0_7389ae8162_44_" class="st5" d="M29.5,19.6c0.2,0,0.5-0.1,0.7-0.3s0.3-0.4,0.3-0.7s-0.1-0.5-0.3-0.7
				s-0.4-0.3-0.7-0.3S29,17.9,28.8,18s-0.3,0.4-0.3,0.7s0.1,0.5,0.3,0.7S29.2,19.6,29.5,19.6z"/>
		</g>
	</g>
	<g>
		<g>
			<path id="C0_0_7389ae8162_45_" class="st22" d="M73.6,64.9c0.2,0,0.5-0.1,0.7-0.3c0.2-0.2,0.3-0.4,0.3-0.7s-0.1-0.5-0.3-0.7
				c-0.2-0.2-0.4-0.3-0.7-0.3c-0.2,0-0.5,0.1-0.7,0.3c-0.2,0.2-0.3,0.4-0.3,0.7s0.1,0.5,0.3,0.7C73.1,64.8,73.4,64.9,73.6,64.9z"/>
		</g>
	</g>
	<g>
		<g>
			<path id="C0_0_7389ae8162_46_" class="st3" d="M50.6,85.5c0.2,0,0.5-0.1,0.7-0.3c0.2-0.2,0.3-0.4,0.3-0.7c0-0.2-0.1-0.5-0.3-0.7
				c-0.2-0.2-0.4-0.3-0.7-0.3c-0.2,0-0.5,0.1-0.7,0.3c-0.2,0.2-0.3,0.4-0.3,0.7c0,0.2,0.1,0.5,0.3,0.7
				C50.1,85.4,50.3,85.5,50.6,85.5z"/>
		</g>
	</g>
	<g>
		<g>
			<path id="C0_0_7389ae8162_47_" class="st16" d="M29.1,108.2c0.2,0,0.5-0.1,0.7-0.3c0.2-0.2,0.3-0.4,0.3-0.7
				c0-0.2-0.1-0.5-0.3-0.7c-0.2-0.2-0.4-0.3-0.7-0.3c-0.2,0-0.5,0.1-0.7,0.3c-0.2,0.2-0.3,0.4-0.3,0.7c0,0.2,0.1,0.5,0.3,0.7
				C28.6,108.2,28.8,108.2,29.1,108.2z"/>
		</g>
	</g>
	<g>
		<g>
			<path id="C0_0_7389ae8162_48_" class="st11" d="M9.9,129.3c0.2,0,0.5-0.1,0.7-0.3c0.2-0.2,0.3-0.4,0.3-0.7c0-0.2-0.1-0.5-0.3-0.7
				c-0.2-0.2-0.4-0.3-0.7-0.3c-0.2,0-0.5,0.1-0.7,0.3c-0.2,0.2-0.3,0.4-0.3,0.7c0,0.2,0.1,0.5,0.3,0.7
				C9.4,129.2,9.7,129.3,9.9,129.3z"/>
		</g>
	</g>
	<g>
		<g>
			<path id="C0_0_7389ae8162_49_" class="st1" d="M46.2,158.8c0.2,0,0.5-0.1,0.7-0.3c0.2-0.2,0.3-0.4,0.3-0.7c0-0.2-0.1-0.5-0.3-0.7
				c-0.2-0.2-0.4-0.3-0.7-0.3c-0.2,0-0.5,0.1-0.7,0.3c-0.2,0.2-0.3,0.4-0.3,0.7c0,0.2,0.1,0.5,0.3,0.7
				C45.7,158.7,46,158.8,46.2,158.8z"/>
		</g>
	</g>
	<g>
		<g>
			<path id="C0_0_7389ae8162_50_" class="st14" d="M28.3,173.3c0.2,0,0.5-0.1,0.7-0.3c0.2-0.2,0.3-0.4,0.3-0.7
				c0-0.2-0.1-0.5-0.3-0.7c-0.2-0.2-0.4-0.3-0.7-0.3c-0.2,0-0.5,0.1-0.7,0.3c-0.2,0.2-0.3,0.4-0.3,0.7c0,0.2,0.1,0.5,0.3,0.7
				C27.9,173.2,28.1,173.3,28.3,173.3z"/>
		</g>
	</g>
	<g>
		<g>
			<path id="C0_0_7389ae8162_51_" class="st4" d="M11.8,187.9c0.2,0,0.5-0.1,0.7-0.3s0.3-0.4,0.3-0.7s-0.1-0.5-0.3-0.7
				s-0.4-0.3-0.7-0.3c-0.2,0-0.5,0.1-0.7,0.3c-0.2,0.2-0.3,0.4-0.3,0.7s0.1,0.5,0.3,0.7C11.4,187.8,11.6,187.9,11.8,187.9z"/>
		</g>
	</g>
	<g>
		<g>
			<path id="C0_0_7389ae8162_52_" class="st8" d="M35.7,19.9c0.2,0,0.5-0.1,0.7-0.3s0.3-0.4,0.3-0.7c0-0.2-0.1-0.5-0.3-0.7
				C36.2,18.1,36,18,35.7,18c-0.2,0-0.5,0.1-0.7,0.3c-0.2,0.2-0.3,0.4-0.3,0.7c0,0.2,0.1,0.5,0.3,0.7S35.5,19.9,35.7,19.9z"/>
		</g>
	</g>
	<g>
		<g>
			<path id="C0_0_7389ae8162_53_" class="st22" d="M79.6,65.2c0.2,0,0.5-0.1,0.7-0.3c0.2-0.2,0.3-0.4,0.3-0.7c0-0.2-0.1-0.5-0.3-0.7
				c-0.2-0.2-0.4-0.3-0.7-0.3c-0.2,0-0.5,0.1-0.7,0.3c-0.2,0.2-0.3,0.4-0.3,0.7c0,0.2,0.1,0.5,0.3,0.7
				C79.1,65.1,79.3,65.2,79.6,65.2z"/>
		</g>
	</g>
	<g>
		<g>
			<path id="C0_0_7389ae8162_54_" class="st8" d="M55.5,88.2c0.2,0,0.5-0.1,0.7-0.3c0.2-0.2,0.3-0.4,0.3-0.7c0-0.2-0.1-0.5-0.3-0.7
				c-0.2-0.2-0.4-0.3-0.7-0.3c-0.2,0-0.5,0.1-0.7,0.3c-0.2,0.2-0.3,0.4-0.3,0.7c0,0.2,0.1,0.5,0.3,0.7C55,88.1,55.2,88.2,55.5,88.2z
				"/>
		</g>
	</g>
	<g>
		<g>
			<path id="C0_0_7389ae8162_55_" class="st1" d="M33.9,110.3c0.2,0,0.5-0.1,0.7-0.3s0.3-0.4,0.3-0.7s-0.1-0.5-0.3-0.7
				s-0.4-0.3-0.7-0.3s-0.5,0.1-0.7,0.3s-0.3,0.4-0.3,0.7s0.1,0.5,0.3,0.7S33.6,110.3,33.9,110.3z"/>
		</g>
	</g>
	<g>
		<g>
			<path id="C0_0_7389ae8162_56_" class="st10" d="M14.6,130.6c0.2,0,0.5-0.1,0.7-0.3s0.3-0.4,0.3-0.7c0-0.2-0.1-0.5-0.3-0.7
				s-0.4-0.3-0.7-0.3s-0.5,0.1-0.7,0.3s-0.3,0.4-0.3,0.7c0,0.2,0.1,0.5,0.3,0.7S14.3,130.6,14.6,130.6z"/>
		</g>
	</g>
	<g>
		<g>
			<path id="C0_0_7389ae8162_57_" class="st9" d="M51,158.8c0.2,0,0.5-0.1,0.7-0.3s0.3-0.4,0.3-0.7s-0.1-0.5-0.3-0.7
				S51.2,157,51,157s-0.5,0.1-0.7,0.3s-0.3,0.4-0.3,0.7s0.1,0.5,0.3,0.7S50.7,158.8,51,158.8z"/>
		</g>
	</g>
	<g>
		<g>
			<path id="C0_0_7389ae8162_58_" class="st19" d="M32.3,175.3c0.2,0,0.5-0.1,0.7-0.3s0.3-0.4,0.3-0.7s-0.1-0.5-0.3-0.7
				s-0.4-0.3-0.7-0.3c-0.2,0-0.5,0.1-0.7,0.3s-0.3,0.4-0.3,0.7s0.1,0.5,0.3,0.7S32.1,175.3,32.3,175.3z"/>
		</g>
	</g>
	<g>
		<g>
			<path id="C0_0_7389ae8162_59_" class="st4" d="M16.1,188c0.2,0,0.5-0.1,0.7-0.3s0.3-0.4,0.3-0.7s-0.1-0.5-0.3-0.7
				s-0.4-0.3-0.7-0.3c-0.2,0-0.5,0.1-0.7,0.3c-0.2,0.2-0.3,0.4-0.3,0.7s0.1,0.5,0.3,0.7C15.6,187.9,15.8,188,16.1,188z"/>
		</g>
	</g>
	<g>
		<g>
			<path id="C0_0_7389ae8162_60_" class="st8" d="M41.9,20.6c0.2,0,0.5-0.1,0.7-0.3s0.3-0.4,0.3-0.7s-0.1-0.5-0.3-0.7
				s-0.4-0.3-0.7-0.3c-0.2,0-0.5,0.1-0.7,0.3S41,19.4,41,19.7s0.1,0.5,0.3,0.7S41.6,20.6,41.9,20.6z"/>
		</g>
	</g>
	<g>
		<g>
			<path id="C0_0_7389ae8162_61_" class="st20" d="M85.5,65.6c0.2,0,0.5-0.1,0.7-0.3c0.2-0.2,0.3-0.4,0.3-0.7s-0.1-0.5-0.3-0.7
				c-0.2-0.2-0.4-0.3-0.7-0.3c-0.2,0-0.5,0.1-0.7,0.3c-0.2,0.2-0.3,0.4-0.3,0.7s0.1,0.5,0.3,0.7C85,65.5,85.3,65.6,85.5,65.6z"/>
		</g>
	</g>
	<g>
		<g>
			<path id="C0_0_7389ae8162_62_" class="st13" d="M60.6,90.1c0.2,0,0.5-0.1,0.7-0.3c0.2-0.2,0.3-0.4,0.3-0.7c0-0.2-0.1-0.5-0.3-0.7
				c-0.2-0.2-0.4-0.3-0.7-0.3c-0.2,0-0.5,0.1-0.7,0.3c-0.2,0.2-0.3,0.4-0.3,0.7c0,0.2,0.1,0.5,0.3,0.7
				C60.1,90.1,60.3,90.1,60.6,90.1z"/>
		</g>
	</g>
	<g>
		<g>
			<path id="C0_0_7389ae8162_63_" class="st1" d="M38.9,111c0.2,0,0.5-0.1,0.7-0.3c0.2-0.2,0.3-0.4,0.3-0.7c0-0.2-0.1-0.5-0.3-0.7
				c-0.2-0.2-0.4-0.3-0.7-0.3c-0.2,0-0.5,0.1-0.7,0.3c-0.2,0.2-0.3,0.4-0.3,0.7c0,0.2,0.1,0.5,0.3,0.7C38.5,110.9,38.7,111,38.9,111
				z"/>
		</g>
	</g>
	<g>
		<g>
			<path id="C0_0_7389ae8162_64_" class="st10" d="M19.6,130.2c0.2,0,0.5-0.1,0.7-0.3s0.3-0.4,0.3-0.7s-0.1-0.5-0.3-0.7
				s-0.4-0.3-0.7-0.3s-0.5,0.1-0.7,0.3s-0.3,0.4-0.3,0.7s0.1,0.5,0.3,0.7S19.3,130.2,19.6,130.2z"/>
		</g>
	</g>
	<g>
		<g>
			<path id="C0_0_7389ae8162_65_" class="st2" d="M55.2,160.6c0.2,0,0.5-0.1,0.7-0.3s0.3-0.4,0.3-0.7c0-0.2-0.1-0.5-0.3-0.7
				s-0.4-0.3-0.7-0.3c-0.2,0-0.5,0.1-0.7,0.3s-0.3,0.4-0.3,0.7c0,0.2,0.1,0.5,0.3,0.7S55,160.6,55.2,160.6z"/>
		</g>
	</g>
	<g>
		<g>
			<path id="C0_0_7389ae8162_66_" class="st6" d="M36.9,175.1c0.2,0,0.5-0.1,0.7-0.3c0.2-0.2,0.3-0.4,0.3-0.7c0-0.2-0.1-0.5-0.3-0.7
				c-0.2-0.2-0.4-0.3-0.7-0.3c-0.2,0-0.5,0.1-0.7,0.3c-0.2,0.2-0.3,0.4-0.3,0.7c0,0.2,0.1,0.5,0.3,0.7
				C36.4,175,36.6,175.1,36.9,175.1z"/>
		</g>
	</g>
	<g>
		<g>
			<path id="C0_0_7389ae8162_67_" class="st11" d="M19.8,190.2c0.2,0,0.5-0.1,0.7-0.3c0.2-0.2,0.3-0.4,0.3-0.7
				c0-0.2-0.1-0.5-0.3-0.7c-0.2-0.2-0.4-0.3-0.7-0.3c-0.2,0-0.5,0.1-0.7,0.3c-0.2,0.2-0.3,0.4-0.3,0.7c0,0.2,0.1,0.5,0.3,0.7
				C19.3,190.1,19.5,190.2,19.8,190.2z"/>
		</g>
	</g>
	<g>
		<g>
			<path id="C0_0_7389ae8162_68_" class="st8" d="M48.2,21c0.2,0,0.5-0.1,0.7-0.3s0.3-0.4,0.3-0.7s-0.1-0.5-0.3-0.7
				s-0.4-0.3-0.7-0.3c-0.2,0-0.5,0.1-0.7,0.3s-0.3,0.4-0.3,0.7s0.1,0.5,0.3,0.7S47.9,21,48.2,21z"/>
		</g>
	</g>
	<g>
		<g>
			<path id="C0_0_7389ae8162_69_" class="st23" d="M90.7,68.3c0.2,0,0.5-0.1,0.7-0.3c0.2-0.2,0.3-0.4,0.3-0.7s-0.1-0.5-0.3-0.7
				c-0.2-0.2-0.4-0.3-0.7-0.3s-0.5,0.1-0.7,0.3c-0.2,0.2-0.3,0.4-0.3,0.7s0.1,0.5,0.3,0.7C90.2,68.2,90.5,68.3,90.7,68.3z"/>
		</g>
	</g>
	<g>
		<g>
			<path id="C0_0_7389ae8162_70_" class="st13" d="M65.9,91.3c0.2,0,0.5-0.1,0.7-0.3c0.2-0.2,0.3-0.4,0.3-0.7s-0.1-0.5-0.3-0.7
				c-0.2-0.2-0.4-0.3-0.7-0.3c-0.2,0-0.5,0.1-0.7,0.3c-0.2,0.2-0.3,0.4-0.3,0.7s0.1,0.5,0.3,0.7C65.4,91.2,65.7,91.3,65.9,91.3z"/>
		</g>
	</g>
	<g>
		<g>
			<path id="C0_0_7389ae8162_71_" class="st2" d="M43.9,112.2c0.2,0,0.5-0.1,0.7-0.3c0.2-0.2,0.3-0.4,0.3-0.7s-0.1-0.5-0.3-0.7
				c-0.2-0.2-0.4-0.3-0.7-0.3s-0.5,0.1-0.7,0.3c-0.2,0.2-0.3,0.4-0.3,0.7s0.1,0.5,0.3,0.7C43.4,112.1,43.7,112.2,43.9,112.2z"/>
		</g>
	</g>
	<g>
		<g>
			<path id="C0_0_7389ae8162_72_" class="st14" d="M24.2,131.6c0.2,0,0.5-0.1,0.7-0.3c0.2-0.2,0.3-0.4,0.3-0.7
				c0-0.2-0.1-0.5-0.3-0.7c-0.2-0.2-0.4-0.3-0.7-0.3c-0.2,0-0.5,0.1-0.7,0.3c-0.2,0.2-0.3,0.4-0.3,0.7c0,0.2,0.1,0.5,0.3,0.7
				C23.7,131.5,24,131.6,24.2,131.6z"/>
		</g>
	</g>
	<g>
		<g>
			<path id="C0_0_7389ae8162_73_" class="st2" d="M59.6,162.1c0.2,0,0.5-0.1,0.7-0.3s0.3-0.4,0.3-0.7s-0.1-0.5-0.3-0.7
				s-0.4-0.3-0.7-0.3s-0.5,0.1-0.7,0.3s-0.3,0.4-0.3,0.7s0.1,0.5,0.3,0.7S59.3,162.1,59.6,162.1z"/>
		</g>
	</g>
	<g>
		<g>
			<path id="C0_0_7389ae8162_74_" class="st19" d="M40.9,176.7c0.2,0,0.5-0.1,0.7-0.3c0.2-0.2,0.3-0.4,0.3-0.7
				c0-0.2-0.1-0.5-0.3-0.7c-0.2-0.2-0.4-0.3-0.7-0.3c-0.2,0-0.5,0.1-0.7,0.3c-0.2,0.2-0.3,0.4-0.3,0.7c0,0.2,0.1,0.5,0.3,0.7
				C40.4,176.6,40.7,176.7,40.9,176.7z"/>
		</g>
	</g>
	<g>
		<g>
			<path id="C0_0_7389ae8162_75_" class="st7" d="M24.1,190c0.2,0,0.5-0.1,0.7-0.3s0.3-0.4,0.3-0.7s-0.1-0.5-0.3-0.7
				s-0.4-0.3-0.7-0.3s-0.5,0.1-0.7,0.3s-0.3,0.4-0.3,0.7s0.1,0.5,0.3,0.7S23.8,190,24.1,190z"/>
		</g>
	</g>
	<g>
		<g>
			<path id="C0_0_7389ae8162_76_" class="st21" d="M8.5,203.3c0.2,0,0.5-0.1,0.7-0.3c0.2-0.2,0.3-0.4,0.3-0.7c0-0.2-0.1-0.5-0.3-0.7
				c-0.2-0.2-0.4-0.3-0.7-0.3c-0.2,0-0.5,0.1-0.7,0.3c-0.2,0.2-0.3,0.4-0.3,0.7c0,0.2,0.1,0.5,0.3,0.7C8,203.2,8.2,203.3,8.5,203.3z
				"/>
		</g>
	</g>
	<g>
		<g>
			<path id="C0_0_7389ae8162_77_" class="st13" d="M54.1,22.8c0.2,0,0.5-0.1,0.7-0.3s0.3-0.4,0.3-0.7s-0.1-0.5-0.3-0.7
				s-0.4-0.3-0.7-0.3c-0.2,0-0.5,0.1-0.7,0.3s-0.3,0.4-0.3,0.7s0.1,0.5,0.3,0.7S53.9,22.8,54.1,22.8z"/>
		</g>
	</g>
	<g>
		<g>
			<path id="C0_0_7389ae8162_78_" class="st24" d="M95.9,71c0.2,0,0.5-0.1,0.7-0.3c0.2-0.2,0.3-0.4,0.3-0.7c0-0.2-0.1-0.5-0.3-0.7
				c-0.2-0.2-0.4-0.3-0.7-0.3c-0.2,0-0.5,0.1-0.7,0.3C95.1,69.6,95,69.8,95,70c0,0.2,0.1,0.5,0.3,0.7C95.4,70.9,95.7,71,95.9,71z"/>
		</g>
	</g>
	<g>
		<g>
			<path id="C0_0_7389ae8162_79_" class="st25" d="M70.9,93.7c0.2,0,0.5-0.1,0.7-0.3c0.2-0.2,0.3-0.4,0.3-0.7c0-0.2-0.1-0.5-0.3-0.7
				c-0.2-0.2-0.4-0.3-0.7-0.3c-0.2,0-0.5,0.1-0.7,0.3c-0.2,0.2-0.3,0.4-0.3,0.7c0,0.2,0.1,0.5,0.3,0.7
				C70.4,93.6,70.6,93.7,70.9,93.7z"/>
		</g>
	</g>
	<g>
		<g>
			<path id="C0_0_7389ae8162_80_" class="st1" d="M49.2,112.2c0.2,0,0.5-0.1,0.7-0.3c0.2-0.2,0.3-0.4,0.3-0.7c0-0.2-0.1-0.5-0.3-0.7
				c-0.2-0.2-0.4-0.3-0.7-0.3c-0.2,0-0.5,0.1-0.7,0.3c-0.2,0.2-0.3,0.4-0.3,0.7c0,0.2,0.1,0.5,0.3,0.7
				C48.7,112.1,49,112.2,49.2,112.2z"/>
		</g>
	</g>
	<g>
		<g>
			<path id="C0_0_7389ae8162_81_" class="st6" d="M28.8,133.1c0.2,0,0.5-0.1,0.7-0.3s0.3-0.4,0.3-0.7c0-0.2-0.1-0.5-0.3-0.7
				s-0.4-0.3-0.7-0.3s-0.5,0.1-0.7,0.3s-0.3,0.4-0.3,0.7c0,0.2,0.1,0.5,0.3,0.7S28.6,133.1,28.8,133.1z"/>
		</g>
	</g>
	<g>
		<g>
			<path id="C0_0_7389ae8162_82_" class="st0" d="M63.9,163.5c0.2,0,0.5-0.1,0.7-0.3c0.2-0.2,0.3-0.4,0.3-0.7c0-0.2-0.1-0.5-0.3-0.7
				c-0.2-0.2-0.4-0.3-0.7-0.3s-0.5,0.1-0.7,0.3c-0.2,0.2-0.3,0.4-0.3,0.7c0,0.2,0.1,0.5,0.3,0.7C63.4,163.4,63.7,163.5,63.9,163.5z"
				/>
		</g>
	</g>
	<g>
		<g>
			<path id="C0_0_7389ae8162_83_" class="st14" d="M45.7,175.8c0.2,0,0.5-0.1,0.7-0.3c0.2-0.2,0.3-0.4,0.3-0.7
				c0-0.2-0.1-0.5-0.3-0.7c-0.2-0.2-0.4-0.3-0.7-0.3c-0.2,0-0.5,0.1-0.7,0.3c-0.2,0.2-0.3,0.4-0.3,0.7c0,0.2,0.1,0.5,0.3,0.7
				C45.3,175.7,45.5,175.8,45.7,175.8z"/>
		</g>
	</g>
	<g>
		<g>
			<path id="C0_0_7389ae8162_84_" class="st14" d="M27.7,192.3c0.2,0,0.5-0.1,0.7-0.3s0.3-0.4,0.3-0.7s-0.1-0.5-0.3-0.7
				s-0.4-0.3-0.7-0.3s-0.5,0.1-0.7,0.3s-0.3,0.4-0.3,0.7s0.1,0.5,0.3,0.7S27.5,192.3,27.7,192.3z"/>
		</g>
	</g>
	<g>
		<g>
			<path id="C0_0_7389ae8162_85_" class="st17" d="M59.7,26c0.2,0,0.5-0.1,0.7-0.3c0.2-0.2,0.3-0.4,0.3-0.7c0-0.2-0.1-0.5-0.3-0.7
				s-0.4-0.3-0.7-0.3s-0.5,0.1-0.7,0.3s-0.3,0.4-0.3,0.7c0,0.2,0.1,0.5,0.3,0.7C59.2,25.9,59.5,26,59.7,26z"/>
		</g>
	</g>
	<g>
		<g>
			<path id="C0_0_7389ae8162_86_" class="st26" d="M102,71.2c0.2,0,0.5-0.1,0.7-0.3c0.2-0.2,0.3-0.4,0.3-0.7c0-0.2-0.1-0.5-0.3-0.7
				c-0.2-0.2-0.4-0.3-0.7-0.3c-0.2,0-0.5,0.1-0.7,0.3c-0.2,0.2-0.3,0.4-0.3,0.7c0,0.2,0.1,0.5,0.3,0.7
				C101.5,71.1,101.7,71.2,102,71.2z"/>
		</g>
	</g>
	<g>
		<g>
			<path id="C0_0_7389ae8162_87_" class="st25" d="M76.3,94.5c0.2,0,0.5-0.1,0.7-0.3c0.2-0.2,0.3-0.4,0.3-0.7c0-0.2-0.1-0.5-0.3-0.7
				c-0.2-0.2-0.4-0.3-0.7-0.3c-0.2,0-0.5,0.1-0.7,0.3c-0.2,0.2-0.3,0.4-0.3,0.7c0,0.2,0.1,0.5,0.3,0.7
				C75.8,94.4,76.1,94.5,76.3,94.5z"/>
		</g>
	</g>
	<g>
		<g>
			<path id="C0_0_7389ae8162_88_" class="st18" d="M53.8,114.9c0.2,0,0.5-0.1,0.7-0.3c0.2-0.2,0.3-0.4,0.3-0.7
				c0-0.2-0.1-0.5-0.3-0.7c-0.2-0.2-0.4-0.3-0.7-0.3c-0.2,0-0.5,0.1-0.7,0.3c-0.2,0.2-0.3,0.4-0.3,0.7c0,0.2,0.1,0.5,0.3,0.7
				C53.3,114.8,53.5,114.9,53.8,114.9z"/>
		</g>
	</g>
	<g>
		<g>
			<path id="C0_0_7389ae8162_89_" class="st6" d="M33.7,133.3c0.2,0,0.5-0.1,0.7-0.3s0.3-0.4,0.3-0.7s-0.1-0.5-0.3-0.7
				s-0.4-0.3-0.7-0.3c-0.2,0-0.5,0.1-0.7,0.3s-0.3,0.4-0.3,0.7s0.1,0.5,0.3,0.7S33.5,133.3,33.7,133.3z"/>
		</g>
	</g>
	<g>
		<g>
			<path id="C0_0_7389ae8162_90_" class="st0" d="M68.5,164.2c0.2,0,0.5-0.1,0.7-0.3c0.2-0.2,0.3-0.4,0.3-0.7c0-0.2-0.1-0.5-0.3-0.7
				c-0.2-0.2-0.4-0.3-0.7-0.3s-0.5,0.1-0.7,0.3c-0.2,0.2-0.3,0.4-0.3,0.7c0,0.2,0.1,0.5,0.3,0.7C68.1,164.1,68.3,164.2,68.5,164.2z"
				/>
		</g>
	</g>
	<g>
		<g>
			<path id="C0_0_7389ae8162_91_" class="st9" d="M49.1,179.7c0.2,0,0.5-0.1,0.7-0.3c0.2-0.2,0.3-0.4,0.3-0.7c0-0.2-0.1-0.5-0.3-0.7
				c-0.2-0.2-0.4-0.3-0.7-0.3c-0.2,0-0.5,0.1-0.7,0.3c-0.2,0.2-0.3,0.4-0.3,0.7c0,0.2,0.1,0.5,0.3,0.7
				C48.6,179.6,48.8,179.7,49.1,179.7z"/>
		</g>
	</g>
	<g>
		<g>
			<path id="C0_0_7389ae8162_92_" class="st10" d="M31.9,192.5c0.2,0,0.5-0.1,0.7-0.3s0.3-0.4,0.3-0.7c0-0.2-0.1-0.5-0.3-0.7
				s-0.4-0.3-0.7-0.3s-0.5,0.1-0.7,0.3s-0.3,0.4-0.3,0.7c0,0.2,0.1,0.5,0.3,0.7S31.7,192.5,31.9,192.5z"/>
		</g>
	</g>
	<g>
		<g>
			<path id="C0_0_7389ae8162_93_" class="st27" d="M16.2,204.6c0.2,0,0.5-0.1,0.7-0.3c0.2-0.2,0.3-0.4,0.3-0.7
				c0-0.2-0.1-0.5-0.3-0.7c-0.2-0.2-0.4-0.3-0.7-0.3c-0.2,0-0.5,0.1-0.7,0.3s-0.3,0.4-0.3,0.7c0,0.2,0.1,0.5,0.3,0.7
				C15.7,204.5,16,204.6,16.2,204.6z"/>
		</g>
	</g>
	<g>
		<g>
			<path id="C0_0_7389ae8162_94_" class="st17" d="M65.9,26.7c0.2,0,0.5-0.1,0.7-0.3c0.2-0.2,0.3-0.4,0.3-0.7s-0.1-0.5-0.3-0.7
				c-0.2-0.2-0.4-0.3-0.7-0.3c-0.2,0-0.5,0.1-0.7,0.3c-0.2,0.2-0.3,0.4-0.3,0.7s0.1,0.5,0.3,0.7C65.5,26.6,65.7,26.7,65.9,26.7z"/>
		</g>
	</g>
	<g>
		<g>
			<path id="C0_0_7389ae8162_95_" class="st28" d="M106.8,74.9c0.2,0,0.5-0.1,0.7-0.3c0.2-0.2,0.3-0.4,0.3-0.7
				c0-0.2-0.1-0.5-0.3-0.7c-0.2-0.2-0.4-0.3-0.7-0.3c-0.2,0-0.5,0.1-0.7,0.3c-0.2,0.2-0.3,0.4-0.3,0.7c0,0.2,0.1,0.5,0.3,0.7
				C106.3,74.8,106.5,74.9,106.8,74.9z"/>
		</g>
	</g>
	<g>
		<g>
			<path id="C0_0_7389ae8162_96_" class="st29" d="M81.3,96.6c0.2,0,0.5-0.1,0.7-0.3c0.2-0.2,0.3-0.4,0.3-0.7S82.2,95.1,82,95
				c-0.2-0.2-0.4-0.3-0.7-0.3c-0.2,0-0.5,0.1-0.7,0.3c-0.2,0.2-0.3,0.4-0.3,0.7s0.1,0.5,0.3,0.7C80.8,96.5,81.1,96.6,81.3,96.6z"/>
		</g>
	</g>
	<g>
		<g>
			<path id="C0_0_7389ae8162_97_" class="st18" d="M58.8,115.9c0.2,0,0.5-0.1,0.7-0.3c0.2-0.2,0.3-0.4,0.3-0.7
				c0-0.2-0.1-0.5-0.3-0.7c-0.2-0.2-0.4-0.3-0.7-0.3c-0.2,0-0.5,0.1-0.7,0.3c-0.2,0.2-0.3,0.4-0.3,0.7c0,0.2,0.1,0.5,0.3,0.7
				C58.3,115.8,58.6,115.9,58.8,115.9z"/>
		</g>
	</g>
	<g>
		<g>
			<path id="C0_0_7389ae8162_98_" class="st19" d="M38.4,134.5c0.2,0,0.5-0.1,0.7-0.3s0.3-0.4,0.3-0.7s-0.1-0.5-0.3-0.7
				s-0.4-0.3-0.7-0.3c-0.2,0-0.5,0.1-0.7,0.3s-0.3,0.4-0.3,0.7s0.1,0.5,0.3,0.7S38.2,134.5,38.4,134.5z"/>
		</g>
	</g>
	<g>
		<g>
			<path id="C0_0_7389ae8162_99_" class="st18" d="M72.8,165.8c0.2,0,0.5-0.1,0.7-0.3c0.2-0.2,0.3-0.4,0.3-0.7
				c0-0.2-0.1-0.5-0.3-0.7c-0.2-0.2-0.4-0.3-0.7-0.3s-0.5,0.1-0.7,0.3c-0.2,0.2-0.3,0.4-0.3,0.7c0,0.2,0.1,0.5,0.3,0.7
				C72.4,165.7,72.6,165.8,72.8,165.8z"/>
		</g>
	</g>
	<g>
		<g>
			<path id="C0_0_7389ae8162_100_" class="st9" d="M53.5,180.3c0.2,0,0.5-0.1,0.7-0.3c0.2-0.2,0.3-0.4,0.3-0.7
				c0-0.2-0.1-0.5-0.3-0.7c-0.2-0.2-0.4-0.3-0.7-0.3s-0.5,0.1-0.7,0.3c-0.2,0.2-0.3,0.4-0.3,0.7c0,0.2,0.1,0.5,0.3,0.7
				C53,180.2,53.2,180.3,53.5,180.3z"/>
		</g>
	</g>
	<g>
		<g>
			<path id="C0_0_7389ae8162_101_" class="st11" d="M36.3,192.3c0.2,0,0.5-0.1,0.7-0.3s0.3-0.4,0.3-0.7s-0.1-0.5-0.3-0.7
				s-0.4-0.3-0.7-0.3s-0.5,0.1-0.7,0.3s-0.3,0.4-0.3,0.7s0.1,0.5,0.3,0.7S36,192.3,36.3,192.3z"/>
		</g>
	</g>
	<g>
		<g>
			<path id="C0_0_7389ae8162_102_" class="st20" d="M71.5,30c0.2,0,0.5-0.1,0.7-0.3c0.2-0.2,0.3-0.4,0.3-0.7s-0.1-0.5-0.3-0.7
				c-0.2-0.2-0.4-0.3-0.7-0.3s-0.5,0.1-0.7,0.3c-0.2,0.2-0.3,0.4-0.3,0.7s0.1,0.5,0.3,0.7C71,29.9,71.2,30,71.5,30z"/>
		</g>
	</g>
	<g>
		<g>
			<path id="C0_0_7389ae8162_103_" class="st30" d="M112.3,76.6c0.2,0,0.5-0.1,0.7-0.3c0.2-0.2,0.3-0.4,0.3-0.7
				c0-0.2-0.1-0.5-0.3-0.7c-0.2-0.2-0.4-0.3-0.7-0.3s-0.5,0.1-0.7,0.3c-0.2,0.2-0.3,0.4-0.3,0.7c0,0.2,0.1,0.5,0.3,0.7
				C111.9,76.5,112.1,76.6,112.3,76.6z"/>
		</g>
	</g>
	<g>
		<g>
			<path id="C0_0_7389ae8162_104_" class="st29" d="M86.6,97.9c0.2,0,0.5-0.1,0.7-0.3c0.2-0.2,0.3-0.4,0.3-0.7
				c0-0.2-0.1-0.5-0.3-0.7c-0.2-0.2-0.4-0.3-0.7-0.3s-0.5,0.1-0.7,0.3c-0.2,0.2-0.3,0.4-0.3,0.7c0,0.2,0.1,0.5,0.3,0.7
				C86.1,97.8,86.4,97.9,86.6,97.9z"/>
		</g>
	</g>
	<g>
		<g>
			<path id="C0_0_7389ae8162_105_" class="st5" d="M63.4,118.2c0.2,0,0.5-0.1,0.7-0.3c0.2-0.2,0.3-0.4,0.3-0.7
				c0-0.2-0.1-0.5-0.3-0.7c-0.2-0.2-0.4-0.3-0.7-0.3c-0.2,0-0.5,0.1-0.7,0.3c-0.2,0.2-0.3,0.4-0.3,0.7c0,0.2,0.1,0.5,0.3,0.7
				C63,118.1,63.2,118.2,63.4,118.2z"/>
		</g>
	</g>
	<g>
		<g>
			<path id="C0_0_7389ae8162_106_" class="st16" d="M43.1,135.7c0.2,0,0.5-0.1,0.7-0.3c0.2-0.2,0.3-0.4,0.3-0.7
				c0-0.2-0.1-0.5-0.3-0.7c-0.2-0.2-0.4-0.3-0.7-0.3s-0.5,0.1-0.7,0.3c-0.2,0.2-0.3,0.4-0.3,0.7c0,0.2,0.1,0.5,0.3,0.7
				C42.6,135.6,42.8,135.7,43.1,135.7z"/>
		</g>
	</g>
	<g>
		<g>
			<path id="C0_0_7389ae8162_107_" class="st8" d="M76.4,169.2c0.2,0,0.5-0.1,0.7-0.3c0.2-0.2,0.3-0.4,0.3-0.7
				c0-0.2-0.1-0.5-0.3-0.7c-0.2-0.2-0.4-0.3-0.7-0.3s-0.5,0.1-0.7,0.3c-0.2,0.2-0.3,0.4-0.3,0.7c0,0.2,0.1,0.5,0.3,0.7
				C76,169.1,76.2,169.2,76.4,169.2z"/>
		</g>
	</g>
	<g>
		<g>
			<path id="C0_0_7389ae8162_108_" class="st1" d="M57.4,182c0.2,0,0.5-0.1,0.7-0.3c0.2-0.2,0.3-0.4,0.3-0.7c0-0.2-0.1-0.5-0.3-0.7
				c-0.2-0.2-0.4-0.3-0.7-0.3s-0.5,0.1-0.7,0.3c-0.2,0.2-0.3,0.4-0.3,0.7c0,0.2,0.1,0.5,0.3,0.7C56.9,181.9,57.2,182,57.4,182z"/>
		</g>
	</g>
	<g>
		<g>
			<path id="C0_0_7389ae8162_109_" class="st14" d="M40,194.4c0.2,0,0.5-0.1,0.7-0.3c0.2-0.2,0.3-0.4,0.3-0.7c0-0.2-0.1-0.5-0.3-0.7
				c-0.2-0.2-0.4-0.3-0.7-0.3c-0.2,0-0.5,0.1-0.7,0.3c-0.2,0.2-0.3,0.4-0.3,0.7c0,0.2,0.1,0.5,0.3,0.7
				C39.5,194.3,39.7,194.4,40,194.4z"/>
		</g>
	</g>
	<g>
		<g>
			<path id="C0_0_7389ae8162_110_" class="st20" d="M77.8,30.4c0.2,0,0.5-0.1,0.7-0.3c0.2-0.2,0.3-0.4,0.3-0.7
				c0-0.2-0.1-0.5-0.3-0.7c-0.2-0.2-0.4-0.3-0.7-0.3c-0.2,0-0.5,0.1-0.7,0.3c-0.2,0.2-0.3,0.4-0.3,0.7c0,0.2,0.1,0.5,0.3,0.7
				C77.3,30.3,77.5,30.4,77.8,30.4z"/>
		</g>
	</g>
	<g>
		<g>
			<path id="C0_0_7389ae8162_111_" class="st31" d="M115.9,83.1c0.2,0,0.5-0.1,0.7-0.3c0.2-0.2,0.3-0.4,0.3-0.7
				c0-0.2-0.1-0.5-0.3-0.7c-0.2-0.2-0.4-0.3-0.7-0.3s-0.5,0.1-0.7,0.3c-0.2,0.2-0.3,0.4-0.3,0.7c0,0.2,0.1,0.5,0.3,0.7
				C115.5,83,115.7,83.1,115.9,83.1z"/>
		</g>
	</g>
	<g>
		<g>
			<path id="C0_0_7389ae8162_112_" class="st29" d="M92,98.9c0.2,0,0.5-0.1,0.7-0.3c0.2-0.2,0.3-0.4,0.3-0.7s-0.1-0.5-0.3-0.7
				C92.5,97.1,92.3,97,92,97s-0.5,0.1-0.7,0.3c-0.2,0.2-0.3,0.4-0.3,0.7s0.1,0.5,0.3,0.7C91.6,98.8,91.8,98.9,92,98.9z"/>
		</g>
	</g>
	<g>
		<g>
			<path id="C0_0_7389ae8162_113_" class="st5" d="M68.5,119.3c0.2,0,0.5-0.1,0.7-0.3c0.2-0.2,0.3-0.4,0.3-0.7s-0.1-0.5-0.3-0.7
				c-0.2-0.2-0.4-0.3-0.7-0.3c-0.2,0-0.5,0.1-0.7,0.3c-0.2,0.2-0.3,0.4-0.3,0.7s0.1,0.5,0.3,0.7C68,119.2,68.2,119.3,68.5,119.3z"/>
		</g>
	</g>
	<g>
		<g>
			<path id="C0_0_7389ae8162_114_" class="st1" d="M47.5,137.9c0.2,0,0.5-0.1,0.7-0.3s0.3-0.4,0.3-0.7c0-0.2-0.1-0.5-0.3-0.7
				s-0.4-0.3-0.7-0.3c-0.2,0-0.5,0.1-0.7,0.3s-0.3,0.4-0.3,0.7c0,0.2,0.1,0.5,0.3,0.7S47.2,137.9,47.5,137.9z"/>
		</g>
	</g>
	<g>
		<g>
			<path id="C0_0_7389ae8162_115_" class="st12" d="M80.7,170.9c0.2,0,0.5-0.1,0.7-0.3c0.2-0.2,0.3-0.4,0.3-0.7
				c0-0.2-0.1-0.5-0.3-0.7c-0.2-0.2-0.4-0.3-0.7-0.3s-0.5,0.1-0.7,0.3s-0.3,0.4-0.3,0.7c0,0.2,0.1,0.5,0.3,0.7
				S80.4,170.9,80.7,170.9z"/>
		</g>
	</g>
	<g>
		<g>
			<path id="C0_0_7389ae8162_116_" class="st9" d="M62,182.3c0.2,0,0.5-0.1,0.7-0.3s0.3-0.4,0.3-0.7c0-0.2-0.1-0.5-0.3-0.7
				s-0.4-0.3-0.7-0.3s-0.5,0.1-0.7,0.3s-0.3,0.4-0.3,0.7c0,0.2,0.1,0.5,0.3,0.7S61.7,182.3,62,182.3z"/>
		</g>
	</g>
	<g>
		<g>
			<path id="C0_0_7389ae8162_117_" class="st14" d="M44.1,195.2c0.2,0,0.5-0.1,0.7-0.3c0.2-0.2,0.3-0.4,0.3-0.7
				c0-0.2-0.1-0.5-0.3-0.7c-0.2-0.2-0.4-0.3-0.7-0.3c-0.2,0-0.5,0.1-0.7,0.3c-0.2,0.2-0.3,0.4-0.3,0.7c0,0.2,0.1,0.5,0.3,0.7
				C43.6,195.1,43.8,195.2,44.1,195.2z"/>
		</g>
	</g>
	<g>
		<g>
			<path id="C0_0_7389ae8162_118_" class="st31" d="M113.2,1.9c0.2,0,0.5-0.1,0.7-0.3c0.2-0.2,0.3-0.4,0.3-0.7s-0.1-0.5-0.3-0.7
				c-0.2-0.2-0.4-0.3-0.7-0.3c-0.2,0-0.5,0.1-0.7,0.3c-0.2,0.2-0.3,0.4-0.3,0.7s0.1,0.5,0.3,0.7C112.7,1.8,112.9,1.9,113.2,1.9z"/>
		</g>
	</g>
	<g>
		<g>
			<path id="C0_0_7389ae8162_119_" class="st23" d="M83.5,32.9c0.2,0,0.5-0.1,0.7-0.3c0.2-0.2,0.3-0.4,0.3-0.7s-0.1-0.5-0.3-0.7
				c-0.2-0.2-0.4-0.3-0.7-0.3c-0.2,0-0.5,0.1-0.7,0.3c-0.2,0.2-0.3,0.4-0.3,0.7s0.1,0.5,0.3,0.7C83,32.8,83.2,32.9,83.5,32.9z"/>
		</g>
	</g>
	<g>
		<g>
			<path id="C0_0_7389ae8162_120_" class="st32" d="M116.3,97c0.2,0,0.5-0.1,0.7-0.3c0.2-0.2,0.3-0.4,0.3-0.7c0-0.2-0.1-0.5-0.3-0.7
				c-0.2-0.2-0.4-0.3-0.7-0.3c-0.2,0-0.5,0.1-0.7,0.3c-0.2,0.2-0.3,0.4-0.3,0.7c0,0.2,0.1,0.5,0.3,0.7C115.8,96.9,116,97,116.3,97z"
				/>
		</g>
	</g>
	<g>
		<g>
			<path id="C0_0_7389ae8162_121_" class="st22" d="M96.7,102c0.2,0,0.5-0.1,0.7-0.3c0.2-0.2,0.3-0.4,0.3-0.7s-0.1-0.5-0.3-0.7
				c-0.2-0.2-0.4-0.3-0.7-0.3c-0.2,0-0.5,0.1-0.7,0.3c-0.2,0.2-0.3,0.4-0.3,0.7s0.1,0.5,0.3,0.7C96.2,101.9,96.4,102,96.7,102z"/>
		</g>
	</g>
	<g>
		<g>
			<path id="C0_0_7389ae8162_122_" class="st3" d="M73.9,119.2c0.2,0,0.5-0.1,0.7-0.3c0.2-0.2,0.3-0.4,0.3-0.7
				c0-0.2-0.1-0.5-0.3-0.7c-0.2-0.2-0.4-0.3-0.7-0.3s-0.5,0.1-0.7,0.3c-0.2,0.2-0.3,0.4-0.3,0.7c0,0.2,0.1,0.5,0.3,0.7
				C73.4,119.1,73.7,119.2,73.9,119.2z"/>
		</g>
	</g>
	<g>
		<g>
			<path id="C0_0_7389ae8162_123_" class="st2" d="M52.1,139.3c0.2,0,0.5-0.1,0.7-0.3s0.3-0.4,0.3-0.7s-0.1-0.5-0.3-0.7
				s-0.4-0.3-0.7-0.3s-0.5,0.1-0.7,0.3s-0.3,0.4-0.3,0.7s0.1,0.5,0.3,0.7S51.9,139.3,52.1,139.3z"/>
		</g>
	</g>
	<g>
		<g>
			<path id="C0_0_7389ae8162_124_" class="st12" d="M85.1,172.3c0.2,0,0.5-0.1,0.7-0.3c0.2-0.2,0.3-0.4,0.3-0.7
				c0-0.2-0.1-0.5-0.3-0.7c-0.2-0.2-0.4-0.3-0.7-0.3c-0.2,0-0.5,0.1-0.7,0.3c-0.2,0.2-0.3,0.4-0.3,0.7c0,0.2,0.1,0.5,0.3,0.7
				C84.6,172.2,84.8,172.3,85.1,172.3z"/>
		</g>
	</g>
	<g>
		<g>
			<path id="C0_0_7389ae8162_125_" class="st2" d="M65.8,184.6c0.2,0,0.5-0.1,0.7-0.3c0.2-0.2,0.3-0.4,0.3-0.7
				c0-0.2-0.1-0.5-0.3-0.7c-0.2-0.2-0.4-0.3-0.7-0.3s-0.5,0.1-0.7,0.3c-0.2,0.2-0.3,0.4-0.3,0.7c0,0.2,0.1,0.5,0.3,0.7
				C65.3,184.5,65.5,184.6,65.8,184.6z"/>
		</g>
	</g>
	<g>
		<g>
			<path id="C0_0_7389ae8162_126_" class="st19" d="M47.7,197.4c0.2,0,0.5-0.1,0.7-0.3c0.2-0.2,0.3-0.4,0.3-0.7
				c0-0.2-0.1-0.5-0.3-0.7c-0.2-0.2-0.4-0.3-0.7-0.3c-0.2,0-0.5,0.1-0.7,0.3c-0.2,0.2-0.3,0.4-0.3,0.7c0,0.2,0.1,0.5,0.3,0.7
				C47.2,197.3,47.5,197.4,47.7,197.4z"/>
		</g>
	</g>
	<g>
		<g>
			<path id="C0_0_7389ae8162_127_" class="st33" d="M119.2,4.9c0.2,0,0.5-0.1,0.7-0.3c0.2-0.2,0.3-0.4,0.3-0.7s-0.1-0.5-0.3-0.7
				c-0.2-0.2-0.4-0.3-0.7-0.3s-0.5,0.1-0.7,0.3c-0.2,0.2-0.3,0.4-0.3,0.7s0.1,0.5,0.3,0.7C118.7,4.8,118.9,4.9,119.2,4.9z"/>
		</g>
	</g>
	<g>
		<g>
			<path id="C0_0_7389ae8162_128_" class="st22" d="M89.9,33c0.2,0,0.5-0.1,0.7-0.3c0.2-0.2,0.3-0.4,0.3-0.7c0-0.2-0.1-0.5-0.3-0.7
				c-0.2-0.2-0.4-0.3-0.7-0.3s-0.5,0.1-0.7,0.3c-0.2,0.2-0.3,0.4-0.3,0.7c0,0.2,0.1,0.5,0.3,0.7C89.4,32.9,89.7,33,89.9,33z"/>
		</g>
	</g>
	<g>
		<g>
			<path id="C0_0_7389ae8162_129_" class="st34" d="M117.1,109.1c0.2,0,0.5-0.1,0.7-0.3c0.2-0.2,0.3-0.4,0.3-0.7
				c0-0.2-0.1-0.5-0.3-0.7c-0.2-0.2-0.4-0.3-0.7-0.3c-0.2,0-0.5,0.1-0.7,0.3c-0.2,0.2-0.3,0.4-0.3,0.7c0,0.2,0.1,0.5,0.3,0.7
				C116.6,109,116.8,109.1,117.1,109.1z"/>
		</g>
	</g>
	<g>
		<g>
			<path id="C0_0_7389ae8162_130_" class="st22" d="M102.1,103.1c0.2,0,0.5-0.1,0.7-0.3c0.2-0.2,0.3-0.4,0.3-0.7s-0.1-0.5-0.3-0.7
				c-0.2-0.2-0.4-0.3-0.7-0.3c-0.2,0-0.5,0.1-0.7,0.3c-0.2,0.2-0.3,0.4-0.3,0.7s0.1,0.5,0.3,0.7C101.6,103,101.8,103.1,102.1,103.1z
				"/>
		</g>
	</g>
	<g>
		<g>
			<path id="C0_0_7389ae8162_131_" class="st13" d="M77.8,123.4c0.2,0,0.5-0.1,0.7-0.3c0.2-0.2,0.3-0.4,0.3-0.7
				c0-0.2-0.1-0.5-0.3-0.7c-0.2-0.2-0.4-0.3-0.7-0.3c-0.2,0-0.5,0.1-0.7,0.3c-0.2,0.2-0.3,0.4-0.3,0.7c0,0.2,0.1,0.5,0.3,0.7
				C77.4,123.3,77.6,123.4,77.8,123.4z"/>
		</g>
	</g>
	<g>
		<g>
			<path id="C0_0_7389ae8162_132_" class="st0" d="M56.7,140.7c0.2,0,0.5-0.1,0.7-0.3s0.3-0.4,0.3-0.7s-0.1-0.5-0.3-0.7
				s-0.4-0.3-0.7-0.3c-0.2,0-0.5,0.1-0.7,0.3s-0.3,0.4-0.3,0.7s0.1,0.5,0.3,0.7S56.5,140.7,56.7,140.7z"/>
		</g>
	</g>
	<g>
		<g>
			<path id="C0_0_7389ae8162_133_" class="st15" d="M88.7,175.3c0.2,0,0.5-0.1,0.7-0.3c0.2-0.2,0.3-0.4,0.3-0.7
				c0-0.2-0.1-0.5-0.3-0.7c-0.2-0.2-0.4-0.3-0.7-0.3c-0.2,0-0.5,0.1-0.7,0.3c-0.2,0.2-0.3,0.4-0.3,0.7c0,0.2,0.1,0.5,0.3,0.7
				C88.2,175.2,88.5,175.3,88.7,175.3z"/>
		</g>
	</g>
	<g>
		<g>
			<path id="C0_0_7389ae8162_134_" class="st0" d="M69.8,186.2c0.2,0,0.5-0.1,0.7-0.3c0.2-0.2,0.3-0.4,0.3-0.7
				c0-0.2-0.1-0.5-0.3-0.7c-0.2-0.2-0.4-0.3-0.7-0.3s-0.5,0.1-0.7,0.3c-0.2,0.2-0.3,0.4-0.3,0.7c0,0.2,0.1,0.5,0.3,0.7
				C69.3,186.1,69.5,186.2,69.8,186.2z"/>
		</g>
	</g>
	<g>
		<g>
			<path id="C0_0_7389ae8162_135_" class="st16" d="M51.5,199.1c0.2,0,0.5-0.1,0.7-0.3c0.2-0.2,0.3-0.4,0.3-0.7
				c0-0.2-0.1-0.5-0.3-0.7c-0.2-0.2-0.4-0.3-0.7-0.3c-0.2,0-0.5,0.1-0.7,0.3c-0.2,0.2-0.3,0.4-0.3,0.7c0,0.2,0.1,0.5,0.3,0.7
				C51,199,51.2,199.1,51.5,199.1z"/>
		</g>
	</g>
	<g>
		<g>
			<path id="C0_0_7389ae8162_136_" class="st32" d="M120.6,20.4c0.2,0,0.5-0.1,0.7-0.3c0.2-0.2,0.3-0.4,0.3-0.7
				c0-0.2-0.1-0.5-0.3-0.7c-0.2-0.2-0.4-0.3-0.7-0.3c-0.2,0-0.5,0.1-0.7,0.3c-0.2,0.2-0.3,0.4-0.3,0.7c0,0.2,0.1,0.5,0.3,0.7
				C120.1,20.3,120.3,20.4,120.6,20.4z"/>
		</g>
	</g>
	<g>
		<g>
			<path id="C0_0_7389ae8162_137_" class="st26" d="M95.4,36.2c0.2,0,0.5-0.1,0.7-0.3c0.2-0.2,0.3-0.4,0.3-0.7
				c0-0.2-0.1-0.5-0.3-0.7c-0.2-0.2-0.4-0.3-0.7-0.3c-0.2,0-0.5,0.1-0.7,0.3c-0.2,0.2-0.3,0.4-0.3,0.7c0,0.2,0.1,0.5,0.3,0.7
				C94.9,36.1,95.2,36.2,95.4,36.2z"/>
		</g>
	</g>
	<g>
		<g>
			<path id="C0_0_7389ae8162_138_" class="st35" d="M136.3,79.8c0.2,0,0.5-0.1,0.7-0.3c0.2-0.2,0.3-0.4,0.3-0.7
				c0-0.2-0.1-0.5-0.3-0.7c-0.2-0.2-0.4-0.3-0.7-0.3s-0.5,0.1-0.7,0.3c-0.2,0.2-0.3,0.4-0.3,0.7c0,0.2,0.1,0.5,0.3,0.7
				C135.8,79.7,136,79.8,136.3,79.8z"/>
		</g>
	</g>
	<g>
		<g>
			<path id="C0_0_7389ae8162_139_" class="st23" d="M106.9,105.6c0.2,0,0.5-0.1,0.7-0.3c0.2-0.2,0.3-0.4,0.3-0.7s-0.1-0.5-0.3-0.7
				c-0.2-0.2-0.4-0.3-0.7-0.3c-0.2,0-0.5,0.1-0.7,0.3c-0.2,0.2-0.3,0.4-0.3,0.7s0.1,0.5,0.3,0.7
				C106.5,105.5,106.7,105.6,106.9,105.6z"/>
		</g>
	</g>
	<g>
		<g>
			<path id="C0_0_7389ae8162_140_" class="st13" d="M83,124.3c0.2,0,0.5-0.1,0.7-0.3c0.2-0.2,0.3-0.4,0.3-0.7c0-0.2-0.1-0.5-0.3-0.7
				c-0.2-0.2-0.4-0.3-0.7-0.3s-0.5,0.1-0.7,0.3c-0.2,0.2-0.3,0.4-0.3,0.7c0,0.2,0.1,0.5,0.3,0.7C82.5,124.2,82.7,124.3,83,124.3z"/>
		</g>
	</g>
	<g>
		<g>
			<path id="C0_0_7389ae8162_141_" class="st18" d="M61.2,142.6c0.2,0,0.5-0.1,0.7-0.3s0.3-0.4,0.3-0.7c0-0.2-0.1-0.5-0.3-0.7
				s-0.4-0.3-0.7-0.3s-0.5,0.1-0.7,0.3s-0.3,0.4-0.3,0.7c0,0.2,0.1,0.5,0.3,0.7S60.9,142.6,61.2,142.6z"/>
		</g>
	</g>
	<g>
		<g>
			<path id="C0_0_7389ae8162_142_" class="st25" d="M93.1,176.8c0.2,0,0.5-0.1,0.7-0.3c0.2-0.2,0.3-0.4,0.3-0.7s-0.1-0.5-0.3-0.7
				c-0.2-0.2-0.4-0.3-0.7-0.3c-0.2,0-0.5,0.1-0.7,0.3c-0.2,0.2-0.3,0.4-0.3,0.7s0.1,0.5,0.3,0.7C92.6,176.7,92.8,176.8,93.1,176.8z"
				/>
		</g>
	</g>
	<g>
		<g>
			<path id="C0_0_7389ae8162_143_" class="st3" d="M73.5,188.6c0.2,0,0.5-0.1,0.7-0.3c0.2-0.2,0.3-0.4,0.3-0.7
				c0-0.2-0.1-0.5-0.3-0.7c-0.2-0.2-0.4-0.3-0.7-0.3s-0.5,0.1-0.7,0.3c-0.2,0.2-0.3,0.4-0.3,0.7c0,0.2,0.1,0.5,0.3,0.7
				C73,188.5,73.2,188.6,73.5,188.6z"/>
		</g>
	</g>
	<g>
		<g>
			<path id="C0_0_7389ae8162_144_" class="st19" d="M56,198.8c0.2,0,0.5-0.1,0.7-0.3s0.3-0.4,0.3-0.7s-0.1-0.5-0.3-0.7
				s-0.4-0.3-0.7-0.3s-0.5,0.1-0.7,0.3s-0.3,0.4-0.3,0.7s0.1,0.5,0.3,0.7S55.7,198.8,56,198.8z"/>
		</g>
	</g>
	<g>
		<g>
			<path id="C0_0_7389ae8162_145_" class="st36" d="M120.8,38c0.2,0,0.5-0.1,0.7-0.3c0.2-0.2,0.3-0.4,0.3-0.7c0-0.2-0.1-0.5-0.3-0.7
				c-0.2-0.2-0.4-0.3-0.7-0.3c-0.2,0-0.5,0.1-0.7,0.3c-0.2,0.2-0.3,0.4-0.3,0.7c0,0.2,0.1,0.5,0.3,0.7C120.3,37.9,120.5,38,120.8,38
				z"/>
		</g>
	</g>
	<g>
		<g>
			<path id="C0_0_7389ae8162_146_" class="st35" d="M101,39c0.2,0,0.5-0.1,0.7-0.3c0.2-0.2,0.3-0.4,0.3-0.7c0-0.2-0.1-0.5-0.3-0.7
				c-0.2-0.2-0.4-0.3-0.7-0.3c-0.2,0-0.5,0.1-0.7,0.3c-0.2,0.2-0.3,0.4-0.3,0.7c0,0.2,0.1,0.5,0.3,0.7C100.5,38.9,100.8,39,101,39z"
				/>
		</g>
	</g>
	<g>
		<g>
			<path id="C0_0_7389ae8162_147_" class="st8" d="M148,68.6c0.2,0,0.5-0.1,0.7-0.3c0.2-0.2,0.3-0.4,0.3-0.7c0-0.2-0.1-0.5-0.3-0.7
				c-0.2-0.2-0.4-0.3-0.7-0.3c-0.2,0-0.5,0.1-0.7,0.3c-0.2,0.2-0.3,0.4-0.3,0.7c0,0.2,0.1,0.5,0.3,0.7
				C147.5,68.5,147.7,68.6,148,68.6z"/>
		</g>
	</g>
	<g>
		<g>
			<path id="C0_0_7389ae8162_148_" class="st24" d="M111.8,108.1c0.2,0,0.5-0.1,0.7-0.3c0.2-0.2,0.3-0.4,0.3-0.7
				c0-0.2-0.1-0.5-0.3-0.7c-0.2-0.2-0.4-0.3-0.7-0.3s-0.5,0.1-0.7,0.3c-0.2,0.2-0.3,0.4-0.3,0.7c0,0.2,0.1,0.5,0.3,0.7
				C111.3,108,111.5,108.1,111.8,108.1z"/>
		</g>
	</g>
	<g>
		<g>
			<path id="C0_0_7389ae8162_149_" class="st15" d="M87.9,125.7c0.2,0,0.5-0.1,0.7-0.3c0.2-0.2,0.3-0.4,0.3-0.7s-0.1-0.5-0.3-0.7
				c-0.2-0.2-0.4-0.3-0.7-0.3c-0.2,0-0.5,0.1-0.7,0.3c-0.2,0.2-0.3,0.4-0.3,0.7s0.1,0.5,0.3,0.7C87.4,125.6,87.7,125.7,87.9,125.7z"
				/>
		</g>
	</g>
	<g>
		<g>
			<path id="C0_0_7389ae8162_150_" class="st18" d="M66,143.2c0.2,0,0.5-0.1,0.7-0.3c0.2-0.2,0.3-0.4,0.3-0.7c0-0.2-0.1-0.5-0.3-0.7
				c-0.2-0.2-0.4-0.3-0.7-0.3s-0.5,0.1-0.7,0.3c-0.2,0.2-0.3,0.4-0.3,0.7c0,0.2,0.1,0.5,0.3,0.7C65.6,143.1,65.8,143.2,66,143.2z"/>
		</g>
	</g>
	<g>
		<g>
			<path id="C0_0_7389ae8162_151_" class="st17" d="M97.2,178.7c0.2,0,0.5-0.1,0.7-0.3c0.2-0.2,0.3-0.4,0.3-0.7
				c0-0.2-0.1-0.5-0.3-0.7c-0.2-0.2-0.4-0.3-0.7-0.3c-0.2,0-0.5,0.1-0.7,0.3c-0.2,0.2-0.3,0.4-0.3,0.7c0,0.2,0.1,0.5,0.3,0.7
				C96.7,178.6,97,178.7,97.2,178.7z"/>
		</g>
	</g>
	<g>
		<g>
			<path id="C0_0_7389ae8162_152_" class="st3" d="M77.8,189.5c0.2,0,0.5-0.1,0.7-0.3c0.2-0.2,0.3-0.4,0.3-0.7
				c0-0.2-0.1-0.5-0.3-0.7c-0.2-0.2-0.4-0.3-0.7-0.3c-0.2,0-0.5,0.1-0.7,0.3c-0.2,0.2-0.3,0.4-0.3,0.7c0,0.2,0.1,0.5,0.3,0.7
				C77.4,189.4,77.6,189.5,77.8,189.5z"/>
		</g>
	</g>
	<g>
		<g>
			<path id="C0_0_7389ae8162_153_" class="st1" d="M59.2,201.9c0.2,0,0.5-0.1,0.7-0.3c0.2-0.2,0.3-0.4,0.3-0.7
				c0-0.2-0.1-0.5-0.3-0.7c-0.2-0.2-0.4-0.3-0.7-0.3s-0.5,0.1-0.7,0.3c-0.2,0.2-0.3,0.4-0.3,0.7c0,0.2,0.1,0.5,0.3,0.7
				C58.7,201.8,58.9,201.9,59.2,201.9z"/>
		</g>
	</g>
	<g>
		<g>
			<path id="C0_0_7389ae8162_154_" class="st37" d="M137.7,12.3c0.2,0,0.5-0.1,0.7-0.3c0.2-0.2,0.3-0.4,0.3-0.7s-0.1-0.5-0.3-0.7
				c-0.2-0.2-0.4-0.3-0.7-0.3c-0.2,0-0.5,0.1-0.7,0.3c-0.2,0.2-0.3,0.4-0.3,0.7s0.1,0.5,0.3,0.7C137.2,12.2,137.4,12.3,137.7,12.3z"
				/>
		</g>
	</g>
	<g>
		<g>
			<path id="C0_0_7389ae8162_155_" class="st24" d="M107.8,38.4c0.2,0,0.5-0.1,0.7-0.3c0.2-0.2,0.3-0.4,0.3-0.7s-0.1-0.5-0.3-0.7
				c-0.2-0.2-0.4-0.3-0.7-0.3c-0.2,0-0.5,0.1-0.7,0.3c-0.2,0.2-0.3,0.4-0.3,0.7s0.1,0.5,0.3,0.7C107.3,38.3,107.5,38.4,107.8,38.4z"
				/>
		</g>
	</g>
	<g>
		<g>
			<path id="C0_0_7389ae8162_156_" class="st0" d="M155.6,66.9c0.2,0,0.5-0.1,0.7-0.3c0.2-0.2,0.3-0.4,0.3-0.7s-0.1-0.5-0.3-0.7
				c-0.2-0.2-0.4-0.3-0.7-0.3s-0.5,0.1-0.7,0.3c-0.2,0.2-0.3,0.4-0.3,0.7s0.1,0.5,0.3,0.7C155.1,66.8,155.3,66.9,155.6,66.9z"/>
		</g>
	</g>
	<g>
		<g>
			<path id="C0_0_7389ae8162_157_" class="st38" d="M114.7,114.9c0.2,0,0.5-0.1,0.7-0.3c0.2-0.2,0.3-0.4,0.3-0.7
				c0-0.2-0.1-0.5-0.3-0.7c-0.2-0.2-0.4-0.3-0.7-0.3s-0.5,0.1-0.7,0.3c-0.2,0.2-0.3,0.4-0.3,0.7c0,0.2,0.1,0.5,0.3,0.7
				C114.2,114.8,114.4,114.9,114.7,114.9z"/>
		</g>
	</g>
	<g>
		<g>
			<path id="C0_0_7389ae8162_158_" class="st25" d="M92.5,127.9c0.2,0,0.5-0.1,0.7-0.3c0.2-0.2,0.3-0.4,0.3-0.7
				c0-0.2-0.1-0.5-0.3-0.7c-0.2-0.2-0.4-0.3-0.7-0.3s-0.5,0.1-0.7,0.3c-0.2,0.2-0.3,0.4-0.3,0.7c0,0.2,0.1,0.5,0.3,0.7
				C92,127.8,92.3,127.9,92.5,127.9z"/>
		</g>
	</g>
	<g>
		<g>
			<path id="C0_0_7389ae8162_159_" class="st5" d="M70.2,146c0.2,0,0.5-0.1,0.7-0.3c0.2-0.2,0.3-0.4,0.3-0.7c0-0.2-0.1-0.5-0.3-0.7
				c-0.2-0.2-0.4-0.3-0.7-0.3c-0.2,0-0.5,0.1-0.7,0.3c-0.2,0.2-0.3,0.4-0.3,0.7c0,0.2,0.1,0.5,0.3,0.7C69.7,145.9,69.9,146,70.2,146
				z"/>
		</g>
	</g>
	<g>
		<g>
			<path id="C0_0_7389ae8162_160_" class="st17" d="M101.6,180.2c0.2,0,0.5-0.1,0.7-0.3c0.2-0.2,0.3-0.4,0.3-0.7
				c0-0.2-0.1-0.5-0.3-0.7c-0.2-0.2-0.4-0.3-0.7-0.3c-0.2,0-0.5,0.1-0.7,0.3c-0.2,0.2-0.3,0.4-0.3,0.7c0,0.2,0.1,0.5,0.3,0.7
				C101.1,180.1,101.3,180.2,101.6,180.2z"/>
		</g>
	</g>
	<g>
		<g>
			<path id="C0_0_7389ae8162_161_" class="st5" d="M81.8,191.2c0.2,0,0.5-0.1,0.7-0.3c0.2-0.2,0.3-0.4,0.3-0.7s-0.1-0.5-0.3-0.7
				c-0.2-0.2-0.4-0.3-0.7-0.3s-0.5,0.1-0.7,0.3c-0.2,0.2-0.3,0.4-0.3,0.7s0.1,0.5,0.3,0.7C81.4,191.1,81.6,191.2,81.8,191.2z"/>
		</g>
	</g>
	<g>
		<g>
			<path id="C0_0_7389ae8162_162_" class="st9" d="M63.5,202.2c0.2,0,0.5-0.1,0.7-0.3c0.2-0.2,0.3-0.4,0.3-0.7s-0.1-0.5-0.3-0.7
				c-0.2-0.2-0.4-0.3-0.7-0.3s-0.5,0.1-0.7,0.3s-0.3,0.4-0.3,0.7s0.1,0.5,0.3,0.7S63.3,202.2,63.5,202.2z"/>
		</g>
	</g>
	<g>
		<g>
			<path id="C0_0_7389ae8162_163_" class="st39" d="M112.6,43.1c0.2,0,0.5-0.1,0.7-0.3c0.2-0.2,0.3-0.4,0.3-0.7s-0.1-0.5-0.3-0.7
				c-0.2-0.2-0.4-0.3-0.7-0.3s-0.5,0.1-0.7,0.3c-0.2,0.2-0.3,0.4-0.3,0.7s0.1,0.5,0.3,0.7C112.1,43,112.4,43.1,112.6,43.1z"/>
		</g>
	</g>
	<g>
		<g>
			<path id="C0_0_7389ae8162_164_" class="st6" d="M164.7,62.1c0.2,0,0.5-0.1,0.7-0.3c0.2-0.2,0.3-0.4,0.3-0.7
				c0-0.2-0.1-0.5-0.3-0.7c-0.2-0.2-0.4-0.3-0.7-0.3c-0.2,0-0.5,0.1-0.7,0.3c-0.2,0.2-0.3,0.4-0.3,0.7c0,0.2,0.1,0.5,0.3,0.7
				C164.3,62,164.5,62.1,164.7,62.1z"/>
		</g>
	</g>
	<g>
		<g>
			<path id="C0_0_7389ae8162_165_" class="st40" d="M114.7,127.9c0.2,0,0.5-0.1,0.7-0.3c0.2-0.2,0.3-0.4,0.3-0.7
				c0-0.2-0.1-0.5-0.3-0.7c-0.2-0.2-0.4-0.3-0.7-0.3s-0.5,0.1-0.7,0.3c-0.2,0.2-0.3,0.4-0.3,0.7c0,0.2,0.1,0.5,0.3,0.7
				C114.2,127.8,114.5,127.9,114.7,127.9z"/>
		</g>
	</g>
	<g>
		<g>
			<path id="C0_0_7389ae8162_166_" class="st25" d="M97.6,128.9c0.2,0,0.5-0.1,0.7-0.3c0.2-0.2,0.3-0.4,0.3-0.7
				c0-0.2-0.1-0.5-0.3-0.7c-0.2-0.2-0.4-0.3-0.7-0.3c-0.2,0-0.5,0.1-0.7,0.3c-0.2,0.2-0.3,0.4-0.3,0.7c0,0.2,0.1,0.5,0.3,0.7
				C97.2,128.8,97.4,128.9,97.6,128.9z"/>
		</g>
	</g>
	<g>
		<g>
			<path id="C0_0_7389ae8162_167_" class="st18" d="M75.5,145.5c0.2,0,0.5-0.1,0.7-0.3c0.2-0.2,0.3-0.4,0.3-0.7
				c0-0.2-0.1-0.5-0.3-0.7c-0.2-0.2-0.4-0.3-0.7-0.3c-0.2,0-0.5,0.1-0.7,0.3c-0.2,0.2-0.3,0.4-0.3,0.7c0,0.2,0.1,0.5,0.3,0.7
				C75,145.4,75.2,145.5,75.5,145.5z"/>
		</g>
	</g>
	<g>
		<g>
			<path id="C0_0_7389ae8162_168_" class="st29" d="M105.5,182.6c0.2,0,0.5-0.1,0.7-0.3c0.2-0.2,0.3-0.4,0.3-0.7
				c0-0.2-0.1-0.5-0.3-0.7c-0.2-0.2-0.4-0.3-0.7-0.3s-0.5,0.1-0.7,0.3c-0.2,0.2-0.3,0.4-0.3,0.7c0,0.2,0.1,0.5,0.3,0.7
				C105,182.5,105.2,182.6,105.5,182.6z"/>
		</g>
	</g>
	<g>
		<g>
			<path id="C0_0_7389ae8162_169_" class="st12" d="M85.4,193.8c0.2,0,0.5-0.1,0.7-0.3c0.2-0.2,0.3-0.4,0.3-0.7s-0.1-0.5-0.3-0.7
				c-0.2-0.2-0.4-0.3-0.7-0.3s-0.5,0.1-0.7,0.3c-0.2,0.2-0.3,0.4-0.3,0.7s0.1,0.5,0.3,0.7C84.9,193.7,85.2,193.8,85.4,193.8z"/>
		</g>
	</g>
	<g>
		<g>
			<path id="C0_0_7389ae8162_170_" class="st31" d="M117.2,48.4c0.2,0,0.5-0.1,0.7-0.3c0.2-0.2,0.3-0.4,0.3-0.7
				c0-0.2-0.1-0.5-0.3-0.7c-0.2-0.2-0.4-0.3-0.7-0.3s-0.5,0.1-0.7,0.3c-0.2,0.2-0.3,0.4-0.3,0.7c0,0.2,0.1,0.5,0.3,0.7
				C116.7,48.3,117,48.4,117.2,48.4z"/>
		</g>
	</g>
	<g>
		<g>
			<path id="C0_0_7389ae8162_171_" class="st41" d="M115.5,138.5c0.2,0,0.5-0.1,0.7-0.3c0.2-0.2,0.3-0.4,0.3-0.7
				c0-0.2-0.1-0.5-0.3-0.7c-0.2-0.2-0.4-0.3-0.7-0.3s-0.5,0.1-0.7,0.3c-0.2,0.2-0.3,0.4-0.3,0.7c0,0.2,0.1,0.5,0.3,0.7
				C115,138.4,115.3,138.5,115.5,138.5z"/>
		</g>
	</g>
	<g>
		<g>
			<path id="C0_0_7389ae8162_172_" class="st17" d="M102.2,131.3c0.2,0,0.5-0.1,0.7-0.3c0.2-0.2,0.3-0.4,0.3-0.7
				c0-0.2-0.1-0.5-0.3-0.7c-0.2-0.2-0.4-0.3-0.7-0.3c-0.2,0-0.5,0.1-0.7,0.3c-0.2,0.2-0.3,0.4-0.3,0.7c0,0.2,0.1,0.5,0.3,0.7
				C101.7,131.2,102,131.3,102.2,131.3z"/>
		</g>
	</g>
	<g>
		<g>
			<path id="C0_0_7389ae8162_173_" class="st5" d="M79.7,148c0.2,0,0.5-0.1,0.7-0.3c0.2-0.2,0.3-0.4,0.3-0.7c0-0.2-0.1-0.5-0.3-0.7
				c-0.2-0.2-0.4-0.3-0.7-0.3c-0.2,0-0.5,0.1-0.7,0.3c-0.2,0.2-0.3,0.4-0.3,0.7c0,0.2,0.1,0.5,0.3,0.7C79.2,147.9,79.5,148,79.7,148
				z"/>
		</g>
	</g>
	<g>
		<g>
			<path id="C0_0_7389ae8162_174_" class="st42" d="M109.4,185c0.2,0,0.5-0.1,0.7-0.3c0.2-0.2,0.3-0.4,0.3-0.7s-0.1-0.5-0.3-0.7
				c-0.2-0.2-0.4-0.3-0.7-0.3c-0.2,0-0.5,0.1-0.7,0.3c-0.2,0.2-0.3,0.4-0.3,0.7s0.1,0.5,0.3,0.7C108.9,184.9,109.1,185,109.4,185z"
				/>
		</g>
	</g>
	<g>
		<g>
			<path id="C0_0_7389ae8162_175_" class="st13" d="M89.2,196c0.2,0,0.5-0.1,0.7-0.3c0.2-0.2,0.3-0.4,0.3-0.7s-0.1-0.5-0.3-0.7
				c-0.2-0.2-0.4-0.3-0.7-0.3c-0.2,0-0.5,0.1-0.7,0.3c-0.2,0.2-0.3,0.4-0.3,0.7s0.1,0.5,0.3,0.7C88.7,195.9,88.9,196,89.2,196z"/>
		</g>
	</g>
	<g>
		<g>
			<path id="C0_0_7389ae8162_176_" class="st32" d="M117.6,64.2c0.2,0,0.5-0.1,0.7-0.3c0.2-0.2,0.3-0.4,0.3-0.7s-0.1-0.5-0.3-0.7
				c-0.2-0.2-0.4-0.3-0.7-0.3c-0.2,0-0.5,0.1-0.7,0.3c-0.2,0.2-0.3,0.4-0.3,0.7s0.1,0.5,0.3,0.7C117.1,64.1,117.3,64.2,117.6,64.2z"
				/>
		</g>
	</g>
	<g>
		<g>
			<path id="C0_0_7389ae8162_229_" class="st43" d="M117.2,60.9c0.5,0,1-0.2,1.4-0.6s0.6-0.9,0.6-1.4c0-0.5-0.2-1-0.6-1.4
				s-0.9-0.6-1.4-0.6s-1,0.2-1.4,0.6s-0.6,0.9-0.6,1.4c0,0.5,0.2,1,0.6,1.4S116.7,60.9,117.2,60.9z"/>
		</g>
	</g>
	<g>
		<g>
			<path id="C0_0_7389ae8162_230_" class="st43" d="M115.9,132.7c0.5,0,1-0.2,1.4-0.6c0.4-0.4,0.6-0.9,0.6-1.4s-0.2-1-0.6-1.4
				c-0.4-0.4-0.9-0.6-1.4-0.6s-1,0.2-1.4,0.6c-0.4,0.4-0.6,0.9-0.6,1.4s0.2,1,0.6,1.4C114.9,132.4,115.4,132.7,115.9,132.7z"/>
		</g>
	</g>
	<g>
		<g>
			<path id="C0_0_7389ae8162_231_" class="st43" d="M114.2,189c0.5,0,1-0.2,1.4-0.6c0.4-0.4,0.6-0.9,0.6-1.4s-0.2-1-0.6-1.4
				c-0.4-0.4-0.9-0.6-1.4-0.6s-1,0.2-1.4,0.6c-0.4,0.4-0.6,0.9-0.6,1.4s0.2,1,0.6,1.4C113.2,188.8,113.7,189,114.2,189z"/>
		</g>
	</g>
	<g>
		<g>
			<path id="C0_0_7389ae8162_177_" class="st35" d="M132.8,114.4c0.2,0,0.5-0.1,0.7-0.3c0.2-0.2,0.3-0.4,0.3-0.7
				c0-0.2-0.1-0.5-0.3-0.7c-0.2-0.2-0.4-0.3-0.7-0.3c-0.2,0-0.5,0.1-0.7,0.3c-0.2,0.2-0.3,0.4-0.3,0.7c0,0.2,0.1,0.5,0.3,0.7
				C132.4,114.3,132.6,114.4,132.8,114.4z"/>
		</g>
	</g>
	<g>
		<g>
			<path id="C0_0_7389ae8162_178_" class="st42" d="M106.5,134.2c0.2,0,0.5-0.1,0.7-0.3c0.2-0.2,0.3-0.4,0.3-0.7s-0.1-0.5-0.3-0.7
				c-0.2-0.2-0.4-0.3-0.7-0.3c-0.2,0-0.5,0.1-0.7,0.3c-0.2,0.2-0.3,0.4-0.3,0.7s0.1,0.5,0.3,0.7C106,134.1,106.3,134.2,106.5,134.2z
				"/>
		</g>
	</g>
	<g>
		<g>
			<path id="C0_0_7389ae8162_179_" class="st5" d="M84.7,148.5c0.2,0,0.5-0.1,0.7-0.3c0.2-0.2,0.3-0.4,0.3-0.7
				c0-0.2-0.1-0.5-0.3-0.7c-0.2-0.2-0.4-0.3-0.7-0.3s-0.5,0.1-0.7,0.3c-0.2,0.2-0.3,0.4-0.3,0.7c0,0.2,0.1,0.5,0.3,0.7
				C84.2,148.4,84.5,148.5,84.7,148.5z"/>
		</g>
	</g>
	<g>
		<g>
			<path id="C0_0_7389ae8162_180_" class="st24" d="M112.1,189.6c0.2,0,0.5-0.1,0.7-0.3c0.2-0.2,0.3-0.4,0.3-0.7s-0.1-0.5-0.3-0.7
				c-0.2-0.2-0.4-0.3-0.7-0.3c-0.2,0-0.5,0.1-0.7,0.3c-0.2,0.2-0.3,0.4-0.3,0.7s0.1,0.5,0.3,0.7
				C111.6,189.5,111.8,189.6,112.1,189.6z"/>
		</g>
	</g>
	<g>
		<g>
			<path id="C0_0_7389ae8162_181_" class="st15" d="M93.1,197.9c0.2,0,0.5-0.1,0.7-0.3c0.2-0.2,0.3-0.4,0.3-0.7
				c0-0.2-0.1-0.5-0.3-0.7c-0.2-0.2-0.4-0.3-0.7-0.3s-0.5,0.1-0.7,0.3c-0.2,0.2-0.3,0.4-0.3,0.7c0,0.2,0.1,0.5,0.3,0.7
				C92.6,197.8,92.8,197.9,93.1,197.9z"/>
		</g>
	</g>
	<g>
		<g>
			<path id="C0_0_7389ae8162_182_" class="st34" d="M118.8,76.8c0.2,0,0.5-0.1,0.7-0.3c0.2-0.2,0.3-0.4,0.3-0.7
				c0-0.2-0.1-0.5-0.3-0.7c-0.2-0.2-0.4-0.3-0.7-0.3c-0.2,0-0.5,0.1-0.7,0.3c-0.2,0.2-0.3,0.4-0.3,0.7c0,0.2,0.1,0.5,0.3,0.7
				C118.3,76.8,118.6,76.8,118.8,76.8z"/>
		</g>
	</g>
	<g>
		<g>
			<path id="C0_0_7389ae8162_183_" class="st5" d="M144,104.2c0.2,0,0.5-0.1,0.7-0.3c0.2-0.2,0.3-0.4,0.3-0.7c0-0.2-0.1-0.5-0.3-0.7
				c-0.2-0.2-0.4-0.3-0.7-0.3s-0.5,0.1-0.7,0.3c-0.2,0.2-0.3,0.4-0.3,0.7c0,0.2,0.1,0.5,0.3,0.7C143.5,104.1,143.8,104.2,144,104.2z
				"/>
		</g>
	</g>
	<g>
		<g>
			<path id="C0_0_7389ae8162_184_" class="st22" d="M110.8,137.1c0.2,0,0.5-0.1,0.7-0.3c0.2-0.2,0.3-0.4,0.3-0.7
				c0-0.2-0.1-0.5-0.3-0.7c-0.2-0.2-0.4-0.3-0.7-0.3c-0.2,0-0.5,0.1-0.7,0.3c-0.2,0.2-0.3,0.4-0.3,0.7c0,0.2,0.1,0.5,0.3,0.7
				C110.3,137.1,110.5,137.1,110.8,137.1z"/>
		</g>
	</g>
	<g>
		<g>
			<path id="C0_0_7389ae8162_185_" class="st15" d="M88.1,152.9c0.2,0,0.5-0.1,0.7-0.3c0.2-0.2,0.3-0.4,0.3-0.7
				c0-0.2-0.1-0.5-0.3-0.7c-0.2-0.2-0.4-0.3-0.7-0.3c-0.2,0-0.5,0.1-0.7,0.3c-0.2,0.2-0.3,0.4-0.3,0.7c0,0.2,0.1,0.5,0.3,0.7
				C87.6,152.8,87.9,152.9,88.1,152.9z"/>
		</g>
	</g>
	<g>
		<g>
			<path id="C0_0_7389ae8162_186_" class="st33" d="M112.5,198.2c0.2,0,0.5-0.1,0.7-0.3c0.2-0.2,0.3-0.4,0.3-0.7
				c0-0.2-0.1-0.5-0.3-0.7c-0.2-0.2-0.4-0.3-0.7-0.3c-0.2,0-0.5,0.1-0.7,0.3c-0.2,0.2-0.3,0.4-0.3,0.7c0,0.2,0.1,0.5,0.3,0.7
				C112.1,198.1,112.3,198.2,112.5,198.2z"/>
		</g>
	</g>
	<g>
		<g>
			<path id="C0_0_7389ae8162_187_" class="st15" d="M97,199.7c0.2,0,0.5-0.1,0.7-0.3c0.2-0.2,0.3-0.4,0.3-0.7s-0.1-0.5-0.3-0.7
				c-0.2-0.2-0.4-0.3-0.7-0.3c-0.2,0-0.5,0.1-0.7,0.3c-0.2,0.2-0.3,0.4-0.3,0.7s0.1,0.5,0.3,0.7C96.5,199.6,96.7,199.7,97,199.7z"/>
		</g>
	</g>
	<g>
		<g>
			<path id="C0_0_7389ae8162_188_" class="st20" d="M140.7,40.1c0.2,0,0.5-0.1,0.7-0.3s0.3-0.4,0.3-0.7c0-0.2-0.1-0.5-0.3-0.7
				s-0.4-0.3-0.7-0.3c-0.2,0-0.5,0.1-0.7,0.3s-0.3,0.4-0.3,0.7c0,0.2,0.1,0.5,0.3,0.7S140.5,40.1,140.7,40.1z"/>
		</g>
	</g>
	<g>
		<g>
			<path id="C0_0_7389ae8162_189_" class="st19" d="M153.1,98.9c0.2,0,0.5-0.1,0.7-0.3c0.2-0.2,0.3-0.4,0.3-0.7
				c0-0.2-0.1-0.5-0.3-0.7c-0.2-0.2-0.4-0.3-0.7-0.3c-0.2,0-0.5,0.1-0.7,0.3c-0.2,0.2-0.3,0.4-0.3,0.7c0,0.2,0.1,0.5,0.3,0.7
				C152.6,98.8,152.8,98.9,153.1,98.9z"/>
		</g>
	</g>
	<g>
		<g>
			<path id="C0_0_7389ae8162_190_" class="st30" d="M113.5,143.5c0.2,0,0.5-0.1,0.7-0.3c0.2-0.2,0.3-0.4,0.3-0.7s-0.1-0.5-0.3-0.7
				c-0.2-0.2-0.4-0.3-0.7-0.3s-0.5,0.1-0.7,0.3c-0.2,0.2-0.3,0.4-0.3,0.7s0.1,0.5,0.3,0.7C113,143.4,113.2,143.5,113.5,143.5z"/>
		</g>
	</g>
	<g>
		<g>
			<path id="C0_0_7389ae8162_191_" class="st25" d="M92.6,154.7c0.2,0,0.5-0.1,0.7-0.3c0.2-0.2,0.3-0.4,0.3-0.7
				c0-0.2-0.1-0.5-0.3-0.7c-0.2-0.2-0.4-0.3-0.7-0.3c-0.2,0-0.5,0.1-0.7,0.3c-0.2,0.2-0.3,0.4-0.3,0.7c0,0.2,0.1,0.5,0.3,0.7
				C92.1,154.6,92.3,154.7,92.6,154.7z"/>
		</g>
	</g>
	<g>
		<g>
			<path id="C0_0_7389ae8162_192_" class="st15" d="M101.3,200.9c0.2,0,0.5-0.1,0.7-0.3c0.2-0.2,0.3-0.4,0.3-0.7
				c0-0.2-0.1-0.5-0.3-0.7c-0.2-0.2-0.4-0.3-0.7-0.3c-0.2,0-0.5,0.1-0.7,0.3c-0.2,0.2-0.3,0.4-0.3,0.7c0,0.2,0.1,0.5,0.3,0.7
				C100.8,200.8,101,200.9,101.3,200.9z"/>
		</g>
	</g>
	<g>
		<g>
			<path id="C0_0_7389ae8162_193_" class="st5" d="M151.2,31.9c0.2,0,0.5-0.1,0.7-0.3c0.2-0.2,0.3-0.4,0.3-0.7
				c0-0.2-0.1-0.5-0.3-0.7c-0.2-0.2-0.4-0.3-0.7-0.3c-0.2,0-0.5,0.1-0.7,0.3c-0.2,0.2-0.3,0.4-0.3,0.7c0,0.2,0.1,0.5,0.3,0.7
				C150.8,31.8,151,31.9,151.2,31.9z"/>
		</g>
	</g>
	<g>
		<g>
			<path id="C0_0_7389ae8162_194_" class="st6" d="M159.3,99.4c0.2,0,0.5-0.1,0.7-0.3c0.2-0.2,0.3-0.4,0.3-0.7
				c0-0.2-0.1-0.5-0.3-0.7c-0.2-0.2-0.4-0.3-0.7-0.3s-0.5,0.1-0.7,0.3c-0.2,0.2-0.3,0.4-0.3,0.7c0,0.2,0.1,0.5,0.3,0.7
				C158.8,99.4,159,99.4,159.3,99.4z"/>
		</g>
	</g>
	<g>
		<g>
			<path id="C0_0_7389ae8162_195_" class="st44" d="M113.9,154.1c0.2,0,0.5-0.1,0.7-0.3c0.2-0.2,0.3-0.4,0.3-0.7
				c0-0.2-0.1-0.5-0.3-0.7c-0.2-0.2-0.4-0.3-0.7-0.3c-0.2,0-0.5,0.1-0.7,0.3c-0.2,0.2-0.3,0.4-0.3,0.7c0,0.2,0.1,0.5,0.3,0.7
				C113.4,154,113.6,154.1,113.9,154.1z"/>
		</g>
	</g>
	<g>
		<g>
			<path id="C0_0_7389ae8162_196_" class="st15" d="M97.6,155.3c0.2,0,0.5-0.1,0.7-0.3c0.2-0.2,0.3-0.4,0.3-0.7
				c0-0.2-0.1-0.5-0.3-0.7c-0.2-0.2-0.4-0.3-0.7-0.3c-0.2,0-0.5,0.1-0.7,0.3c-0.2,0.2-0.3,0.4-0.3,0.7c0,0.2,0.1,0.5,0.3,0.7
				C97.1,155.2,97.3,155.3,97.6,155.3z"/>
		</g>
	</g>
	<g>
		<g>
			<path id="C0_0_7389ae8162_197_" class="st25" d="M105.1,202.8c0.2,0,0.5-0.1,0.7-0.3c0.2-0.2,0.3-0.4,0.3-0.7
				c0-0.2-0.1-0.5-0.3-0.7c-0.2-0.2-0.4-0.3-0.7-0.3c-0.2,0-0.5,0.1-0.7,0.3c-0.2,0.2-0.3,0.4-0.3,0.7c0,0.2,0.1,0.5,0.3,0.7
				C104.7,202.7,104.9,202.8,105.1,202.8z"/>
		</g>
	</g>
	<g>
		<g>
			<path id="C0_0_7389ae8162_198_" class="st18" d="M158.9,30.6c0.2,0,0.5-0.1,0.7-0.3c0.2-0.2,0.3-0.4,0.3-0.7s-0.1-0.5-0.3-0.7
				c-0.2-0.2-0.4-0.3-0.7-0.3c-0.2,0-0.5,0.1-0.7,0.3c-0.2,0.2-0.3,0.4-0.3,0.7s0.1,0.5,0.3,0.7C158.5,30.5,158.7,30.6,158.9,30.6z"
				/>
		</g>
	</g>
	<g>
		<g>
			<path id="C0_0_7389ae8162_199_" class="st10" d="M166,99.2c0.2,0,0.5-0.1,0.7-0.3c0.2-0.2,0.3-0.4,0.3-0.7c0-0.2-0.1-0.5-0.3-0.7
				c-0.2-0.2-0.4-0.3-0.7-0.3c-0.2,0-0.5,0.1-0.7,0.3c-0.2,0.2-0.3,0.4-0.3,0.7c0,0.2,0.1,0.5,0.3,0.7
				C165.5,99.1,165.7,99.2,166,99.2z"/>
		</g>
	</g>
	<g>
		<g>
			<path id="C0_0_7389ae8162_200_" class="st45" d="M113.9,165.1c0.2,0,0.5-0.1,0.7-0.3c0.2-0.2,0.3-0.4,0.3-0.7s-0.1-0.5-0.3-0.7
				c-0.2-0.2-0.4-0.3-0.7-0.3s-0.5,0.1-0.7,0.3c-0.2,0.2-0.3,0.4-0.3,0.7s0.1,0.5,0.3,0.7C113.5,165,113.7,165.1,113.9,165.1z"/>
		</g>
	</g>
	<g>
		<g>
			<path id="C0_0_7389ae8162_201_" class="st25" d="M101.8,157.7c0.2,0,0.5-0.1,0.7-0.3c0.2-0.2,0.3-0.4,0.3-0.7
				c0-0.2-0.1-0.5-0.3-0.7c-0.2-0.2-0.4-0.3-0.7-0.3c-0.2,0-0.5,0.1-0.7,0.3c-0.2,0.2-0.3,0.4-0.3,0.7c0,0.2,0.1,0.5,0.3,0.7
				C101.3,157.6,101.5,157.7,101.8,157.7z"/>
		</g>
	</g>
	<g>
		<g>
			<path id="C0_0_7389ae8162_202_" class="st22" d="M130.3,194.4c0.2,0,0.5-0.1,0.7-0.3c0.2-0.2,0.3-0.4,0.3-0.7
				c0-0.2-0.1-0.5-0.3-0.7c-0.2-0.2-0.4-0.3-0.7-0.3s-0.5,0.1-0.7,0.3c-0.2,0.2-0.3,0.4-0.3,0.7c0,0.2,0.1,0.5,0.3,0.7
				C129.8,194.3,130,194.4,130.3,194.4z"/>
		</g>
	</g>
	<g>
		<g>
			<path id="C0_0_7389ae8162_203_" class="st2" d="M166.1,30.6c0.2,0,0.5-0.1,0.7-0.3c0.2-0.2,0.3-0.4,0.3-0.7
				c0-0.2-0.1-0.5-0.3-0.7c-0.2-0.2-0.4-0.3-0.7-0.3s-0.5,0.1-0.7,0.3c-0.2,0.2-0.3,0.4-0.3,0.7c0,0.2,0.1,0.5,0.3,0.7
				C165.6,30.5,165.9,30.6,166.1,30.6z"/>
		</g>
	</g>
	<g>
		<g>
			<path id="C0_0_7389ae8162_204_" class="st29" d="M162.6,117.2c0.2,0,0.5-0.1,0.7-0.3c0.2-0.2,0.3-0.4,0.3-0.7
				c0-0.2-0.1-0.5-0.3-0.7c-0.2-0.2-0.4-0.3-0.7-0.3s-0.5,0.1-0.7,0.3c-0.2,0.2-0.3,0.4-0.3,0.7c0,0.2,0.1,0.5,0.3,0.7
				C162.1,117.1,162.3,117.2,162.6,117.2z"/>
		</g>
	</g>
	<g>
		<g>
			<path id="C0_0_7389ae8162_205_" class="st46" d="M121,161.9c0.2,0,0.5-0.1,0.7-0.3c0.2-0.2,0.3-0.4,0.3-0.7s-0.1-0.5-0.3-0.7
				c-0.2-0.2-0.4-0.3-0.7-0.3c-0.2,0-0.5,0.1-0.7,0.3c-0.2,0.2-0.3,0.4-0.3,0.7s0.1,0.5,0.3,0.7C120.5,161.8,120.7,161.9,121,161.9z
				"/>
		</g>
	</g>
	<g>
		<g>
			<path id="C0_0_7389ae8162_206_" class="st17" d="M106.4,159.3c0.2,0,0.5-0.1,0.7-0.3c0.2-0.2,0.3-0.4,0.3-0.7s-0.1-0.5-0.3-0.7
				c-0.2-0.2-0.4-0.3-0.7-0.3c-0.2,0-0.5,0.1-0.7,0.3c-0.2,0.2-0.3,0.4-0.3,0.7s0.1,0.5,0.3,0.7
				C105.9,159.2,106.1,159.3,106.4,159.3z"/>
		</g>
	</g>
	<g>
		<g>
			<path id="C0_0_7389ae8162_207_" class="st0" d="M140.2,186.9c0.2,0,0.5-0.1,0.7-0.3c0.2-0.2,0.3-0.4,0.3-0.7
				c0-0.2-0.1-0.5-0.3-0.7c-0.2-0.2-0.4-0.3-0.7-0.3c-0.2,0-0.5,0.1-0.7,0.3c-0.2,0.2-0.3,0.4-0.3,0.7c0,0.2,0.1,0.5,0.3,0.7
				C139.8,186.8,140,186.9,140.2,186.9z"/>
		</g>
	</g>
	<g>
		<g>
			<path id="C0_0_7389ae8162_208_" class="st8" d="M139.6,137.2c0.2,0,0.5-0.1,0.7-0.3c0.2-0.2,0.3-0.4,0.3-0.7s-0.1-0.5-0.3-0.7
				c-0.2-0.2-0.4-0.3-0.7-0.3c-0.2,0-0.5,0.1-0.7,0.3c-0.2,0.2-0.3,0.4-0.3,0.7s0.1,0.5,0.3,0.7
				C139.1,137.1,139.3,137.2,139.6,137.2z"/>
		</g>
	</g>
	<g>
		<g>
			<path id="C0_0_7389ae8162_209_" class="st42" d="M110.3,162.2c0.2,0,0.5-0.1,0.7-0.3c0.2-0.2,0.3-0.4,0.3-0.7
				c0-0.2-0.1-0.5-0.3-0.7c-0.2-0.2-0.4-0.3-0.7-0.3c-0.2,0-0.5,0.1-0.7,0.3c-0.2,0.2-0.3,0.4-0.3,0.7c0,0.2,0.1,0.5,0.3,0.7
				C109.8,162.1,110.1,162.2,110.3,162.2z"/>
		</g>
	</g>
	<g>
		<g>
			<path id="C0_0_7389ae8162_210_" class="st11" d="M148.4,182.8c0.2,0,0.5-0.1,0.7-0.3c0.2-0.2,0.3-0.4,0.3-0.7
				c0-0.2-0.1-0.5-0.3-0.7c-0.2-0.2-0.4-0.3-0.7-0.3c-0.2,0-0.5,0.1-0.7,0.3c-0.2,0.2-0.3,0.4-0.3,0.7c0,0.2,0.1,0.5,0.3,0.7
				C147.9,182.7,148.1,182.8,148.4,182.8z"/>
		</g>
	</g>
	<g>
		<g>
			<path id="C0_0_7389ae8162_211_" class="st2" d="M147,134.6c0.2,0,0.5-0.1,0.7-0.3c0.2-0.2,0.3-0.4,0.3-0.7c0-0.2-0.1-0.5-0.3-0.7
				c-0.2-0.2-0.4-0.3-0.7-0.3c-0.2,0-0.5,0.1-0.7,0.3c-0.2,0.2-0.3,0.4-0.3,0.7c0,0.2,0.1,0.5,0.3,0.7
				C146.5,134.5,146.7,134.6,147,134.6z"/>
		</g>
	</g>
	<g>
		<g>
			<path id="C0_0_7389ae8162_212_" class="st35" d="M112.6,168.4c0.2,0,0.5-0.1,0.7-0.3c0.2-0.2,0.3-0.4,0.3-0.7s-0.1-0.5-0.3-0.7
				c-0.2-0.2-0.4-0.3-0.7-0.3s-0.5,0.1-0.7,0.3c-0.2,0.2-0.3,0.4-0.3,0.7s0.1,0.5,0.3,0.7C112.1,168.3,112.3,168.4,112.6,168.4z"/>
		</g>
	</g>
	<g>
		<g>
			<path id="C0_0_7389ae8162_213_" class="st47" d="M155.9,180.1c0.2,0,0.5-0.1,0.7-0.3s0.3-0.4,0.3-0.7c0-0.2-0.1-0.5-0.3-0.7
				s-0.4-0.3-0.7-0.3c-0.2,0-0.5,0.1-0.7,0.3s-0.3,0.4-0.3,0.7c0,0.2,0.1,0.5,0.3,0.7S155.6,180.1,155.9,180.1z"/>
		</g>
	</g>
	<g>
		<g>
			<path id="C0_0_7389ae8162_214_" class="st9" d="M152.8,135.1c0.2,0,0.5-0.1,0.7-0.3c0.2-0.2,0.3-0.4,0.3-0.7
				c0-0.2-0.1-0.5-0.3-0.7c-0.2-0.2-0.4-0.3-0.7-0.3c-0.2,0-0.5,0.1-0.7,0.3c-0.2,0.2-0.3,0.4-0.3,0.7c0,0.2,0.1,0.5,0.3,0.7
				C152.3,135,152.6,135.1,152.8,135.1z"/>
		</g>
	</g>
	<g>
		<g>
			<path id="C0_0_7389ae8162_215_" class="st48" d="M112.2,179.5c0.2,0,0.5-0.1,0.7-0.3c0.2-0.2,0.3-0.4,0.3-0.7s-0.1-0.5-0.3-0.7
				c-0.2-0.2-0.4-0.3-0.7-0.3c-0.2,0-0.5,0.1-0.7,0.3c-0.2,0.2-0.3,0.4-0.3,0.7s0.1,0.5,0.3,0.7C111.7,179.4,112,179.5,112.2,179.5z
				"/>
		</g>
	</g>
	<g>
		<g>
			<path id="C0_0_7389ae8162_228_" class="st48" d="M112.2,175.8c0.2,0,0.5-0.1,0.7-0.3c0.2-0.2,0.3-0.4,0.3-0.7
				c0-0.2-0.1-0.5-0.3-0.7c-0.2-0.2-0.4-0.3-0.7-0.3c-0.2,0-0.5,0.1-0.7,0.3c-0.2,0.2-0.3,0.4-0.3,0.7c0,0.2,0.1,0.5,0.3,0.7
				C111.7,175.7,112,175.8,112.2,175.8z"/>
		</g>
	</g>
	<g>
		<g>
			<path id="C0_0_7389ae8162_216_" class="st49" d="M160.8,181.6c0.2,0,0.5-0.1,0.7-0.3s0.3-0.4,0.3-0.7c0-0.2-0.1-0.5-0.3-0.7
				s-0.4-0.3-0.7-0.3c-0.2,0-0.5,0.1-0.7,0.3s-0.3,0.4-0.3,0.7c0,0.2,0.1,0.5,0.3,0.7S160.5,181.6,160.8,181.6z"/>
		</g>
	</g>
	<g>
		<g>
			<path id="C0_0_7389ae8162_217_" class="st2" d="M157.3,138.1c0.2,0,0.5-0.1,0.7-0.3c0.2-0.2,0.3-0.4,0.3-0.7
				c0-0.2-0.1-0.5-0.3-0.7c-0.2-0.2-0.4-0.3-0.7-0.3s-0.5,0.1-0.7,0.3c-0.2,0.2-0.3,0.4-0.3,0.7c0,0.2,0.1,0.5,0.3,0.7
				C156.8,138,157,138.1,157.3,138.1z"/>
		</g>
	</g>
	<g>
		<g>
			<path id="C0_0_7389ae8162_218_" class="st32" d="M137.2,198.8c0.2,0,0.5-0.1,0.7-0.3s0.3-0.4,0.3-0.7s-0.1-0.5-0.3-0.7
				s-0.4-0.3-0.7-0.3c-0.2,0-0.5,0.1-0.7,0.3s-0.3,0.4-0.3,0.7s0.1,0.5,0.3,0.7S137,198.8,137.2,198.8z"/>
		</g>
	</g>
	<g>
		<g>
			<path id="C0_0_7389ae8162_219_" class="st50" d="M167.3,180.7c0.2,0,0.5-0.1,0.7-0.3s0.3-0.4,0.3-0.7s-0.1-0.5-0.3-0.7
				s-0.4-0.3-0.7-0.3c-0.2,0-0.5,0.1-0.7,0.3s-0.3,0.4-0.3,0.7s0.1,0.5,0.3,0.7S167,180.7,167.3,180.7z"/>
		</g>
	</g>
	<g>
		<g>
			<path id="C0_0_7389ae8162_220_" class="st14" d="M164.8,135.8c0.2,0,0.5-0.1,0.7-0.3c0.2-0.2,0.3-0.4,0.3-0.7
				c0-0.2-0.1-0.5-0.3-0.7c-0.2-0.2-0.4-0.3-0.7-0.3c-0.2,0-0.5,0.1-0.7,0.3c-0.2,0.2-0.3,0.4-0.3,0.7c0,0.2,0.1,0.5,0.3,0.7
				C164.3,135.7,164.6,135.8,164.8,135.8z"/>
		</g>
	</g>
	<g>
		<g>
			<path id="C0_0_7389ae8162_221_" class="st45" d="M115.8,192.2c0.2,0,0.5-0.1,0.7-0.3c0.2-0.2,0.3-0.4,0.3-0.7
				c0-0.2-0.1-0.5-0.3-0.7c-0.2-0.2-0.4-0.3-0.7-0.3c-0.2,0-0.5,0.1-0.7,0.3c-0.2,0.2-0.3,0.4-0.3,0.7c0,0.2,0.1,0.5,0.3,0.7
				C115.4,192.1,115.6,192.2,115.8,192.2z"/>
		</g>
	</g>
	<g>
		<g>
			<path id="C0_0_7389ae8162_222_" class="st11" d="M140.8,203.5c0.2,0,0.5-0.1,0.7-0.3s0.3-0.4,0.3-0.7s-0.1-0.5-0.3-0.7
				s-0.4-0.3-0.7-0.3s-0.5,0.1-0.7,0.3s-0.3,0.4-0.3,0.7s0.1,0.5,0.3,0.7S140.6,203.5,140.8,203.5z"/>
		</g>
	</g>
	<g>
		<g>
			<path id="C0_0_7389ae8162_223_" class="st2" d="M138.3,161.5c0.2,0,0.5-0.1,0.7-0.3c0.2-0.2,0.3-0.4,0.3-0.7s-0.1-0.5-0.3-0.7
				c-0.2-0.2-0.4-0.3-0.7-0.3c-0.2,0-0.5,0.1-0.7,0.3c-0.2,0.2-0.3,0.4-0.3,0.7s0.1,0.5,0.3,0.7
				C137.8,161.4,138.1,161.5,138.3,161.5z"/>
		</g>
	</g>
	<g>
		<g>
			<path id="C0_0_7389ae8162_224_" class="st1" d="M143.4,162.7c0.2,0,0.5-0.1,0.7-0.3s0.3-0.4,0.3-0.7s-0.1-0.5-0.3-0.7
				s-0.4-0.3-0.7-0.3c-0.2,0-0.5,0.1-0.7,0.3s-0.3,0.4-0.3,0.7s0.1,0.5,0.3,0.7S143.1,162.7,143.4,162.7z"/>
		</g>
	</g>
	<g>
		<g>
			<path id="C0_0_7389ae8162_225_" class="st2" d="M147.7,165.2c0.2,0,0.5-0.1,0.7-0.3c0.2-0.2,0.3-0.4,0.3-0.7s-0.1-0.5-0.3-0.7
				c-0.2-0.2-0.4-0.3-0.7-0.3c-0.2,0-0.5,0.1-0.7,0.3c-0.2,0.2-0.3,0.4-0.3,0.7s0.1,0.5,0.3,0.7
				C147.2,165.1,147.4,165.2,147.7,165.2z"/>
		</g>
	</g>
	<g>
		<g>
			<path id="C0_0_7389ae8162_226_" class="st11" d="M156.3,160.8c0.2,0,0.5-0.1,0.7-0.3c0.2-0.2,0.3-0.4,0.3-0.7
				c0-0.2-0.1-0.5-0.3-0.7c-0.2-0.2-0.4-0.3-0.7-0.3c-0.2,0-0.5,0.1-0.7,0.3c-0.2,0.2-0.3,0.4-0.3,0.7c0,0.2,0.1,0.5,0.3,0.7
				C155.8,160.7,156,160.8,156.3,160.8z"/>
		</g>
	</g>
	<g>
		<g>
			<path id="C0_0_7389ae8162_227_" class="st27" d="M162.7,160.2c0.2,0,0.5-0.1,0.7-0.3c0.2-0.2,0.3-0.4,0.3-0.7
				c0-0.2-0.1-0.5-0.3-0.7c-0.2-0.2-0.4-0.3-0.7-0.3c-0.2,0-0.5,0.1-0.7,0.3c-0.2,0.2-0.3,0.4-0.3,0.7c0,0.2,0.1,0.5,0.3,0.7
				C162.2,160.1,162.4,160.2,162.7,160.2z"/>
		</g>
	</g>
</g>
<g id="Layer_3">
	<polygon class="st51" points="169.5,202.3 169.5,204.6 167.6,204.6 168.4,203.6 168.5,203.5 	"/>
	<polygon class="st51" points="169.5,191 169.5,193.3 168.5,194.5 160.8,203.6 160,204.6 158,204.6 158.9,203.6 168.5,192.2 	"/>
	<polygon class="st51" points="169.5,158 169.5,160.6 168.5,162 138.2,203.6 137.5,204.6 135.6,204.6 136.3,203.6 168.5,159.4 	"/>
	<polygon class="st51" points="169.5,145.6 169.5,148.2 168.5,149.5 129.2,203.6 128.4,204.6 126.6,204.6 127.3,203.6 168.5,147 	
		"/>
	<polygon class="st51" points="169.5,104.3 169.5,107.1 168.5,108.7 109.2,203.6 108.5,204.6 106.8,204.6 107.4,203.6 168.5,105.9 	
		"/>
	<polygon class="st51" points="169.5,90.5 169.5,93.4 168.5,95 100.6,203.6 99.9,204.6 98.2,204.6 98.8,203.6 168.5,92.1 	"/>
	<polygon class="st51" points="169.5,37.1 169.5,40.3 168.5,42.2 82.6,203.6 82.1,204.6 80.4,204.6 80.9,203.6 168.5,39 	"/>
	<polygon class="st51" points="169.5,21.6 169.5,24.8 168.5,26.7 74.4,203.6 73.8,204.6 72.1,204.6 72.7,203.6 168.5,23.5 	"/>
	<polygon class="st51" points="148.7,0 148.2,1 58,203.6 57.6,204.6 56,204.6 56.4,203.6 146.6,1 147.1,0 	"/>
	<polygon class="st51" points="140.7,0 140.3,1 50.1,203.6 49.6,204.6 48,204.6 48.4,203.6 138.6,1 139.1,0 	"/>
	<polygon class="st51" points="109.1,0 108.7,1 35,203.6 34.6,204.6 33,204.6 33.4,203.6 107.1,1 107.5,0 	"/>
	<polygon class="st51" points="101.3,0 101,1 27.2,203.6 26.8,204.6 25.2,204.6 25.6,203.6 99.4,1 99.7,0 	"/>
	<polygon class="st51" points="71.5,0 71.2,1 13.1,203.6 12.8,204.6 11.2,204.6 11.5,203.6 69.6,1 69.9,0 	"/>
	<polygon class="st51" points="63.9,0 63.6,1 5.5,203.6 5.2,204.6 3.7,204.6 3.9,203.6 62,1 62.3,0 	"/>
	<polygon class="st51" points="35.4,0 35.2,1 3.7,149.3 3.7,142.1 33.6,1 33.9,0 	"/>
	<polygon class="st51" points="27.9,0 27.7,1 3.7,114.2 3.7,107 26.2,1 26.4,0 	"/>
</g>
</svg>
